<?xml version="1.0" encoding="utf-8"?>
<svg viewBox="0 0 500 500" xmlns="http://www.w3.org/2000/svg">
  <g transform="matrix(0.064714, 0, 0, -0.064714, 54.025116, 433.955383)" fill="#000000" stroke="none" style="">
    <path d="M 4115 3539 C 4113 3554 1852 3626 1852 3581 C 1853 3536 1857 3500 1862 3500 C 1866 3500 1870 3494 1870 3486 C 1870 3478 1873 3470 1878 3467 C 1882 3465 1878 3466 1870 3468 C 1825 3484 1785 3475 1772 3446 C 1729 3359 1770 2975 1836 2849 C 1844 2833 1850 2801 1850 2776 C 1850 2715 1857 2702 1901 2680 C 1946 2656 1998 2654 2006 2675 C 2015 2698 1980 2891 1959 2936 C 1949 2958 1940 2982 1940 2988 C 1940 2995 1924 3000 1900 3000 C 1855 3000 1853 3003 1846 3075 C 1844 3103 1841 3128 1841 3133 C 1840 3137 1834 3140 1826 3140 C 1817 3140 1808 3162 1800 3205 C 1788 3270 1793 3340 1810 3340 C 1815 3340 1817 3346 1814 3354 C 1811 3362 1816 3377 1826 3388 C 1842 3407 1910 3332 1910 3286 C 1910 3268 1914 3250 1919 3244 C 1924 3239 1930 3202 1932 3163 C 1936 3078 1953 3070 1958 3151 C 1960 3183 1895.055 3580.933 1904.055 3591.933 C 1901.209 3607.788 3156.86 3579.215 4089.705 3548.21 C 4266.689 3542.328 3939.557 3522.11 4135 3464 C 4157.377 3457.347 4190 3444 4190 3422 C 4190 3413 4198 3398 4207 3387 C 4237 3354 4225 3192 4194 3204 C 4183 3208 4180 3197 4179 3152 C 4178 3054 4170 3039 4111 3014 C 4069 2997 4030 2962 4030 2943 C 4030 2926 4040 2927 4064 2945 C 4097 2970 4117 2964 4123 2928 C 4125 2910 4124 2887 4119 2878 C 4114 2869 4110 2852 4110 2841 C 4110 2829 4106 2820 4101 2820 C 4096 2820 4093 2812 4094 2803 C 4095 2791 4089 2786 4078 2788 C 4068 2790 4060 2786 4060 2781 C 4060 2775 4030 2770 3994 2768 C 3931 2765 3925 2763 3898 2729 C 3882 2709 3863 2671 3855 2644 C 3806 2467 3792 2414 3796 2409 C 3798 2405 3792 2381 3783 2354 C 3771 2319 3770 2305 3778 2302 C 3785 2300 3790 2289 3790 2279 C 3790 2268 3794 2261 3799 2265 C 3817 2276 3820 2252 3805 2204 C 3794 2168 3791 2101 3790 1952 C 3790 1840 3788 1744 3784 1739 C 3766 1709 3835 1539 3859 1555 C 3869 1561 3955 1461 3961 1467 C 3974 1480 3937 1551 3888 1608 L 3860 1641 L 3865 1833 C 3868 1939 3872 2088 3874 2164 C 3876 2241 3874 2315 3869 2328 C 3862 2345 3864 2367 3874 2399 C 3882 2424 3905 2508 3925 2585 C 3944 2662 3964 2728 3969 2733 C 3973 2737 3984 2730 3993 2716 C 4042 2642 4164 2700 4166 2799 C 4166 2849 4171 2869 4231 3059 C 4284 3227 4292 3353 4258 3450 C 4237 3508 4232 3515 4206 3518 C 4175 3522 4131 3504 4117 3482 C 4106 3465 4090 3476 4090 3502 C 4090 3515 4095 3520 4104 3517 C 4115 3513 4117 3518 4115 3539 Z M 4090 3469 C 4090 3464 4086 3460 4080 3460 C 4075 3460 4070 3467 4070 3476 C 4070 3484 4075 3488 4080 3485 C 4086 3482 4090 3475 4090 3469 Z M 1920 2930 C 1930 2925 1941 2907 1945 2890 C 1949 2874 1955 2860 1960 2860 C 1964 2860 1968 2840 1968 2815 C 1969 2786 1965 2770 1957 2770 C 1934 2770 1918 2788 1917 2814 C 1916 2828 1912 2840 1908 2840 C 1903 2840 1900 2847 1900 2855 C 1900 2863 1896 2870 1890 2870 C 1885 2870 1880 2886 1880 2905 C 1880 2941 1889 2947 1920 2930 Z M 3290 3473 C 3260 3457 3205 3395 3205 3395 L 3253 3424 C 3328 3467 3385 3479 3349 3443 C 3340 3434 3341 3423 3351 3398 C 3358 3380 3363 3357 3361 3346 C 3360 3335 3363 3330 3369 3335 C 3375 3338 3378 3345 3375 3350 C 3373 3354 3383 3363 3400 3370 C 3429 3382 3449 3427 3435 3450 C 3416 3480 3520 3449 3563 3412 C 3579 3398 3578 3395 3538 3368 C 3501 3343 3489 3340 3448 3345 C 3387 3352 3378 3325 3438 3315 C 3475 3309 3590 3346 3597 3367 C 3599 3372 3616 3374 3635 3372 C 3662 3369 3669 3371 3664 3381 C 3653 3408 3577 3461 3534 3471 C 3509 3477 3487 3486 3484 3491 C 3481 3496 3448 3500 3411 3500 C 3357 3500 3333 3495 3290 3473 Z M 3420 3465 C 3420 3462 3418 3460 3415 3460 C 3412 3460 3410 3462 3410 3465 C 3410 3468 3412 3470 3415 3470 C 3418 3470 3420 3468 3420 3465 Z M 3400 3420 C 3400 3415 3396 3410 3390 3410 C 3385 3410 3380 3415 3380 3420 C 3380 3426 3385 3430 3390 3430 C 3396 3430 3400 3426 3400 3420 Z M 3234 3476 C 3224 3468 3217 3459 3220 3457 C 3223 3454 3234 3458 3244 3466 C 3255 3473 3261 3482 3259 3485 C 3256 3488 3245 3483 3234 3476 Z M 2455 3464 C 2440 3456 2417 3448 2404 3446 C 2391 3443 2368 3433 2352 3422 C 2337 3411 2315 3400 2303 3396 C 2257 3381 2265 3334 2312 3344 C 2329 3347 2356 3344 2374 3336 C 2443 3306 2486 3299 2519 3313 C 2559 3330 2551 3338 2497 3334 C 2469 3331 2441 3337 2409 3352 L 2364 3374 L 2389 3396 C 2422 3423 2460 3443 2467 3436 C 2470 3434 2483 3435 2496 3440 C 2527 3452 2529 3433 2498 3420 C 2485 3415 2481 3411 2488 3411 C 2495 3410 2505 3399 2510 3385 C 2515 3371 2526 3359 2535 3359 C 2586 3355 2585 3354 2585 3397 C 2585 3435 2587 3439 2605 3434 C 2639 3423 2664 3411 2688 3394 C 2719 3371 2715 3392 2683 3421 C 2625 3473 2512 3494 2455 3464 Z M 2560 3400 C 2560 3395 2558 3390 2556 3390 C 2553 3390 2548 3395 2545 3400 C 2542 3406 2544 3410 2549 3410 C 2555 3410 2560 3406 2560 3400 Z M 2670 3465 C 2670 3462 2672 3460 2675 3460 C 2678 3460 2680 3462 2680 3465 C 2680 3468 2678 3470 2675 3470 C 2672 3470 2670 3468 2670 3465 Z M 2695 3450 C 2698 3445 2703 3440 2706 3440 C 2709 3440 2708 3445 2705 3450 C 2702 3456 2697 3460 2694 3460 C 2691 3460 2692 3456 2695 3450 Z M 2610 3405 C 2610 3402 2612 3400 2615 3400 C 2618 3400 2620 3402 2620 3405 C 2620 3408 2618 3410 2615 3410 C 2612 3410 2610 3408 2610 3405 Z M 2863 3383 C 2867 3380 2873 3380 2877 3383 C 2880 3387 2877 3390 2870 3390 C 2863 3390 2860 3387 2863 3383 Z M 4180 3385 C 4180 3382 4182 3380 4185 3380 C 4188 3380 4190 3382 4190 3385 C 4190 3388 4188 3390 4185 3390 C 4182 3390 4180 3388 4180 3385 Z M 3168 3373 C 3174 3371 3186 3371 3193 3373 C 3199 3376 3194 3378 3180 3378 C 3166 3378 3161 3376 3168 3373 Z M 2726 3351 C 2709 3332 2709 3332 2729 3337 C 2741 3340 2750 3349 2750 3356 C 2750 3374 2746 3374 2726 3351 Z M 3080 3360 C 3080 3353 3083 3350 3087 3353 C 3090 3357 3090 3363 3087 3367 C 3083 3370 3080 3367 3080 3360 Z M 2575 3340 C 2572 3335 2576 3330 2584 3330 C 2593 3330 2600 3335 2600 3340 C 2600 3346 2596 3350 2591 3350 C 2585 3350 2578 3346 2575 3340 Z M 2841 3336 C 2833 3326 2832 3320 2840 3315 C 2845 3312 2853 3316 2856 3325 C 2865 3347 2855 3354 2841 3336 Z M 3072 3301 C 3057 3251 3057 3245 3076 3226 C 3106 3195 3119 3233 3104 3309 C 3095 3350 3086 3348 3072 3301 Z M 4160 3265 C 4160 3251 4165 3240 4170 3240 C 4176 3240 4180 3251 4180 3265 C 4180 3279 4176 3290 4170 3290 C 4165 3290 4160 3279 4160 3265 Z M 3108 3112 C 3098 3110 3090 3106 3090 3102 C 3090 3087 3115 3030 3122 3030 C 3126 3030 3130 3021 3130 3010 C 3130 3000 3143 2976 3159 2958 C 3175 2940 3197 2908 3208 2887 C 3228 2849 3243 2849 3236 2886 C 3234 2897 3216 2932 3197 2965 C 3178 2998 3159 3040 3155 3059 C 3146 3100 3131 3117 3108 3112 Z M 2750 2985 C 2750 2982 2752 2980 2755 2980 C 2758 2980 2760 2982 2760 2985 C 2760 2988 2758 2990 2755 2990 C 2752 2990 2750 2988 2750 2985 Z M 2711 2934 C 2711 2923 2714 2920 2717 2928 C 2720 2935 2719 2944 2716 2947 C 2713 2951 2710 2945 2711 2934 Z M 2800 2851 C 2800 2837 2841 2810 2862 2810 C 2889 2810 2883 2828 2850 2845 C 2817 2862 2800 2864 2800 2851 Z M 3094 2845 C 3057 2830 3045 2814 3063 2807 C 3079 2801 3140 2828 3140 2841 C 3140 2857 3124 2858 3094 2845 Z M 2107 2703 C 2104 2698 2099 2680 2095 2662 C 2091 2644 2082 2626 2076 2624 C 2046 2613 2088 2412 2140 2312 C 2212 2174 2216 2168 2231 2187 C 2243 2201 2243 2203 2231 2195 C 2220 2189 2218 2191 2223 2203 C 2226 2212 2225 2222 2219 2226 C 2213 2229 2211 2238 2214 2246 C 2221 2263 2201 2371 2189 2386 C 2184 2392 2176 2431 2170 2472 C 2164 2514 2155 2563 2150 2581 C 2144 2600 2140 2636 2140 2662 C 2140 2697 2136 2710 2126 2710 C 2118 2710 2109 2707 2107 2703 Z M 3335 2529 C 3302 2518 3241 2507 3200 2504 C 3159 2502 3109 2497 3090 2493 C 3071 2490 3033 2486 3005 2485 C 2978 2484 2947 2480 2938 2476 C 2929 2472 2916 2471 2910 2475 C 2904 2478 2840 2486 2767 2491 C 2525 2509 2504 2503 2576 2431 C 2619 2389 2712 2348 2728 2364 C 2739 2376 2718 2400 2697 2400 C 2669 2400 2645 2424 2655 2440 C 2659 2447 2730 2450 2868 2449 C 2988 2448 3102 2452 3140 2458 C 3176 2465 3227 2470 3254 2470 L 3303 2470 L 3280 2445 C 3267 2431 3251 2420 3244 2420 C 3237 2420 3226 2410 3219 2399 C 3208 2378 3209 2377 3241 2384 C 3275 2391 3291 2405 3284 2424 C 3282 2430 3291 2436 3304 2436 C 3336 2438 3430 2510 3430 2532 C 3430 2554 3413 2554 3335 2529 Z M 2089 2018 C 2088 1785 2146 1620 2151 1626 C 2156 1632 2160 1731 2161 1847 C 2163 2099 2168 2114 2226 2051 C 2277 1993 2281 2008 2231 2071 C 2208 2100 2170 2163 2147 2211 C 2124 2259 2102 2299 2098 2299 C 2093 2300 2090 2173 2089 2018 Z M 2180 2115 C 2180 2112 2178 2110 2175 2110 C 2172 2110 2170 2112 2170 2115 C 2170 2118 2172 2120 2175 2120 C 2178 2120 2180 2118 2180 2115 Z M 2230 2165 C 2230 2162 2232 2160 2235 2160 C 2238 2160 2240 2162 2240 2165 C 2240 2168 2238 2170 2235 2170 C 2232 2170 2230 2168 2230 2165 Z M 2170 2055 C 2170 2052 2172 2050 2175 2050 C 2178 2050 2180 2052 2180 2055 C 2180 2058 2178 2060 2175 2060 C 2172 2060 2170 2058 2170 2055 Z M 3640 1990 C 3640 1983 3643 1980 3647 1983 C 3650 1987 3650 1993 3647 1997 C 3643 2000 3640 1997 3640 1990 Z M 3585 1957 C 3563 1945 3538 1927 3529 1918 C 3520 1908 3509 1900 3505 1900 C 3501 1900 3481 1887 3461 1871 C 3441 1855 3403 1833 3375 1821 C 3348 1809 3308 1790 3287 1780 C 3265 1769 3239 1760 3228 1760 C 3218 1760 3201 1756 3192 1751 C 3176 1742 2986 1716 2950 1717 C 2905 1719 2734 1743 2725 1749 C 2720 1753 2697 1762 2675 1769 C 2653 1777 2616 1795 2594 1810 C 2571 1825 2536 1843 2517 1849 C 2497 1856 2464 1870 2443 1880 C 2422 1890 2404 1897 2402 1895 C 2393 1887 2427 1850 2458 1836 C 2476 1827 2517 1803 2548 1782 C 2784 1626 3051 1599 3281 1708 C 3327 1730 3376 1752 3390 1756 C 3404 1759 3417 1766 3420 1770 C 3423 1774 3448 1794 3475 1814 C 3534 1858 3630 1955 3630 1970 C 3630 1975 3629 1980 3628 1979 C 3626 1979 3607 1969 3585 1957 Z" style="fill: rgb(212, 136, 124);"/>
    <rect x="1909.023" y="-3665.32" width="2194.421" height="135.31" style="fill: rgb(255, 255, 255); stroke: rgb(255, 255, 255);" transform="matrix(1, 0, 0, -1, 0, 0)" rx="16.097" ry="16.097"/>
  </g>
  <g transform="matrix(0.064499, 0, 0, -0.064499, 53.615646, 434.754333)" fill="#000000" stroke="none" style="">
    <path d="M 3035 5279 C 3019 5273 2942 5261 2865 5250 C 2788 5240 2717 5229 2708 5225 C 2697 5221 2690 5222 2690 5228 C 2690 5235 2676 5234 2649 5225 C 2613 5212 2609 5212 2614 5225 C 2617 5233 2617 5240 2614 5240 C 2601 5240 2550 5205 2550 5197 C 2550 5192 2543 5191 2535 5194 C 2525 5198 2516 5192 2511 5178 C 2504 5159 2503 5159 2497 5174 C 2493 5184 2492 5196 2496 5201 C 2499 5206 2497 5217 2492 5226 C 2479 5250 2428 5203 2388 5129 C 2370 5097 2350 5070 2343 5070 C 2336 5070 2330 5063 2330 5054 C 2330 5044 2324 5040 2315 5044 C 2306 5047 2300 5044 2300 5036 C 2300 5029 2294 5017 2286 5011 C 2275 5002 2271 5004 2266 5024 C 2261 5046 2276 5108 2289 5120 C 2299 5128 2320 5193 2315 5199 C 2312 5202 2303 5194 2294 5182 C 2286 5170 2273 5160 2265 5160 C 2252 5160 2200 5064 2200 5041 C 2200 5035 2196 5030 2190 5030 C 2181 5030 2176 5053 2177 5088 C 2178 5110 2161 5101 2154 5075 C 2150 5060 2138 5047 2125 5044 C 2107 5039 2101 5029 2096 4990 C 2089 4935 2077 4922 2053 4942 C 2041 4951 2038 4951 2044 4943 C 2048 4935 2046 4930 2040 4930 C 2033 4930 2030 4923 2034 4913 C 2038 4902 2032 4905 2020 4920 C 2009 4934 2000 4950 2000 4957 C 2000 4986 1969 4954 1964 4919 C 1960 4895 1952 4880 1943 4880 C 1933 4880 1931 4873 1935 4858 C 1940 4840 1936 4843 1918 4867 C 1881 4919 1875 4905 1909 4845 C 1943 4785 1943 4737 1909 4781 C 1891 4805 1890 4805 1890 4783 C 1890 4759 1935 4700 1954 4700 C 1967 4700 2000 4669 2000 4658 C 2000 4655 1991 4650 1980 4647 C 1966 4643 1960 4647 1960 4660 C 1960 4683 1934 4705 1925 4690 C 1922 4685 1926 4677 1934 4674 C 1943 4671 1950 4664 1950 4659 C 1950 4647 1913 4648 1905 4660 C 1901 4666 1895 4668 1890 4665 C 1885 4662 1877 4668 1871 4677 C 1866 4687 1858 4692 1855 4688 C 1851 4684 1855 4671 1864 4658 C 1873 4646 1880 4626 1880 4614 C 1880 4602 1893 4579 1910 4564 C 1931 4544 1936 4533 1927 4528 C 1918 4522 1918 4520 1927 4520 C 1945 4520 1932 4462 1906 4427 C 1894 4411 1885 4380 1883 4352 C 1882 4326 1878 4283 1875 4255 C 1871 4228 1867 4097 1866 3965 C 1864 3820 1859 3714 1852 3699 C 1846 3684 1844 3670 1846 3667 C 1849 3664 1852 3626 1852 3581 C 1853 3536 1857 3500 1862 3500 C 1866 3500 1870 3494 1870 3486 C 1870 3478 1914 3250 1919 3244 C 1924 3239 1968 3212 1977 3223 C 1990 3237 1996 3282 2005 3450 C 2015 3642 2017 3662 2038 3687 C 2091 3753 2094 3762 2103 3864 C 2112 3972 2120 4162 2121 4299 C 2122 4387 2141 4452 2175 4480 C 2187 4490 2218 4495 2274 4496 C 2365 4497 2420 4505 2467 4526 C 2484 4534 2506 4540 2517 4540 C 2527 4540 2544 4546 2555 4553 C 2590 4577 2688 4591 2731 4579 C 2752 4572 2780 4571 2797 4575 L 2825 4583 L 2800 4590 C 2775 4598 2775 4598 2804 4599 C 2820 4600 2857 4592 2886 4583 C 2932 4569 2945 4568 2980 4580 C 3011 4590 3026 4591 3045 4582 C 3075 4568 3179 4567 3233 4579 C 3260 4585 3286 4584 3323 4573 C 3351 4564 3382 4555 3390 4553 C 3401 4550 3401 4547 3392 4541 C 3384 4536 3400 4515 3444 4473 C 3505 4417 3545 4396 3533 4427 C 3530 4435 3535 4440 3549 4440 C 3561 4440 3570 4436 3570 4430 C 3570 4425 3594 4396 3623 4365 C 3683 4304 3746 4188 3756 4123 C 3763 4077 3773 4071 3808 4096 C 3832 4113 3835 4107 3830 4053 C 3829 4032 3855 3904 3882 3805 C 3887 3783 3900 3754 3910 3740 C 3935 3704 3951 3627 3951 3546 C 3950 3460 3969 3292 3982 3267 C 4000 3232 4022 3254 4046 3332 C 4072 3414 4102 3459 4135 3464 C 4158 3468 4131 3504 4117 3482 C 4106 3465 4090 3476 4090 3502 C 4090 3515 4095 3520 4104 3517 C 4115 3513 4117 3518 4115 3539 C 4113 3554 4109 3683 4106 3826 C 4103 3968 4100 4087 4100 4090 C 4095 4142 4097 4250 4102 4250 C 4106 4250 4118 4233 4129 4213 L 4149 4175 L 4150 4213 C 4150 4234 4146 4270 4140 4293 C 4135 4316 4126 4380 4122 4435 C 4116 4509 4107 4548 4089 4583 C 4057 4647 3947 4799 3883 4870 C 3854 4901 3830 4936 3830 4946 C 3830 4968 3788 5030 3764 5043 C 3756 5048 3717 5062 3677 5076 C 3638 5089 3589 5112 3569 5125 C 3527 5155 3390 5214 3340 5225 C 3321 5229 3271 5243 3230 5255 C 3136 5284 3074 5291 3035 5279 Z M 2470 5215 C 2470 5212 2468 5210 2465 5210 C 2462 5210 2460 5212 2460 5215 C 2460 5218 2462 5220 2465 5220 C 2468 5220 2470 5218 2470 5215 Z M 3221 5191 C 3264 5185 3318 5172 3341 5161 C 3365 5149 3404 5136 3427 5130 C 3463 5121 3507 5093 3498 5085 C 3496 5083 3444 5090 3383 5101 C 3299 5115 3265 5125 3249 5141 C 3235 5155 3223 5159 3212 5154 C 3203 5149 3170 5147 3140 5148 C 3110 5149 3018 5152 2935 5155 C 2853 5157 2783 5160 2781 5160 C 2779 5160 2779 5162 2782 5165 C 2785 5168 2838 5175 2899 5180 C 2960 5185 3018 5194 3027 5200 C 3046 5211 3089 5209 3221 5191 Z M 2429 5153 C 2419 5132 2410 5110 2410 5102 C 2410 5095 2406 5092 2400 5095 C 2390 5101 2409 5148 2432 5178 C 2450 5199 2449 5191 2429 5153 Z M 2460 5155 C 2453 5147 2451 5140 2454 5140 C 2458 5140 2456 5131 2450 5120 C 2444 5109 2434 5100 2428 5100 C 2419 5100 2419 5103 2428 5112 C 2435 5119 2440 5130 2440 5137 C 2440 5152 2462 5180 2469 5174 C 2471 5172 2467 5164 2460 5155 Z M 2540 5176 C 2540 5173 2535 5168 2528 5164 C 2521 5160 2520 5161 2524 5168 C 2531 5180 2540 5184 2540 5176 Z M 2763 5153 C 2756 5151 2742 5151 2733 5153 C 2723 5156 2729 5158 2745 5158 C 2762 5158 2769 5156 2763 5153 Z M 2510 5145 C 2510 5142 2508 5140 2505 5140 C 2502 5140 2500 5142 2500 5145 C 2500 5148 2502 5150 2505 5150 C 2508 5150 2510 5148 2510 5145 Z M 2540 5145 C 2540 5142 2538 5140 2535 5140 C 2532 5140 2530 5142 2530 5145 C 2530 5148 2532 5150 2535 5150 C 2538 5150 2540 5148 2540 5145 Z M 2944 5143 C 3005 5138 3011 5135 2995 5123 C 2984 5116 2958 5110 2936 5110 C 2907 5110 2899 5113 2909 5119 C 2924 5129 2913 5133 2850 5143 L 2825 5147 L 2850 5149 C 2864 5149 2906 5147 2944 5143 Z M 2477 5123 C 2473 5120 2470 5123 2470 5130 C 2470 5137 2473 5140 2477 5137 C 2480 5133 2480 5127 2477 5123 Z M 2830 5100 C 2900 5076 2914 5076 3002 5100 C 3091 5124 3121 5125 3230 5102 C 3306 5085 3415 5042 3382 5040 C 3375 5040 3356 5047 3341 5054 C 3326 5062 3289 5072 3259 5075 L 3205 5081 L 3280 5059 C 3321 5047 3369 5037 3385 5037 C 3524 5037 3750 4968 3750 4926 C 3750 4920 3780 4886 3817 4850 C 3960 4711 3980 4690 3980 4678 C 3979 4671 3963 4683 3944 4705 C 3924 4727 3903 4746 3897 4746 C 3890 4747 3879 4748 3872 4749 C 3865 4749 3861 4754 3864 4759 C 3872 4771 3801 4850 3784 4850 C 3776 4850 3770 4854 3770 4859 C 3770 4872 3727 4881 3716 4870 C 3702 4856 3676 4858 3643 4874 C 3574 4908 3491 4941 3450 4950 C 3381 4965 3268 4962 3246 4945 C 3235 4937 3216 4930 3204 4930 C 3191 4930 3179 4926 3176 4921 C 3169 4910 3204 4900 3250 4900 C 3287 4900 3364 4867 3353 4856 C 3348 4851 3379 4821 3413 4799 C 3419 4795 3419 4782 3414 4766 L 3405 4740 L 3373 4762 C 3355 4775 3338 4793 3334 4802 C 3322 4841 3301 4850 3224 4850 C 3167 4850 3148 4846 3144 4835 C 3140 4827 3131 4820 3123 4820 C 3115 4820 3112 4816 3115 4810 C 3125 4794 3108 4798 3088 4817 C 3072 4832 3067 4832 3033 4817 C 3012 4809 2982 4799 2965 4796 C 2936 4790 2936 4790 2955 4806 C 2977 4823 2983 4823 2896 4805 C 2882 4802 2860 4805 2846 4812 C 2825 4821 2813 4820 2781 4806 C 2748 4791 2739 4790 2720 4802 C 2702 4812 2696 4812 2693 4803 C 2690 4796 2676 4790 2662 4789 L 2635 4789 L 2660 4778 C 2674 4772 2699 4761 2717 4754 C 2761 4734 2788 4737 2860 4766 C 2904 4784 2926 4788 2933 4781 C 2939 4775 2961 4770 2982 4770 C 3012 4770 3018 4773 3013 4786 C 3008 4801 3017 4802 3101 4795 C 3199 4788 3245 4771 3174 4769 C 3143 4767 3148 4765 3200 4758 C 3298 4744 3311 4740 3305 4730 C 3302 4724 3307 4720 3317 4720 C 3328 4720 3341 4715 3347 4709 C 3354 4702 3367 4700 3377 4704 C 3394 4711 3394 4712 3378 4721 C 3368 4727 3360 4735 3360 4740 C 3360 4757 3506 4673 3549 4631 C 3578 4601 3595 4591 3602 4598 C 3615 4611 3663 4583 3654 4569 C 3651 4564 3655 4560 3663 4560 C 3671 4560 3696 4540 3719 4515 C 3741 4491 3760 4476 3760 4482 C 3760 4501 3589 4665 3553 4681 C 3535 4688 3520 4698 3520 4703 C 3520 4707 3504 4718 3485 4727 C 3441 4748 3440 4760 3484 4760 C 3522 4760 3540 4745 3513 4736 C 3503 4733 3508 4732 3525 4734 C 3555 4738 3640 4700 3689 4662 C 3704 4650 3722 4645 3739 4648 C 3762 4653 3757 4657 3695 4686 C 3656 4705 3630 4720 3637 4720 C 3665 4720 3635 4758 3597 4770 C 3560 4781 3557 4783 3574 4795 C 3594 4810 3635 4802 3677 4773 C 3693 4762 3734 4741 3769 4727 C 3833 4699 3859 4683 3929 4623 C 3950 4605 3971 4594 3975 4598 C 3980 4602 3979 4599 3975 4591 C 3969 4580 3971 4578 3984 4583 C 3994 4587 3999 4586 3995 4580 C 3992 4574 3993 4570 3999 4570 C 4005 4570 4015 4560 4021 4548 C 4030 4529 4030 4527 4019 4538 C 3992 4563 3993 4548 4022 4495 C 4038 4465 4047 4440 4041 4440 C 4025 4440 4028 4424 4046 4406 C 4068 4383 4059 4330 4022 4275 C 4005 4249 3994 4222 3997 4214 C 4000 4207 3996 4198 3989 4195 C 3979 4191 3975 4174 3977 4140 C 3977 4112 3974 4087 3969 4084 C 3961 4079 3958 4091 3955 4157 C 3955 4169 3950 4183 3945 4187 C 3941 4191 3940 4190 3943 4184 C 3949 4173 3924 4155 3908 4158 C 3903 4159 3900 4155 3900 4149 C 3900 4143 3894 4140 3886 4143 C 3877 4147 3870 4140 3866 4124 C 3853 4076 3833 4103 3838 4163 C 3839 4172 3836 4180 3831 4180 C 3826 4180 3816 4197 3810 4218 C 3794 4268 3708 4440 3698 4440 C 3694 4440 3690 4436 3690 4430 C 3690 4412 3671 4420 3665 4440 C 3655 4471 3584 4540 3562 4540 C 3552 4540 3539 4530 3534 4519 C 3524 4498 3523 4499 3476 4539 C 3413 4594 3383 4608 3315 4616 C 3267 4622 3259 4626 3263 4641 C 3266 4653 3261 4660 3246 4663 C 3235 4666 3263 4666 3310 4664 C 3395 4660 3395 4660 3360 4676 C 3334 4688 3308 4691 3255 4687 C 3192 4681 3181 4683 3141 4707 C 3096 4733 3086 4733 3010 4703 C 2997 4698 2997 4699 3008 4713 C 3019 4726 3018 4729 3003 4734 C 2955 4748 2820 4735 2820 4716 C 2820 4702 2894 4657 2903 4666 C 2906 4669 2911 4667 2914 4662 C 2925 4644 2806 4640 2706 4655 C 2651 4663 2606 4670 2605 4670 C 2597 4670 2594 4710 2602 4718 C 2607 4723 2605 4731 2597 4739 C 2586 4748 2573 4746 2539 4731 C 2515 4720 2492 4714 2488 4716 C 2484 4719 2480 4716 2480 4711 C 2480 4705 2471 4700 2461 4700 C 2450 4700 2438 4696 2435 4690 C 2426 4675 2413 4678 2406 4695 C 2399 4714 2420 4750 2437 4750 C 2444 4750 2450 4755 2450 4760 C 2450 4766 2457 4770 2465 4770 C 2492 4770 2530 4811 2524 4835 C 2519 4855 2533 4876 2555 4880 C 2586 4886 2639 4914 2644 4926 C 2648 4936 2645 4937 2632 4930 C 2613 4920 2498 4880 2486 4880 C 2482 4880 2482 4885 2485 4890 C 2488 4896 2484 4900 2475 4900 C 2466 4900 2462 4896 2465 4890 C 2468 4885 2462 4880 2451 4880 C 2440 4880 2428 4876 2425 4870 C 2422 4865 2424 4860 2431 4860 C 2438 4860 2437 4852 2426 4836 C 2417 4822 2413 4804 2416 4796 C 2419 4787 2418 4780 2412 4780 C 2406 4780 2400 4784 2398 4789 C 2397 4794 2376 4789 2352 4778 C 2327 4766 2311 4752 2314 4745 C 2319 4730 2285 4690 2266 4690 C 2249 4690 2168 4601 2175 4590 C 2178 4585 2176 4579 2171 4576 C 2166 4573 2159 4578 2155 4588 C 2149 4604 2148 4604 2138 4587 C 2131 4574 2132 4560 2140 4539 C 2151 4513 2150 4506 2133 4487 C 2107 4458 2051 4328 2046 4287 C 2044 4269 2042 4251 2041 4245 C 2040 4240 2035 4242 2029 4250 C 2021 4261 2020 4256 2024 4230 C 2029 4204 2027 4199 2019 4210 C 2011 4221 2010 4218 2014 4195 C 2017 4178 2013 4155 2005 4140 C 1988 4111 1985 4126 2000 4167 C 2010 4194 2009 4194 1994 4175 C 1984 4161 1980 4144 1984 4120 C 1987 4101 1990 4077 1990 4068 C 1990 4058 1997 4050 2005 4050 C 2014 4050 2020 4059 2020 4073 C 2020 4085 2026 4104 2034 4115 C 2041 4126 2049 4159 2052 4188 C 2055 4217 2061 4245 2067 4251 C 2082 4266 2073 4139 2056 4099 C 2048 4079 2038 4038 2035 4007 C 2032 3977 2023 3939 2015 3924 C 2007 3908 2000 3872 2000 3843 C 2000 3783 1993 3760 1975 3760 C 1959 3760 1944 3896 1956 3937 C 1960 3953 1964 4008 1965 4061 C 1967 4127 1972 4164 1983 4181 C 1991 4194 2005 4233 2014 4267 C 2023 4302 2039 4348 2050 4371 C 2086 4440 2066 4425 2017 4345 C 1977 4281 1969 4259 1964 4200 C 1955 4111 1940 4099 1940 4180 C 1940 4226 1945 4249 1960 4271 C 1972 4286 1983 4323 1986 4352 C 1993 4409 2010 4460 2023 4460 C 2028 4460 2047 4476 2065 4496 C 2099 4532 2099 4533 2084 4568 C 2066 4613 2063 4615 2048 4602 C 2038 4594 2034 4604 2031 4648 C 2023 4757 2025 4782 2044 4796 C 2055 4803 2063 4823 2064 4839 C 2065 4858 2069 4865 2074 4859 C 2080 4854 2091 4850 2100 4850 C 2109 4850 2116 4842 2116 4831 C 2116 4820 2113 4813 2110 4815 C 2098 4823 2066 4754 2063 4715 C 2062 4693 2058 4665 2055 4654 C 2050 4631 2062 4616 2095 4607 C 2112 4602 2120 4612 2148 4668 C 2165 4705 2180 4742 2180 4751 C 2180 4772 2216 4805 2224 4792 C 2238 4770 2320 4807 2320 4835 C 2320 4847 2273 4838 2251 4821 C 2215 4794 2192 4806 2221 4836 C 2233 4849 2241 4862 2239 4865 C 2234 4869 2194 4860 2158 4845 C 2134 4835 2134 4868 2158 4895 C 2194 4936 2270 4985 2270 4966 C 2270 4963 2266 4950 2260 4936 C 2250 4908 2260 4902 2282 4923 C 2293 4935 2357 4970 2367 4970 C 2379 4970 2366 4951 2345 4940 C 2328 4931 2320 4919 2321 4901 C 2322 4883 2324 4880 2327 4893 C 2331 4907 2338 4910 2360 4905 C 2377 4901 2404 4906 2431 4918 C 2574 4981 2610 4992 2617 4973 C 2620 4966 2615 4960 2606 4960 C 2597 4960 2590 4956 2590 4950 C 2590 4945 2608 4941 2630 4942 C 2675 4943 2680 4951 2648 4969 C 2635 4975 2633 4978 2642 4976 C 2652 4973 2666 4977 2674 4985 C 2682 4993 2692 5000 2696 5000 C 2701 5000 2699 4995 2692 4988 C 2678 4974 2676 4956 2690 4965 C 2715 4980 2807 4980 2877 4965 C 2983 4941 3132 4933 3205 4946 L 3245 4953 L 3215 4966 L 3185 4978 L 3210 4989 C 3233 4999 3232 5000 3202 4994 C 3184 4991 3163 4993 3156 4999 C 3148 5006 3091 5011 3016 5011 C 2928 5012 2890 5016 2893 5024 C 2897 5037 2994 5057 3105 5067 C 3152 5071 3172 5076 3155 5078 C 3118 5083 2907 5061 2862 5048 C 2843 5042 2800 5036 2766 5035 C 2732 5033 2687 5028 2666 5024 C 2641 5020 2629 5021 2633 5027 C 2642 5042 2561 5026 2522 5005 C 2504 4996 2466 4973 2438 4954 C 2410 4935 2386 4921 2384 4923 C 2373 4933 2404 4989 2426 4999 C 2440 5005 2469 5024 2489 5041 C 2519 5064 2546 5074 2609 5085 C 2654 5093 2699 5104 2708 5110 C 2733 5124 2769 5121 2830 5100 Z M 2480 5081 C 2480 5076 2471 5070 2460 5067 C 2449 5064 2440 5066 2440 5070 C 2440 5075 2448 5081 2458 5083 C 2467 5086 2476 5088 2478 5089 C 2479 5089 2480 5086 2480 5081 Z M 3470 5075 C 3470 5072 3468 5070 3465 5070 C 3462 5070 3460 5072 3460 5075 C 3460 5078 3462 5080 3465 5080 C 3468 5080 3470 5078 3470 5075 Z M 3610 5075 C 3610 5072 3608 5070 3605 5070 C 3602 5070 3600 5072 3600 5075 C 3600 5078 3602 5080 3605 5080 C 3608 5080 3610 5078 3610 5075 Z M 2430 5065 C 2430 5062 2428 5060 2425 5060 C 2422 5060 2420 5062 2420 5065 C 2420 5068 2422 5070 2425 5070 C 2428 5070 2430 5068 2430 5065 Z M 3510 5060 C 3518 5055 3521 5050 3515 5050 C 3510 5050 3498 5055 3490 5060 C 3482 5065 3480 5070 3485 5070 C 3491 5070 3502 5065 3510 5060 Z M 2150 5022 C 2150 5017 2143 5013 2135 5013 C 2127 5013 2120 5017 2120 5022 C 2120 5026 2127 5030 2135 5030 C 2143 5030 2150 5026 2150 5022 Z M 2184 5005 C 2187 4997 2185 4990 2180 4990 C 2174 4990 2170 4997 2170 5005 C 2170 5013 2172 5020 2174 5020 C 2176 5020 2180 5013 2184 5005 Z M 2260 4995 C 2260 4992 2258 4990 2255 4990 C 2252 4990 2250 4992 2250 4995 C 2250 4998 2252 5000 2255 5000 C 2258 5000 2260 4998 2260 4995 Z M 3430 4911 C 3430 4901 3360 4882 3342 4888 C 3321 4895 3329 4909 3358 4913 C 3408 4921 3430 4920 3430 4911 Z M 2067 4893 C 2063 4890 2060 4893 2060 4900 C 2060 4907 2063 4910 2067 4907 C 2070 4903 2070 4897 2067 4893 Z M 3830 4895 C 3830 4892 3828 4890 3825 4890 C 3822 4890 3820 4892 3820 4895 C 3820 4898 3822 4900 3825 4900 C 3828 4900 3830 4898 3830 4895 Z M 2050 4885 C 2050 4882 2048 4880 2045 4880 C 2042 4880 2040 4882 2040 4885 C 2040 4888 2042 4890 2045 4890 C 2048 4890 2050 4888 2050 4885 Z M 3482 4867 C 3489 4860 3508 4846 3524 4836 C 3544 4823 3549 4816 3540 4810 C 3525 4801 3448 4819 3456 4831 C 3459 4836 3449 4845 3433 4851 C 3411 4859 3409 4863 3420 4870 C 3441 4883 3466 4882 3482 4867 Z M 3855 4870 C 3858 4865 3859 4860 3856 4860 C 3853 4860 3848 4865 3845 4870 C 3842 4876 3841 4880 3844 4880 C 3847 4880 3852 4876 3855 4870 Z M 2014 4844 C 2023 4822 2011 4812 2000 4830 C 1988 4849 1988 4860 1999 4860 C 2004 4860 2011 4853 2014 4844 Z M 2058 4841 C 2061 4833 2057 4829 2049 4832 C 2042 4834 2034 4842 2032 4849 C 2029 4857 2033 4861 2041 4858 C 2048 4856 2056 4848 2058 4841 Z M 3187 4824 C 3184 4821 3175 4820 3168 4823 C 3160 4826 3163 4829 3174 4829 C 3185 4830 3191 4827 3187 4824 Z M 2455 4810 C 2452 4805 2443 4800 2437 4800 C 2430 4800 2431 4804 2440 4810 C 2459 4822 2463 4822 2455 4810 Z M 2172 4780 C 2163 4764 2153 4755 2151 4761 C 2148 4770 2177 4810 2186 4810 C 2188 4810 2181 4797 2172 4780 Z M 2720 4785 C 2720 4782 2718 4780 2715 4780 C 2712 4780 2710 4782 2710 4785 C 2710 4788 2712 4790 2715 4790 C 2718 4790 2720 4788 2720 4785 Z M 3467 4784 C 3464 4781 3455 4780 3448 4783 C 3440 4786 3443 4789 3454 4789 C 3465 4790 3471 4787 3467 4784 Z M 3330 4775 C 3330 4772 3328 4770 3325 4770 C 3322 4770 3320 4772 3320 4775 C 3320 4778 3322 4780 3325 4780 C 3328 4780 3330 4778 3330 4775 Z M 1950 4765 C 1950 4762 1948 4760 1945 4760 C 1942 4760 1940 4762 1940 4765 C 1940 4768 1942 4770 1945 4770 C 1948 4770 1950 4768 1950 4765 Z M 3440 4765 C 3440 4762 3438 4760 3435 4760 C 3432 4760 3430 4762 3430 4765 C 3430 4768 3432 4770 3435 4770 C 3438 4770 3440 4768 3440 4765 Z M 1950 4735 C 1950 4732 1948 4730 1945 4730 C 1942 4730 1940 4732 1940 4735 C 1940 4738 1942 4740 1945 4740 C 1948 4740 1950 4738 1950 4735 Z M 1967 4713 C 1963 4710 1960 4713 1960 4720 C 1960 4727 1963 4730 1967 4727 C 1970 4723 1970 4717 1967 4713 Z M 2977 4683 C 2973 4680 2967 4680 2963 4683 C 2960 4687 2963 4690 2970 4690 C 2977 4690 2980 4687 2977 4683 Z M 2115 4632 C 2107 4624 2090 4649 2090 4670 C 2090 4679 2096 4676 2106 4662 C 2115 4649 2119 4636 2115 4632 Z M 2364 4664 C 2391 4665 2408 4664 2402 4662 C 2396 4660 2393 4653 2396 4645 C 2410 4610 2314 4598 2284 4631 C 2266 4651 2266 4652 2285 4666 C 2295 4674 2306 4676 2309 4671 C 2312 4666 2337 4663 2364 4664 Z M 3560 4655 C 3560 4652 3558 4650 3555 4650 C 3552 4650 3550 4652 3550 4655 C 3550 4658 3552 4660 3555 4660 C 3558 4660 3560 4658 3560 4655 Z M 3580 4635 C 3580 4632 3578 4630 3575 4630 C 3572 4630 3570 4632 3570 4635 C 3570 4638 3572 4640 3575 4640 C 3578 4640 3580 4638 3580 4635 Z M 1950 4620 C 1950 4615 1948 4610 1946 4610 C 1943 4610 1938 4615 1935 4620 C 1932 4626 1934 4630 1939 4630 C 1945 4630 1950 4626 1950 4620 Z M 1990 4615 C 1990 4612 1988 4610 1985 4610 C 1982 4610 1980 4612 1980 4615 C 1980 4618 1982 4620 1985 4620 C 1988 4620 1990 4618 1990 4615 Z M 1970 4605 C 1970 4602 1968 4600 1965 4600 C 1962 4600 1960 4602 1960 4605 C 1960 4608 1962 4610 1965 4610 C 1968 4610 1970 4608 1970 4605 Z M 2150 4575 C 2150 4572 2148 4570 2145 4570 C 2142 4570 2140 4572 2140 4575 C 2140 4578 2142 4580 2145 4580 C 2148 4580 2150 4578 2150 4575 Z M 2470 4555 C 2470 4552 2468 4550 2465 4550 C 2462 4550 2460 4552 2460 4555 C 2460 4558 2462 4560 2465 4560 C 2468 4560 2470 4558 2470 4555 Z M 3970 4037 C 3970 4024 3974 4010 3979 4005 C 3990 3992 4012 3899 4006 3893 C 4003 3890 4007 3872 4015 3853 C 4028 3822 4028 3819 4015 3824 C 4004 3828 4002 3823 4007 3800 C 4017 3747 3992 3768 3980 3823 C 3973 3851 3955 3901 3939 3932 C 3910 3990 3909 4009 3938 4043 C 3959 4066 3970 4064 3970 4037 Z M 4090 3469 C 4090 3464 4086 3460 4080 3460 C 4075 3460 4070 3467 4070 3476 C 4070 3484 4075 3488 4080 3485 C 4086 3482 4090 3475 4090 3469 Z M 3240 5175 C 3240 5172 3242 5170 3245 5170 C 3248 5170 3250 5172 3250 5175 C 3250 5178 3248 5180 3245 5180 C 3242 5180 3240 5178 3240 5175 Z M 3018 5023 C 3036 5021 3063 5021 3078 5023 C 3093 5025 3078 5027 3045 5027 C 3012 5027 3000 5025 3018 5023 Z M 3288 5023 C 3295 5020 3304 5021 3307 5024 C 3311 5027 3305 5030 3294 5029 C 3283 5029 3280 5026 3288 5023 Z M 2400 4955 C 2400 4952 2402 4950 2405 4950 C 2408 4950 2410 4952 2410 4955 C 2410 4958 2408 4960 2405 4960 C 2402 4960 2400 4958 2400 4955 Z M 2678 4926 C 2658 4907 2645 4889 2648 4886 C 2651 4883 2649 4880 2643 4880 C 2628 4880 2570 4818 2576 4809 C 2579 4804 2599 4809 2620 4820 C 2642 4831 2674 4840 2692 4841 C 2721 4842 2722 4843 2701 4849 L 2677 4856 L 2703 4873 C 2732 4892 2760 4895 2760 4880 C 2760 4875 2770 4870 2783 4871 C 2795 4871 2862 4871 2933 4871 C 3066 4871 3110 4877 3074 4891 C 3058 4897 3059 4899 3082 4899 C 3125 4900 3126 4920 3083 4921 C 2903 4925 2826 4930 2817 4939 C 2802 4954 2767 4953 2776 4938 C 2781 4931 2779 4930 2770 4935 C 2763 4939 2755 4938 2751 4932 C 2742 4917 2690 4905 2690 4918 C 2690 4924 2699 4932 2710 4935 C 2721 4938 2730 4946 2730 4951 C 2730 4968 2713 4960 2678 4926 Z M 2685 4900 C 2688 4895 2689 4890 2686 4890 C 2683 4890 2678 4895 2675 4900 C 2672 4906 2671 4910 2674 4910 C 2677 4910 2682 4906 2685 4900 Z M 3038 4903 C 3028 4901 3010 4901 2998 4903 C 2985 4905 2993 4907 3015 4907 C 3037 4908 3047 4906 3038 4903 Z M 2660 4860 C 2640 4847 2627 4847 2635 4860 C 2638 4866 2649 4870 2658 4870 C 2673 4870 2673 4868 2660 4860 Z M 2562 4858 C 2555 4851 2550 4842 2550 4837 C 2550 4832 2557 4836 2566 4845 C 2575 4854 2580 4863 2578 4865 C 2576 4868 2568 4864 2562 4858 Z M 2793 4853 C 2797 4850 2803 4850 2807 4853 C 2810 4857 2807 4860 2800 4860 C 2793 4860 2790 4857 2793 4853 Z M 2755 4840 C 2752 4835 2754 4830 2759 4830 C 2765 4830 2770 4835 2770 4840 C 2770 4846 2768 4850 2766 4850 C 2763 4850 2758 4846 2755 4840 Z M 2983 4823 C 2987 4820 2993 4820 2997 4823 C 3000 4827 2997 4830 2990 4830 C 2983 4830 2980 4827 2983 4823 Z M 2240 4770 C 2240 4763 2243 4760 2247 4763 C 2250 4767 2250 4773 2247 4777 C 2243 4780 2240 4777 2240 4770 Z M 2210 4760 C 2210 4755 2215 4750 2220 4750 C 2226 4750 2230 4755 2230 4760 C 2230 4766 2226 4770 2220 4770 C 2215 4770 2210 4766 2210 4760 Z M 2637 4753 C 2634 4748 2643 4744 2657 4743 C 2676 4742 2679 4744 2669 4751 C 2652 4762 2643 4762 2637 4753 Z M 3880 4755 C 3880 4752 3882 4750 3885 4750 C 3888 4750 3890 4752 3890 4755 C 3890 4758 3888 4760 3885 4760 C 3882 4760 3880 4758 3880 4755 Z M 2675 4720 C 2672 4714 2680 4710 2694 4710 C 2708 4710 2722 4715 2725 4720 C 2728 4726 2720 4730 2706 4730 C 2692 4730 2678 4726 2675 4720 Z M 3670 4715 C 3670 4712 3672 4710 3675 4710 C 3678 4710 3680 4712 3680 4715 C 3680 4718 3678 4720 3675 4720 C 3672 4720 3670 4718 3670 4715 Z M 2660 4678 C 2660 4673 2679 4670 2702 4670 C 2725 4670 2741 4673 2737 4676 C 2728 4685 2660 4687 2660 4678 Z M 3401 4670 C 3425 4649 3467 4634 3476 4643 C 3479 4646 3469 4656 3453 4665 C 3427 4680 3427 4680 3450 4674 C 3464 4670 3472 4671 3468 4675 C 3464 4679 3442 4684 3419 4686 L 3377 4690 L 3401 4670 Z M 3620 4675 C 3620 4672 3622 4670 3625 4670 C 3628 4670 3630 4672 3630 4675 C 3630 4678 3628 4680 3625 4680 C 3622 4680 3620 4678 3620 4675 Z M 3645 4660 C 3648 4655 3653 4650 3656 4650 C 3659 4650 3658 4655 3655 4660 C 3652 4666 3647 4670 3644 4670 C 3641 4670 3642 4666 3645 4660 Z M 3635 4638 C 3638 4631 3659 4612 3680 4596 C 3702 4579 3720 4563 3720 4558 C 3720 4554 3725 4550 3732 4550 C 3738 4550 3731 4564 3714 4581 C 3677 4620 3628 4656 3635 4638 Z M 3670 4645 C 3670 4642 3672 4640 3675 4640 C 3678 4640 3680 4642 3680 4645 C 3680 4648 3678 4650 3675 4650 C 3672 4650 3670 4648 3670 4645 Z M 3834 4627 C 3828 4610 3858 4561 3875 4560 C 3881 4560 3896 4548 3909 4535 C 3928 4514 3929 4511 3914 4516 C 3903 4520 3890 4527 3883 4532 C 3876 4538 3865 4538 3859 4534 C 3852 4530 3842 4534 3836 4542 C 3823 4560 3750 4593 3749 4582 C 3749 4578 3747 4565 3744 4552 C 3740 4529 3784 4475 3800 4485 C 3804 4488 3815 4480 3823 4467 C 3835 4448 3836 4440 3826 4421 C 3801 4375 3833 4310 3880 4310 C 3888 4310 3901 4301 3908 4290 C 3922 4267 3963 4271 3989 4297 C 3999 4308 4005 4308 4010 4300 C 4020 4284 4030 4312 4030 4353 C 4030 4387 4009 4425 3966 4474 C 3952 4490 3942 4505 3944 4507 C 3953 4516 3986 4491 4000 4466 C 4013 4441 4030 4431 4030 4448 C 4030 4452 4006 4486 3977 4524 C 3919 4600 3845 4654 3834 4627 Z M 3807 4503 C 3803 4500 3797 4500 3793 4503 C 3790 4507 3793 4510 3800 4510 C 3807 4510 3810 4507 3807 4503 Z M 3840 4505 C 3840 4502 3838 4500 3835 4500 C 3832 4500 3830 4502 3830 4505 C 3830 4508 3832 4510 3835 4510 C 3838 4510 3840 4508 3840 4505 Z M 3870 4505 C 3870 4502 3868 4500 3865 4500 C 3862 4500 3860 4502 3860 4505 C 3860 4508 3862 4510 3865 4510 C 3868 4510 3870 4508 3870 4505 Z M 3910 4356 C 3905 4343 3904 4329 3907 4326 C 3911 4323 3906 4320 3897 4320 C 3887 4320 3882 4326 3885 4335 C 3888 4343 3892 4357 3895 4365 C 3897 4373 3904 4380 3909 4380 C 3916 4380 3916 4371 3910 4356 Z M 3935 4290 C 3938 4285 3936 4280 3931 4280 C 3925 4280 3920 4285 3920 4290 C 3920 4296 3922 4300 3924 4300 C 3927 4300 3932 4296 3935 4290 Z M 2160 4625 C 2160 4622 2162 4620 2165 4620 C 2168 4620 2170 4622 2170 4625 C 2170 4628 2168 4630 2165 4630 C 2162 4630 2160 4628 2160 4625 Z M 3610 4585 C 3610 4577 3617 4570 3626 4570 C 3640 4570 3640 4573 3630 4585 C 3623 4593 3616 4600 3614 4600 C 3612 4600 3610 4593 3610 4585 Z M 2100 4575 C 2100 4572 2102 4570 2105 4570 C 2108 4570 2110 4572 2110 4575 C 2110 4578 2108 4580 2105 4580 C 2102 4580 2100 4578 2100 4575 Z M 2095 4499 C 2091 4493 2090 4487 2093 4484 C 2095 4481 2100 4486 2103 4495 C 2110 4512 2104 4515 2095 4499 Z M 2000 4385 C 2000 4382 2002 4380 2005 4380 C 2008 4380 2010 4382 2010 4385 C 2010 4388 2008 4390 2005 4390 C 2002 4390 2000 4388 2000 4385 Z M 3933 4253 C 3937 4250 3943 4250 3947 4253 C 3950 4257 3947 4260 3940 4260 C 3933 4260 3930 4257 3933 4253 Z M 3940 4205 C 3940 4202 3942 4200 3945 4200 C 3948 4200 3950 4202 3950 4205 C 3950 4208 3948 4210 3945 4210 C 3942 4210 3940 4208 3940 4205 Z M 2067 4959 C 2071 4946 2075 4941 2078 4949 C 2080 4956 2077 4967 2072 4972 C 2064 4980 2063 4976 2067 4959 Z M 2010 4945 C 2010 4942 2012 4940 2015 4940 C 2018 4940 2020 4942 2020 4945 C 2020 4948 2018 4950 2015 4950 C 2012 4950 2010 4948 2010 4945 Z M 1920 4790 C 1920 4783 1923 4780 1927 4783 C 1930 4787 1930 4793 1927 4797 C 1923 4800 1920 4797 1920 4790 Z M 3108 4543 C 3114 4541 3126 4541 3133 4543 C 3139 4546 3134 4548 3120 4548 C 3106 4548 3101 4546 3108 4543 Z M 1900 4525 C 1900 4522 1902 4520 1905 4520 C 1908 4520 1910 4522 1910 4525 C 1910 4528 1908 4530 1905 4530 C 1902 4530 1900 4528 1900 4525 Z M 3560 4385 C 3560 4382 3562 4380 3565 4380 C 3568 4380 3570 4382 3570 4385 C 3570 4388 3568 4390 3565 4390 C 3562 4390 3560 4388 3560 4385 Z M 3592 3726 C 3581 3711 3567 3700 3561 3700 C 3546 3700 3547 3687 3563 3671 C 3569 3663 3571 3659 3565 3662 C 3560 3664 3537 3674 3516 3684 C 3486 3697 3465 3700 3431 3694 C 3406 3690 3348 3688 3304 3689 C 3214 3692 3190 3677 3190 3620 C 3190 3564 3201 3561 3352 3578 C 3478 3592 3495 3592 3567 3576 C 3610 3567 3656 3557 3670 3555 C 3684 3553 3705 3548 3716 3545 C 3737 3538 3738 3541 3736 3604 C 3734 3684 3719 3703 3657 3709 C 3653 3710 3650 3718 3652 3728 C 3657 3756 3615 3755 3592 3726 Z M 3597 3633 C 3593 3630 3590 3633 3590 3640 C 3590 3647 3593 3650 3597 3647 C 3600 3643 3600 3637 3597 3633 Z M 2244 3689 C 2198 3676 2184 3655 2197 3619 C 2203 3603 2206 3581 2203 3570 C 2188 3512 2223 3484 2269 3517 C 2283 3526 2316 3538 2344 3544 C 2394 3555 2685 3555 2747 3545 C 2773 3540 2780 3543 2785 3560 C 2800 3607 2719 3645 2584 3655 C 2546 3658 2499 3662 2480 3665 C 2459 3668 2433 3663 2415 3654 C 2375 3632 2313 3617 2329 3633 C 2335 3639 2340 3657 2340 3672 C 2340 3697 2337 3700 2308 3699 C 2290 3699 2261 3694 2244 3689 Z" style="fill: rgb(135, 49, 0);"/>
  </g>
  <g transform="matrix(0.063874, 0, 0, -0.063874, 56.963928, 431.756653)" fill="#000000" stroke="none" style="">
    <path d="M 3860 1641 C 3860 1641 3835 1539 3859 1555 C 3869 1561 3925 1430 3940 1368 C 3960 1281 3943 1103 3901 963 L 3882 900 L 3903 900 C 3921 900 3922 902 3910 910 C 3898 917 3897 923 3906 938 C 3918 956 3935 1020 3932 1032 C 3931 1036 3937 1068 3945 1102 C 3959 1167 3971 1467 3958 1447 C 3953 1440 3950 1439 3950 1445 C 3950 1451 3955 1461 3961 1467 C 3974 1480 3937 1551 3888 1608 L 3860 1641 Z M 2086 1539 C 2105 1523 2078 1526 2072 1578 C 2069 1600 2053 1590 2025 1549 C 2003 1515 2000 1504 2009 1486 C 2018 1468 2048 1275 2067 1109 C 2070 1081 2082 1052 2095 1036 C 2108 1021 2121 991 2125 969 C 2129 948 2136 932 2141 936 C 2152 943 2153 919 2141 902 C 2131 885 2164 817 2203 776 C 2225 753 2229 745 2218 738 C 2209 731 2211 730 2226 733 C 2243 737 2247 733 2244 716 C 2242 705 2242 701 2246 707 C 2251 719 2300 672 2300 655 C 2300 639 2336 604 2349 608 C 2359 611 2361 608 2357 597 C 2353 587 2356 583 2363 585 C 2370 588 2384 572 2394 550 C 2405 528 2419 510 2426 510 C 2433 510 2451 497 2467 481 C 2483 466 2505 450 2515 446 C 2526 443 2548 429 2564 415 C 2580 401 2598 390 2603 390 C 2609 390 2628 379 2646 365 C 2664 351 2682 340 2685 340 C 2689 340 2711 327 2735 310 C 2759 294 2783 280 2789 280 C 2795 280 2800 274 2800 268 C 2800 259 2804 260 2810 270 C 2816 279 2820 280 2820 273 C 2820 254 2912 208 2960 204 C 2985 202 3023 197 3046 194 C 3071 190 3096 193 3110 200 C 3123 207 3147 214 3162 215 C 3206 219 3280 242 3280 251 C 3280 256 3288 260 3298 260 C 3323 260 3385 300 3410 332 C 3424 351 3441 360 3460 360 C 3482 360 3489 365 3492 382 C 3494 395 3507 411 3523 418 C 3538 425 3550 437 3550 444 C 3550 452 3571 464 3596 471 C 3622 479 3645 492 3647 500 C 3655 526 3667 545 3676 545 C 3693 545 3710 561 3710 577 C 3710 595 3758 640 3778 640 C 3785 640 3790 653 3790 670 C 3790 687 3795 700 3801 700 C 3824 700 3880 784 3880 819 C 3880 829 3889 840 3900 843 C 3911 846 3920 854 3920 862 C 3920 872 3917 871 3910 860 C 3902 847 3900 848 3900 863 C 3900 893 3877 877 3850 829 C 3794 728 3635 562 3498 463 C 3454 431 3387 380 3349 349 C 3286 297 3272 290 3176 266 C 3017 227 2958 234 2861 303 C 2836 322 2752 368 2676 406 C 2511 488 2429 554 2284 725 C 2147 885 2057 1165 2057 1425 C 2057 1523 2066 1556 2086 1539 Z M 2160 905 C 2160 902 2158 900 2155 900 C 2152 900 2150 902 2150 905 C 2150 908 2152 910 2155 910 C 2158 910 2160 908 2160 905 Z M 2170 865 C 2170 862 2168 860 2165 860 C 2162 860 2160 862 2160 865 C 2160 868 2162 870 2165 870 C 2168 870 2170 868 2170 865 Z M 3960 1556 C 3960 1530 4081 1373 4109 1362 C 4118 1359 4137 1348 4153 1338 C 4168 1327 4180 1321 4180 1325 C 4180 1328 4192 1319 4207 1305 C 4222 1291 4246 1280 4259 1280 C 4283 1280 4303 1272 4437 1209 C 4472 1193 4504 1180 4509 1180 C 4514 1180 4520 1176 4522 1170 C 4524 1165 4534 1159 4545 1157 C 4564 1153 4603 1139 4645 1121 C 4656 1116 4711 1100 4767 1086 C 4823 1071 4886 1052 4907 1044 C 4945 1029 4957 1023 5100 956 C 5141 936 5198 916 5225 910 C 5253 904 5287 890 5302 880 C 5317 869 5338 860 5350 860 C 5361 860 5370 856 5370 850 C 5370 845 5378 840 5388 840 C 5409 840 5481 806 5558 761 C 5587 744 5618 730 5627 730 C 5655 730 5760 668 5805 625 C 5829 601 5852 585 5856 589 C 5860 592 5860 590 5857 584 C 5854 578 5864 559 5880 541 C 5897 523 5910 506 5910 502 C 5910 498 5935 483 5965 469 C 6019 444 6020 444 6020 464 C 6020 506 5940 640 5897 672 C 5835 717 5365 944 5261 979 C 5212 996 5109 1040 5033 1078 C 4896 1147 4722 1220 4697 1220 C 4690 1220 4674 1211 4662 1200 C 4650 1188 4640 1184 4640 1190 C 4640 1195 4633 1200 4625 1200 C 4617 1200 4599 1211 4585 1225 C 4571 1239 4560 1248 4560 1244 C 4560 1240 4552 1244 4543 1252 C 4523 1268 4470 1293 4430 1305 C 4416 1309 4366 1332 4319 1356 C 4229 1402 4214 1407 4226 1388 C 4236 1373 4223 1381 4110 1463 C 4018 1529 3960 1566 3960 1556 Z M 4714 1195 C 4725 1187 4729 1180 4724 1180 C 4718 1180 4705 1187 4694 1195 C 4684 1203 4680 1209 4685 1209 C 4691 1209 4704 1203 4714 1195 Z M 4675 1180 C 4678 1175 4679 1170 4676 1170 C 4673 1170 4668 1175 4665 1180 C 4662 1186 4661 1190 4664 1190 C 4667 1190 4672 1186 4675 1180 Z M 1916 1489 C 1884 1462 1852 1441 1846 1443 C 1840 1445 1809 1434 1777 1418 C 1718 1389 1660 1325 1660 1289 C 1660 1279 1651 1266 1640 1260 C 1596 1236 1624 1233 1675 1256 C 1706 1269 1737 1280 1745 1280 C 1753 1280 1766 1293 1776 1309 C 1792 1336 1850 1370 1882 1370 C 1921 1370 1990 1466 1990 1520 C 1990 1549 1982 1545 1916 1489 Z M 1590 1335 C 1560 1315 1524 1297 1510 1294 C 1442 1281 1377 1252 1293 1197 C 1242 1164 1200 1133 1200 1128 C 1200 1124 1178 1120 1150 1120 C 1118 1120 1080 1111 1043 1094 C 1011 1080 954 1059 917 1049 C 880 1038 826 1016 797 1000 C 768 984 720 966 690 959 C 584 937 510 909 492 883 C 483 870 457 842 435 822 C 413 802 380 769 360 749 C 324 712 228 640 215 640 C 211 640 215 651 224 665 C 249 702 230 696 154 639 C 116 611 69 580 49 569 C 10 550 -10 520 15 520 C 23 520 30 526 30 533 C 30 541 33 541 39 531 C 44 523 46 510 43 501 C 39 492 49 496 67 513 C 96 540 124 548 135 531 C 138 525 150 526 163 534 C 222 567 250 586 250 593 C 250 597 257 600 265 600 C 274 600 303 615 329 632 C 356 650 397 676 420 690 C 443 704 476 727 493 743 C 510 758 539 775 557 782 C 592 795 601 810 574 810 C 561 810 560 813 569 824 C 578 835 578 839 568 842 C 542 851 640 890 722 904 C 796 916 841 932 920 975 C 934 982 965 997 990 1007 C 1015 1017 1063 1044 1097 1068 C 1163 1112 1183 1120 1174 1095 C 1170 1087 1162 1080 1154 1080 C 1146 1080 1140 1075 1140 1068 C 1140 1062 1133 1048 1123 1038 C 1109 1022 1109 1020 1122 1020 C 1163 1020 1200 1034 1200 1049 C 1200 1062 1202 1062 1209 1052 C 1216 1041 1222 1043 1242 1062 C 1291 1108 1331 1134 1345 1127 C 1347 1126 1357 1135 1365 1148 C 1374 1160 1388 1170 1396 1170 C 1403 1170 1427 1186 1449 1205 C 1492 1244 1500 1247 1500 1225 C 1500 1195 1531 1211 1600 1278 C 1699 1373 1694 1402 1590 1335 Z M 4610 1235 C 4610 1232 4612 1230 4615 1230 C 4618 1230 4620 1232 4620 1235 C 4620 1238 4618 1240 4615 1240 C 4612 1240 4610 1238 4610 1235 Z M 4650 1220 C 4641 1214 4640 1210 4647 1210 C 4653 1210 4662 1215 4665 1220 C 4673 1232 4669 1232 4650 1220 Z M 1110 1005 C 1110 1002 1112 1000 1115 1000 C 1118 1000 1120 1002 1120 1005 C 1120 1008 1118 1010 1115 1010 C 1112 1010 1110 1008 1110 1005 Z M 2250 680 C 2250 675 2255 670 2260 670 C 2266 670 2270 675 2270 680 C 2270 686 2266 690 2260 690 C 2255 690 2250 686 2250 680 Z M 3560 440 C 3560 433 3563 430 3567 433 C 3570 437 3570 443 3567 447 C 3563 450 3560 447 3560 440 Z M 3430 345 C 3430 342 3432 340 3435 340 C 3438 340 3440 342 3440 345 C 3440 348 3438 350 3435 350 C 3432 350 3430 348 3430 345 Z" style="fill: rgb(0, 163, 251);"/>
  </g>
</svg>