<?xml version="1.0" standalone="no"?>
<!DOCTYPE svg PUBLIC "-//W3C//DTD SVG 20010904//EN"
 "http://www.w3.org/TR/2001/REC-SVG-20010904/DTD/svg10.dtd">
<svg version="1.0" xmlns="http://www.w3.org/2000/svg"
 width="602.000000pt" height="602.000000pt" viewBox="0 0 602.000000 602.000000"
 preserveAspectRatio="xMidYMid meet">
<metadata>
Created by potrace 1.14, written by Peter Selinger 2001-2017
</metadata>
<g transform="translate(0.000000,602.000000) scale(0.100000,-0.100000)"
fill="#000000" stroke="none">
<path d="M3035 5279 c-16 -6 -93 -18 -170 -29 -77 -10 -148 -21 -157 -25 -11
-4 -18 -3 -18 3 0 7 -14 6 -41 -3 -36 -13 -40 -13 -35 0 3 8 3 15 0 15 -13 0
-64 -35 -64 -43 0 -5 -7 -6 -15 -3 -10 4 -19 -2 -24 -16 -7 -19 -8 -19 -14 -4
-4 10 -5 22 -1 27 3 5 1 16 -4 25 -13 24 -64 -23 -104 -97 -18 -32 -38 -59
-45 -59 -7 0 -13 -7 -13 -16 0 -10 -6 -14 -15 -10 -9 3 -15 0 -15 -8 0 -7 -6
-19 -14 -25 -11 -9 -15 -7 -20 13 -5 22 10 84 23 96 10 8 31 73 26 79 -3 3
-12 -5 -21 -17 -8 -12 -21 -22 -29 -22 -13 0 -65 -96 -65 -119 0 -6 -4 -11
-10 -11 -9 0 -14 23 -13 58 1 22 -16 13 -23 -13 -4 -15 -16 -28 -29 -31 -18
-5 -24 -15 -29 -54 -7 -55 -19 -68 -43 -48 -12 9 -15 9 -9 1 4 -8 2 -13 -4
-13 -7 0 -10 -7 -6 -17 4 -11 -2 -8 -14 7 -11 14 -20 30 -20 37 0 29 -31 -3
-36 -38 -4 -24 -12 -39 -21 -39 -10 0 -12 -7 -8 -22 5 -18 1 -15 -17 9 -37 52
-43 38 -9 -22 34 -60 34 -108 0 -64 -18 24 -19 24 -19 2 0 -24 45 -83 64 -83
13 0 46 -31 46 -42 0 -3 -9 -8 -20 -11 -14 -4 -20 0 -20 13 0 23 -26 45 -35
30 -3 -5 1 -13 9 -16 9 -3 16 -10 16 -15 0 -12 -37 -11 -45 1 -4 6 -10 8 -15
5 -5 -3 -13 3 -19 12 -5 10 -13 15 -16 11 -4 -4 0 -17 9 -30 9 -12 16 -32 16
-44 0 -12 13 -35 30 -50 21 -20 26 -31 17 -36 -9 -6 -9 -8 0 -8 18 0 5 -58
-21 -93 -12 -16 -21 -47 -23 -75 -1 -26 -5 -69 -8 -97 -4 -27 -8 -158 -9 -290
-2 -145 -7 -251 -14 -266 -6 -15 -8 -29 -6 -32 3 -3 6 -41 6 -86 1 -45 5 -81
10 -81 4 0 8 -6 8 -14 0 -8 3 -16 8 -19 4 -2 0 -1 -8 1 -45 16 -85 7 -98 -22
-43 -87 -2 -471 64 -597 8 -16 14 -48 14 -73 0 -61 7 -74 51 -96 45 -24 97
-26 105 -5 9 23 -26 216 -47 261 -10 22 -19 46 -19 52 0 7 -16 12 -40 12 -45
0 -47 3 -54 75 -2 28 -5 53 -5 58 -1 4 -7 7 -15 7 -9 0 -18 22 -26 65 -12 65
-7 135 10 135 5 0 7 6 4 14 -3 8 2 23 12 34 16 19 19 19 40 6 26 -17 44 -62
44 -108 0 -18 4 -36 9 -42 5 -5 11 -42 13 -81 4 -85 21 -93 26 -12 2 32 10 61
19 72 13 14 19 59 28 227 10 192 12 212 33 237 53 66 56 75 65 177 9 108 17
298 18 435 1 88 20 153 54 181 12 10 43 15 99 16 91 1 146 9 193 30 17 8 39
14 50 14 10 0 27 6 38 13 35 24 133 38 176 26 21 -7 49 -8 66 -4 l28 8 -25 7
c-25 8 -25 8 4 9 16 1 53 -7 82 -16 46 -14 59 -15 94 -3 31 10 46 11 65 2 30
-14 134 -15 188 -3 27 6 53 5 90 -6 28 -9 59 -18 67 -20 11 -3 11 -6 2 -12 -8
-5 8 -26 52 -68 61 -56 101 -77 89 -46 -3 8 2 13 16 13 12 0 21 -4 21 -10 0
-5 24 -34 53 -65 60 -61 123 -177 133 -242 7 -46 17 -52 52 -27 24 17 27 11
22 -43 -1 -21 25 -149 52 -248 5 -22 18 -51 28 -65 25 -36 41 -113 41 -194 -1
-86 18 -254 31 -279 18 -35 40 -13 64 65 26 82 56 127 89 132 23 4 55 -20 55
-42 0 -9 8 -24 17 -35 30 -33 18 -195 -13 -183 -11 4 -14 -7 -15 -52 -1 -98
-9 -113 -68 -138 -42 -17 -81 -52 -81 -71 0 -17 10 -16 34 2 33 25 53 19 59
-17 2 -18 1 -41 -4 -50 -5 -9 -9 -26 -9 -37 0 -12 -4 -21 -9 -21 -5 0 -8 -8
-7 -17 1 -12 -5 -17 -16 -15 -10 2 -18 -2 -18 -7 0 -6 -30 -11 -66 -13 -63 -3
-69 -5 -96 -39 -16 -20 -35 -58 -43 -85 -49 -177 -63 -230 -59 -235 2 -4 -4
-28 -13 -55 -12 -35 -13 -49 -5 -52 7 -2 12 -13 12 -23 0 -11 4 -18 9 -14 18
11 21 -13 6 -61 -11 -36 -14 -103 -15 -252 0 -112 -2 -208 -6 -213 -18 -30 51
-200 75 -184 10 6 66 -125 81 -187 20 -87 3 -265 -39 -405 l-19 -63 21 0 c18
0 19 2 7 10 -12 7 -13 13 -4 28 12 18 29 82 26 94 -1 4 5 36 13 70 14 65 26
365 13 345 -5 -7 -8 -8 -8 -2 0 6 5 16 11 22 13 13 -24 84 -73 141 l-28 33 5
192 c3 106 7 255 9 331 2 77 0 151 -5 164 -7 17 -5 39 5 71 8 25 31 109 51
186 19 77 39 143 44 148 4 4 15 -3 24 -17 49 -74 171 -16 173 83 0 50 5 70 65
260 53 168 61 294 27 391 -21 58 -26 65 -52 68 -31 4 -75 -14 -89 -36 -11 -17
-27 -6 -27 20 0 13 5 18 14 15 11 -4 13 1 11 22 -2 15 -6 144 -9 287 -3 142
-6 261 -6 264 -5 52 -3 160 2 160 4 0 16 -17 27 -37 l20 -38 1 38 c0 21 -4 57
-10 80 -5 23 -14 87 -18 142 -6 74 -15 113 -33 148 -32 64 -142 216 -206 287
-29 31 -53 66 -53 76 0 22 -42 84 -66 97 -8 5 -47 19 -87 33 -39 13 -88 36
-108 49 -42 30 -179 89 -229 100 -19 4 -69 18 -110 30 -94 29 -156 36 -195 24z
m-565 -64 c0 -3 -2 -5 -5 -5 -3 0 -5 2 -5 5 0 3 2 5 5 5 3 0 5 -2 5 -5z m751
-24 c43 -6 97 -19 120 -30 24 -12 63 -25 86 -31 36 -9 80 -37 71 -45 -2 -2
-54 5 -115 16 -84 14 -118 24 -134 40 -14 14 -26 18 -37 13 -9 -5 -42 -7 -72
-6 -30 1 -122 4 -205 7 -82 2 -152 5 -154 5 -2 0 -2 2 1 5 3 3 56 10 117 15
61 5 119 14 128 20 19 11 62 9 194 -9z m-792 -38 c-10 -21 -19 -43 -19 -51 0
-7 -4 -10 -10 -7 -10 6 9 53 32 83 18 21 17 13 -3 -25z m31 2 c-7 -8 -9 -15
-6 -15 4 0 2 -9 -4 -20 -6 -11 -16 -20 -22 -20 -9 0 -9 3 0 12 7 7 12 18 12
25 0 15 22 43 29 37 2 -2 -2 -10 -9 -19z m80 21 c0 -3 -5 -8 -12 -12 -7 -4 -8
-3 -4 4 7 12 16 16 16 8z m223 -23 c-7 -2 -21 -2 -30 0 -10 3 -4 5 12 5 17 0
24 -2 18 -5z m-253 -8 c0 -3 -2 -5 -5 -5 -3 0 -5 2 -5 5 0 3 2 5 5 5 3 0 5 -2
5 -5z m30 0 c0 -3 -2 -5 -5 -5 -3 0 -5 2 -5 5 0 3 2 5 5 5 3 0 5 -2 5 -5z
m404 -2 c61 -5 67 -8 51 -20 -11 -7 -37 -13 -59 -13 -29 0 -37 3 -27 9 15 10
4 14 -59 24 l-25 4 25 2 c14 0 56 -2 94 -6z m-467 -20 c-4 -3 -7 0 -7 7 0 7 3
10 7 7 3 -4 3 -10 0 -14z m353 -23 c70 -24 84 -24 172 0 89 24 119 25 228 2
76 -17 185 -60 152 -62 -7 0 -26 7 -41 14 -15 8 -52 18 -82 21 l-54 6 75 -22
c41 -12 89 -22 105 -22 139 0 365 -69 365 -111 0 -6 30 -40 67 -76 143 -139
163 -160 163 -172 -1 -7 -17 5 -36 27 -20 22 -41 41 -47 41 -7 1 -18 2 -25 3
-7 0 -11 5 -8 10 8 12 -63 91 -80 91 -8 0 -14 4 -14 9 0 13 -43 22 -54 11 -14
-14 -40 -12 -73 4 -69 34 -152 67 -193 76 -69 15 -182 12 -204 -5 -11 -8 -30
-15 -42 -15 -13 0 -25 -4 -28 -9 -7 -11 28 -21 74 -21 37 0 114 -33 103 -44
-5 -5 26 -35 60 -57 6 -4 6 -17 1 -33 l-9 -26 -32 22 c-18 13 -35 31 -39 40
-12 39 -33 48 -110 48 -57 0 -76 -4 -80 -15 -4 -8 -13 -15 -21 -15 -8 0 -11
-4 -8 -10 10 -16 -7 -12 -27 7 -16 15 -21 15 -55 0 -21 -8 -51 -18 -68 -21
-29 -6 -29 -6 -10 10 22 17 28 17 -59 -1 -14 -3 -36 0 -50 7 -21 9 -33 8 -65
-6 -33 -15 -42 -16 -61 -4 -18 10 -24 10 -27 1 -3 -7 -17 -13 -31 -14 l-27 0
25 -11 c14 -6 39 -17 57 -24 44 -20 71 -17 143 12 44 18 66 22 73 15 6 -6 28
-11 49 -11 30 0 36 3 31 16 -5 15 4 16 88 9 98 -7 144 -24 73 -26 -31 -2 -26
-4 26 -11 98 -14 111 -18 105 -28 -3 -6 2 -10 12 -10 11 0 24 -5 30 -11 7 -7
20 -9 30 -5 17 7 17 8 1 17 -10 6 -18 14 -18 19 0 17 146 -67 189 -109 29 -30
46 -40 53 -33 13 13 61 -15 52 -29 -3 -5 1 -9 9 -9 8 0 33 -20 56 -45 22 -24
41 -39 41 -33 0 19 -171 183 -207 199 -18 7 -33 17 -33 22 0 4 -16 15 -35 24
-44 21 -45 33 -1 33 38 0 56 -15 29 -24 -10 -3 -5 -4 12 -2 30 4 115 -34 164
-72 15 -12 33 -17 50 -14 23 5 18 9 -44 38 -39 19 -65 34 -58 34 28 0 -2 38
-40 50 -37 11 -40 13 -23 25 20 15 61 7 103 -22 16 -11 57 -32 92 -46 64 -28
90 -44 160 -104 21 -18 42 -29 46 -25 5 4 4 1 0 -7 -6 -11 -4 -13 9 -8 10 4
15 3 11 -3 -3 -6 -2 -10 4 -10 6 0 16 -10 22 -22 9 -19 9 -21 -2 -10 -27 25
-26 10 3 -43 16 -30 25 -55 19 -55 -16 0 -13 -16 5 -34 22 -23 13 -76 -24
-131 -17 -26 -28 -53 -25 -61 3 -7 -1 -16 -8 -19 -10 -4 -14 -21 -12 -55 0
-28 -3 -53 -8 -56 -8 -5 -11 7 -14 73 0 12 -5 26 -10 30 -4 4 -5 3 -2 -3 6
-11 -19 -29 -35 -26 -5 1 -8 -3 -8 -9 0 -6 -6 -9 -14 -6 -9 4 -16 -3 -20 -19
-13 -48 -33 -21 -28 39 1 9 -2 17 -7 17 -5 0 -15 17 -21 38 -16 50 -102 222
-112 222 -4 0 -8 -4 -8 -10 0 -18 -19 -10 -25 10 -10 31 -81 100 -103 100 -10
0 -23 -10 -28 -21 -10 -21 -11 -20 -58 20 -63 55 -93 69 -161 77 -48 6 -56 10
-52 25 3 12 -2 19 -17 22 -11 3 17 3 64 1 85 -4 85 -4 50 12 -26 12 -52 15
-105 11 -63 -6 -74 -4 -114 20 -45 26 -55 26 -131 -4 -13 -5 -13 -4 -2 10 11
13 10 16 -5 21 -48 14 -183 1 -183 -18 0 -14 74 -59 83 -50 3 3 8 1 11 -4 11
-18 -108 -22 -208 -7 -55 8 -100 15 -101 15 -8 0 -11 40 -3 48 5 5 3 13 -5 21
-11 9 -24 7 -58 -8 -24 -11 -47 -17 -51 -15 -4 3 -8 0 -8 -5 0 -6 -9 -11 -19
-11 -11 0 -23 -4 -26 -10 -9 -15 -22 -12 -29 5 -7 19 14 55 31 55 7 0 13 5 13
10 0 6 7 10 15 10 27 0 65 41 59 65 -5 20 9 41 31 45 31 6 84 34 89 46 4 10 1
11 -12 4 -19 -10 -134 -50 -146 -50 -4 0 -4 5 -1 10 3 6 -1 10 -10 10 -9 0
-13 -4 -10 -10 3 -5 -3 -10 -14 -10 -11 0 -23 -4 -26 -10 -3 -5 -1 -10 6 -10
7 0 6 -8 -5 -24 -9 -14 -13 -32 -10 -40 3 -9 2 -16 -4 -16 -6 0 -12 4 -14 9
-1 5 -22 0 -46 -11 -25 -12 -41 -26 -38 -33 5 -15 -29 -55 -48 -55 -17 0 -98
-89 -91 -100 3 -5 1 -11 -4 -14 -5 -3 -12 2 -16 12 -6 16 -7 16 -17 -1 -7 -13
-6 -27 2 -48 11 -26 10 -33 -7 -52 -26 -29 -82 -159 -87 -200 -2 -18 -4 -36
-5 -42 -1 -5 -6 -3 -12 5 -8 11 -9 6 -5 -20 5 -26 3 -31 -5 -20 -8 11 -9 8 -5
-15 3 -17 -1 -40 -9 -55 -17 -29 -20 -14 -5 27 10 27 9 27 -6 8 -10 -14 -14
-31 -10 -55 3 -19 6 -43 6 -52 0 -10 7 -18 15 -18 9 0 15 9 15 23 0 12 6 31
14 42 7 11 15 44 18 73 3 29 9 57 15 63 15 15 6 -112 -11 -152 -8 -20 -18 -61
-21 -92 -3 -30 -12 -68 -20 -83 -8 -16 -15 -52 -15 -81 0 -60 -7 -83 -25 -83
-16 0 -31 136 -19 177 4 16 8 71 9 124 2 66 7 103 18 120 8 13 22 52 31 86 9
35 25 81 36 104 36 69 16 54 -33 -26 -40 -64 -48 -86 -53 -145 -9 -89 -24
-101 -24 -20 0 46 5 69 20 91 12 15 23 52 26 81 7 57 24 108 37 108 5 0 24 16
42 36 34 36 34 37 19 72 -18 45 -21 47 -36 34 -10 -8 -14 2 -17 46 -8 109 -6
134 13 148 11 7 19 27 20 43 1 19 5 26 10 20 6 -5 17 -9 26 -9 9 0 16 -8 16
-19 0 -11 -3 -18 -6 -16 -12 8 -44 -61 -47 -100 -1 -22 -5 -50 -8 -61 -5 -23
7 -38 40 -47 17 -5 25 5 53 61 17 37 32 74 32 83 0 21 36 54 44 41 14 -22 96
15 96 43 0 12 -47 3 -69 -14 -36 -27 -59 -15 -30 15 12 13 20 26 18 29 -5 4
-45 -5 -81 -20 -24 -10 -24 23 0 50 36 41 112 90 112 71 0 -3 -4 -16 -10 -30
-10 -28 0 -34 22 -13 11 12 75 47 85 47 12 0 -1 -19 -22 -30 -17 -9 -25 -21
-24 -39 1 -18 3 -21 6 -8 4 14 11 17 33 12 17 -4 44 1 71 13 143 63 179 74
186 55 3 -7 -2 -13 -11 -13 -9 0 -16 -4 -16 -10 0 -5 18 -9 40 -8 45 1 50 9
18 27 -13 6 -15 9 -6 7 10 -3 24 1 32 9 8 8 18 15 22 15 5 0 3 -5 -4 -12 -14
-14 -16 -32 -2 -23 25 15 117 15 187 0 106 -24 255 -32 328 -19 l40 7 -30 13
-30 12 25 11 c23 10 22 11 -8 5 -18 -3 -39 -1 -46 5 -8 7 -65 12 -140 12 -88
1 -126 5 -123 13 4 13 101 33 212 43 47 4 67 9 50 11 -37 5 -248 -17 -293 -30
-19 -6 -62 -12 -96 -13 -34 -2 -79 -7 -100 -11 -25 -4 -37 -3 -33 3 9 15 -72
-1 -111 -22 -18 -9 -56 -32 -84 -51 -28 -19 -52 -33 -54 -31 -11 10 20 66 42
76 14 6 43 25 63 42 30 23 57 33 120 44 45 8 90 19 99 25 25 14 61 11 122 -10z
m-350 -19 c0 -5 -9 -11 -20 -14 -11 -3 -20 -1 -20 3 0 5 8 11 18 13 9 3 18 5
20 6 1 0 2 -3 2 -8z m990 -6 c0 -3 -2 -5 -5 -5 -3 0 -5 2 -5 5 0 3 2 5 5 5 3
0 5 -2 5 -5z m140 0 c0 -3 -2 -5 -5 -5 -3 0 -5 2 -5 5 0 3 2 5 5 5 3 0 5 -2 5
-5z m-1180 -10 c0 -3 -2 -5 -5 -5 -3 0 -5 2 -5 5 0 3 2 5 5 5 3 0 5 -2 5 -5z
m1080 -5 c8 -5 11 -10 5 -10 -5 0 -17 5 -25 10 -8 5 -10 10 -5 10 6 0 17 -5
25 -10z m-1360 -38 c0 -5 -7 -9 -15 -9 -8 0 -15 4 -15 9 0 4 7 8 15 8 8 0 15
-4 15 -8z m34 -17 c3 -8 1 -15 -4 -15 -6 0 -10 7 -10 15 0 8 2 15 4 15 2 0 6
-7 10 -15z m76 -10 c0 -3 -2 -5 -5 -5 -3 0 -5 2 -5 5 0 3 2 5 5 5 3 0 5 -2 5
-5z m1170 -84 c0 -10 -70 -29 -88 -23 -21 7 -13 21 16 25 50 8 72 7 72 -2z
m-1363 -18 c-4 -3 -7 0 -7 7 0 7 3 10 7 7 3 -4 3 -10 0 -14z m1763 2 c0 -3 -2
-5 -5 -5 -3 0 -5 2 -5 5 0 3 2 5 5 5 3 0 5 -2 5 -5z m-1780 -10 c0 -3 -2 -5
-5 -5 -3 0 -5 2 -5 5 0 3 2 5 5 5 3 0 5 -2 5 -5z m1432 -18 c7 -7 26 -21 42
-31 20 -13 25 -20 16 -26 -15 -9 -92 9 -84 21 3 5 -7 14 -23 20 -22 8 -24 12
-13 19 21 13 46 12 62 -3z m373 3 c3 -5 4 -10 1 -10 -3 0 -8 5 -11 10 -3 6 -4
10 -1 10 3 0 8 -4 11 -10z m-1841 -26 c9 -22 -3 -32 -14 -14 -12 19 -12 30 -1
30 5 0 12 -7 15 -16z m44 -3 c3 -8 -1 -12 -9 -9 -7 2 -15 10 -17 17 -3 8 1 12
9 9 7 -2 15 -10 17 -17z m1129 -17 c-3 -3 -12 -4 -19 -1 -8 3 -5 6 6 6 11 1
17 -2 13 -5z m-732 -14 c-3 -5 -12 -10 -18 -10 -7 0 -6 4 3 10 19 12 23 12 15
0z m-283 -30 c-9 -16 -19 -25 -21 -19 -3 9 26 49 35 49 2 0 -5 -13 -14 -30z
m548 5 c0 -3 -2 -5 -5 -5 -3 0 -5 2 -5 5 0 3 2 5 5 5 3 0 5 -2 5 -5z m747 -1
c-3 -3 -12 -4 -19 -1 -8 3 -5 6 6 6 11 1 17 -2 13 -5z m-137 -9 c0 -3 -2 -5
-5 -5 -3 0 -5 2 -5 5 0 3 2 5 5 5 3 0 5 -2 5 -5z m-1380 -10 c0 -3 -2 -5 -5
-5 -3 0 -5 2 -5 5 0 3 2 5 5 5 3 0 5 -2 5 -5z m1490 0 c0 -3 -2 -5 -5 -5 -3 0
-5 2 -5 5 0 3 2 5 5 5 3 0 5 -2 5 -5z m-1490 -30 c0 -3 -2 -5 -5 -5 -3 0 -5 2
-5 5 0 3 2 5 5 5 3 0 5 -2 5 -5z m17 -22 c-4 -3 -7 0 -7 7 0 7 3 10 7 7 3 -4
3 -10 0 -14z m1010 -30 c-4 -3 -10 -3 -14 0 -3 4 0 7 7 7 7 0 10 -3 7 -7z
m-862 -51 c-8 -8 -25 17 -25 38 0 9 6 6 16 -8 9 -13 13 -26 9 -30z m249 32
c27 1 44 0 38 -2 -6 -2 -9 -9 -6 -17 14 -35 -82 -47 -112 -14 -18 20 -18 21 1
35 10 8 21 10 24 5 3 -5 28 -8 55 -7z m1196 -9 c0 -3 -2 -5 -5 -5 -3 0 -5 2
-5 5 0 3 2 5 5 5 3 0 5 -2 5 -5z m20 -20 c0 -3 -2 -5 -5 -5 -3 0 -5 2 -5 5 0
3 2 5 5 5 3 0 5 -2 5 -5z m-1630 -15 c0 -5 -2 -10 -4 -10 -3 0 -8 5 -11 10 -3
6 -1 10 4 10 6 0 11 -4 11 -10z m40 -5 c0 -3 -2 -5 -5 -5 -3 0 -5 2 -5 5 0 3
2 5 5 5 3 0 5 -2 5 -5z m-20 -10 c0 -3 -2 -5 -5 -5 -3 0 -5 2 -5 5 0 3 2 5 5
5 3 0 5 -2 5 -5z m180 -30 c0 -3 -2 -5 -5 -5 -3 0 -5 2 -5 5 0 3 2 5 5 5 3 0
5 -2 5 -5z m320 -20 c0 -3 -2 -5 -5 -5 -3 0 -5 2 -5 5 0 3 2 5 5 5 3 0 5 -2 5
-5z m1500 -518 c0 -13 4 -27 9 -32 11 -13 33 -106 27 -112 -3 -3 1 -21 9 -40
13 -31 13 -34 0 -29 -11 4 -13 -1 -8 -24 10 -53 -15 -32 -27 23 -7 28 -25 78
-41 109 -29 58 -30 77 -1 111 21 23 32 21 32 -6z m120 -568 c0 -5 -4 -9 -10
-9 -5 0 -10 7 -10 16 0 8 5 12 10 9 6 -3 10 -10 10 -16z m-2170 -539 c10 -5
21 -23 25 -40 4 -16 10 -30 15 -30 4 0 8 -20 8 -45 1 -29 -3 -45 -11 -45 -23
0 -39 18 -40 44 -1 14 -5 26 -9 26 -5 0 -8 7 -8 15 0 8 -4 15 -10 15 -5 0 -10
16 -10 35 0 36 9 42 40 25z M3240 5175 c0 -3 2 -5 5 -5 3 0 5 2 5 5 0 3 -2 5
-5 5 -3 0 -5 -2 -5 -5z M3018 5023 c18 -2 45 -2 60 0 15 2 0 4 -33 4 -33 0
-45 -2 -27 -4z M3288 5023 c7 -3 16 -2 19 1 4 3 -2 6 -13 5 -11 0 -14 -3 -6
-6z M2400 4955 c0 -3 2 -5 5 -5 3 0 5 2 5 5 0 3 -2 5 -5 5 -3 0 -5 -2 -5 -5z
M2678 4926 c-20 -19 -33 -37 -30 -40 3 -3 1 -6 -5 -6 -15 0 -73 -62 -67 -71 3
-5 23 0 44 11 22 11 54 20 72 21 29 1 30 2 9 8 l-24 7 26 17 c29 19 57 22 57
7 0 -5 10 -10 23 -9 12 0 79 0 150 0 133 0 177 6 141 20 -16 6 -15 8 8 8 43 1
44 21 1 22 -180 4 -257 9 -266 18 -15 15 -50 14 -41 -1 5 -7 3 -8 -6 -3 -7 4
-15 3 -19 -3 -9 -15 -61 -27 -61 -14 0 6 9 14 20 17 11 3 20 11 20 16 0 17
-17 9 -52 -25z m7 -26 c3 -5 4 -10 1 -10 -3 0 -8 5 -11 10 -3 6 -4 10 -1 10 3
0 8 -4 11 -10z m353 3 c-10 -2 -28 -2 -40 0 -13 2 -5 4 17 4 22 1 32 -1 23 -4z
m-378 -43 c-20 -13 -33 -13 -25 0 3 6 14 10 23 10 15 0 15 -2 2 -10z M2562
4858 c-7 -7 -12 -16 -12 -21 0 -5 7 -1 16 8 9 9 14 18 12 20 -2 3 -10 -1 -16
-7z M2793 4853 c4 -3 10 -3 14 0 3 4 0 7 -7 7 -7 0 -10 -3 -7 -7z M2755 4840
c-3 -5 -1 -10 4 -10 6 0 11 5 11 10 0 6 -2 10 -4 10 -3 0 -8 -4 -11 -10z
M2983 4823 c4 -3 10 -3 14 0 3 4 0 7 -7 7 -7 0 -10 -3 -7 -7z M2240 4770 c0
-7 3 -10 7 -7 3 4 3 10 0 14 -4 3 -7 0 -7 -7z M2210 4760 c0 -5 5 -10 10 -10
6 0 10 5 10 10 0 6 -4 10 -10 10 -5 0 -10 -4 -10 -10z M2637 4753 c-3 -5 6 -9
20 -10 19 -1 22 1 12 8 -17 11 -26 11 -32 2z M3880 4755 c0 -3 2 -5 5 -5 3 0
5 2 5 5 0 3 -2 5 -5 5 -3 0 -5 -2 -5 -5z M2675 4720 c-3 -6 5 -10 19 -10 14 0
28 5 31 10 3 6 -5 10 -19 10 -14 0 -28 -4 -31 -10z M3670 4715 c0 -3 2 -5 5
-5 3 0 5 2 5 5 0 3 -2 5 -5 5 -3 0 -5 -2 -5 -5z M2660 4678 c0 -5 19 -8 42 -8
23 0 39 3 35 6 -9 9 -77 11 -77 2z M3401 4670 c24 -21 66 -36 75 -27 3 3 -7
13 -23 22 -26 15 -26 15 -3 9 14 -4 22 -3 18 1 -4 4 -26 9 -49 11 l-42 4 24
-20z M3620 4675 c0 -3 2 -5 5 -5 3 0 5 2 5 5 0 3 -2 5 -5 5 -3 0 -5 -2 -5 -5z
M3645 4660 c3 -5 8 -10 11 -10 3 0 2 5 -1 10 -3 6 -8 10 -11 10 -3 0 -2 -4 1
-10z M3635 4638 c3 -7 24 -26 45 -42 22 -17 40 -33 40 -38 0 -4 5 -8 12 -8 6
0 -1 14 -18 31 -37 39 -86 75 -79 57z M3670 4645 c0 -3 2 -5 5 -5 3 0 5 2 5 5
0 3 -2 5 -5 5 -3 0 -5 -2 -5 -5z M3834 4627 c-6 -17 24 -66 41 -67 6 0 21 -12
34 -25 19 -21 20 -24 5 -19 -11 4 -24 11 -31 16 -7 6 -18 6 -24 2 -7 -4 -17 0
-23 8 -13 18 -86 51 -87 40 0 -4 -2 -17 -5 -30 -4 -23 40 -77 56 -67 4 3 15
-5 23 -18 12 -19 13 -27 3 -46 -25 -46 7 -111 54 -111 8 0 21 -9 28 -20 14
-23 55 -19 81 7 10 11 16 11 21 3 10 -16 20 12 20 53 0 34 -21 72 -64 121 -14
16 -24 31 -22 33 9 9 42 -16 56 -41 13 -25 30 -35 30 -18 0 4 -24 38 -53 76
-58 76 -132 130 -143 103z m-27 -124 c-4 -3 -10 -3 -14 0 -3 4 0 7 7 7 7 0 10
-3 7 -7z m33 2 c0 -3 -2 -5 -5 -5 -3 0 -5 2 -5 5 0 3 2 5 5 5 3 0 5 -2 5 -5z
m30 0 c0 -3 -2 -5 -5 -5 -3 0 -5 2 -5 5 0 3 2 5 5 5 3 0 5 -2 5 -5z m40 -149
c-5 -13 -6 -27 -3 -30 4 -3 -1 -6 -10 -6 -10 0 -15 6 -12 15 3 8 7 22 10 30 2
8 9 15 14 15 7 0 7 -9 1 -24z m25 -66 c3 -5 1 -10 -4 -10 -6 0 -11 5 -11 10 0
6 2 10 4 10 3 0 8 -4 11 -10z M2160 4625 c0 -3 2 -5 5 -5 3 0 5 2 5 5 0 3 -2
5 -5 5 -3 0 -5 -2 -5 -5z M3610 4585 c0 -8 7 -15 16 -15 14 0 14 3 4 15 -7 8
-14 15 -16 15 -2 0 -4 -7 -4 -15z M2100 4575 c0 -3 2 -5 5 -5 3 0 5 2 5 5 0 3
-2 5 -5 5 -3 0 -5 -2 -5 -5z M2095 4499 c-4 -6 -5 -12 -2 -15 2 -3 7 2 10 11
7 17 1 20 -8 4z M2000 4385 c0 -3 2 -5 5 -5 3 0 5 2 5 5 0 3 -2 5 -5 5 -3 0
-5 -2 -5 -5z M3933 4253 c4 -3 10 -3 14 0 3 4 0 7 -7 7 -7 0 -10 -3 -7 -7z
M3940 4205 c0 -3 2 -5 5 -5 3 0 5 2 5 5 0 3 -2 5 -5 5 -3 0 -5 -2 -5 -5z
M2067 4959 c4 -13 8 -18 11 -10 2 7 -1 18 -6 23 -8 8 -9 4 -5 -13z M2010 4945
c0 -3 2 -5 5 -5 3 0 5 2 5 5 0 3 -2 5 -5 5 -3 0 -5 -2 -5 -5z M1920 4790 c0
-7 3 -10 7 -7 3 4 3 10 0 14 -4 3 -7 0 -7 -7z M3108 4543 c6 -2 18 -2 25 0 6
3 1 5 -13 5 -14 0 -19 -2 -12 -5z M1900 4525 c0 -3 2 -5 5 -5 3 0 5 2 5 5 0 3
-2 5 -5 5 -3 0 -5 -2 -5 -5z M3560 4385 c0 -3 2 -5 5 -5 3 0 5 2 5 5 0 3 -2 5
-5 5 -3 0 -5 -2 -5 -5z M3592 3726 c-11 -15 -25 -26 -31 -26 -15 0 -14 -13 2
-29 6 -8 8 -12 2 -9 -5 2 -28 12 -49 22 -30 13 -51 16 -85 10 -25 -4 -83 -6
-127 -5 -90 3 -114 -12 -114 -69 0 -56 11 -59 162 -42 126 14 143 14 215 -2
43 -9 89 -19 103 -21 14 -2 35 -7 46 -10 21 -7 22 -4 20 59 -2 80 -17 99 -79
105 -4 1 -7 9 -5 19 5 28 -37 27 -60 -2z m5 -93 c-4 -3 -7 0 -7 7 0 7 3 10 7
7 3 -4 3 -10 0 -14z M2244 3689 c-46 -13 -60 -34 -47 -70 6 -16 9 -38 6 -49
-15 -58 20 -86 66 -53 14 9 47 21 75 27 50 11 341 11 403 1 26 -5 33 -2 38 15
15 47 -66 85 -201 95 -38 3 -85 7 -104 10 -21 3 -47 -2 -65 -11 -40 -22 -102
-37 -86 -21 6 6 11 24 11 39 0 25 -3 28 -32 27 -18 0 -47 -5 -64 -10z M3290
3473 c-30 -16 -61 -39 -69 -53 l-16 -25 48 29 c75 43 132 55 96 19 -9 -9 -8
-20 2 -45 7 -18 12 -41 10 -52 -1 -11 2 -16 8 -11 6 3 9 10 6 15 -2 4 8 13 25
20 29 12 49 57 35 80 -19 30 85 -1 128 -38 16 -14 15 -17 -25 -44 -37 -25 -49
-28 -90 -23 -61 7 -70 -20 -10 -30 37 -6 152 31 159 52 2 5 19 7 38 5 27 -3
34 -1 29 9 -11 27 -87 80 -130 90 -25 6 -47 15 -50 20 -3 5 -36 9 -73 9 -54 0
-78 -5 -121 -27z m130 -8 c0 -3 -2 -5 -5 -5 -3 0 -5 2 -5 5 0 3 2 5 5 5 3 0 5
-2 5 -5z m-20 -45 c0 -5 -4 -10 -10 -10 -5 0 -10 5 -10 10 0 6 5 10 10 10 6 0
10 -4 10 -10z M3234 3476 c-10 -8 -17 -17 -14 -19 3 -3 14 1 24 9 11 7 17 16
15 19 -3 3 -14 -2 -25 -9z M2455 3464 c-15 -8 -38 -16 -51 -18 -13 -3 -36 -13
-52 -24 -15 -11 -37 -22 -49 -26 -46 -15 -38 -62 9 -52 17 3 44 0 62 -8 69
-30 112 -37 145 -23 40 17 32 25 -22 21 -28 -3 -56 3 -88 18 l-45 22 25 22
c33 27 71 47 78 40 3 -2 16 -1 29 4 31 12 33 -7 2 -20 -13 -5 -17 -9 -10 -9 7
-1 17 -12 22 -26 5 -14 16 -26 25 -26 51 -4 50 -5 50 38 0 38 2 42 20 37 34
-11 59 -23 83 -40 31 -23 27 -2 -5 27 -58 52 -171 73 -228 43z m105 -64 c0 -5
-2 -10 -4 -10 -3 0 -8 5 -11 10 -3 6 -1 10 4 10 6 0 11 -4 11 -10z M2670 3465
c0 -3 2 -5 5 -5 3 0 5 2 5 5 0 3 -2 5 -5 5 -3 0 -5 -2 -5 -5z M2695 3450 c3
-5 8 -10 11 -10 3 0 2 5 -1 10 -3 6 -8 10 -11 10 -3 0 -2 -4 1 -10z M2610
3405 c0 -3 2 -5 5 -5 3 0 5 2 5 5 0 3 -2 5 -5 5 -3 0 -5 -2 -5 -5z M2863 3383
c4 -3 10 -3 14 0 3 4 0 7 -7 7 -7 0 -10 -3 -7 -7z M4180 3385 c0 -3 2 -5 5 -5
3 0 5 2 5 5 0 3 -2 5 -5 5 -3 0 -5 -2 -5 -5z M3168 3373 c6 -2 18 -2 25 0 6 3
1 5 -13 5 -14 0 -19 -2 -12 -5z M2726 3351 c-17 -19 -17 -19 3 -14 12 3 21 12
21 19 0 18 -4 18 -24 -5z M3080 3360 c0 -7 3 -10 7 -7 3 4 3 10 0 14 -4 3 -7
0 -7 -7z M2575 3340 c-3 -5 1 -10 9 -10 9 0 16 5 16 10 0 6 -4 10 -9 10 -6 0
-13 -4 -16 -10z M2841 3336 c-8 -10 -9 -16 -1 -21 5 -3 13 1 16 10 9 22 -1 29
-15 11z M3072 3301 c-15 -50 -15 -56 4 -75 30 -31 43 7 28 83 -9 41 -18 39
-32 -8z M4160 3265 c0 -14 5 -25 10 -25 6 0 10 11 10 25 0 14 -4 25 -10 25 -5
0 -10 -11 -10 -25z M3108 3112 c-10 -2 -18 -6 -18 -10 0 -15 25 -72 32 -72 4
0 8 -9 8 -20 0 -10 13 -34 29 -52 16 -18 38 -50 49 -71 20 -38 35 -38 28 -1
-2 11 -20 46 -39 79 -19 33 -38 75 -42 94 -9 41 -24 58 -47 53z M2750 2985 c0
-3 2 -5 5 -5 3 0 5 2 5 5 0 3 -2 5 -5 5 -3 0 -5 -2 -5 -5z M2711 2934 c0 -11
3 -14 6 -6 3 7 2 16 -1 19 -3 4 -6 -2 -5 -13z M2800 2851 c0 -14 41 -41 62
-41 27 0 21 18 -12 35 -33 17 -50 19 -50 6z M3094 2845 c-37 -15 -49 -31 -31
-38 16 -6 77 21 77 34 0 16 -16 17 -46 4z M2107 2703 c-3 -5 -8 -23 -12 -41
-4 -18 -13 -36 -19 -38 -30 -11 12 -212 64 -312 72 -138 76 -144 91 -125 12
14 12 16 0 8 -11 -6 -13 -4 -8 8 3 9 2 19 -4 23 -6 3 -8 12 -5 20 7 17 -13
125 -25 140 -5 6 -13 45 -19 86 -6 42 -15 91 -20 109 -6 19 -10 55 -10 81 0
35 -4 48 -14 48 -8 0 -17 -3 -19 -7z M3335 2529 c-33 -11 -94 -22 -135 -25
-41 -2 -91 -7 -110 -11 -19 -3 -57 -7 -85 -8 -27 -1 -58 -5 -67 -9 -9 -4 -22
-5 -28 -1 -6 3 -70 11 -143 16 -242 18 -263 12 -191 -60 43 -42 136 -83 152
-67 11 12 -10 36 -31 36 -28 0 -52 24 -42 40 4 7 75 10 213 9 120 -1 234 3
272 9 36 7 87 12 114 12 l49 0 -23 -25 c-13 -14 -29 -25 -36 -25 -7 0 -18 -10
-25 -21 -11 -21 -10 -22 22 -15 34 7 50 21 43 40 -2 6 7 12 20 12 32 2 126 74
126 96 0 22 -17 22 -95 -3z M2089 2018 c-1 -233 -11 -492 -17 -440 -3 22 -19
12 -47 -29 -22 -34 -25 -45 -16 -63 9 -18 39 -211 58 -377 3 -28 15 -57 28
-73 13 -15 26 -45 30 -67 4 -21 11 -37 16 -33 11 7 12 -17 0 -34 -10 -17 23
-85 62 -126 22 -23 26 -31 15 -38 -9 -7 -7 -8 8 -5 17 4 21 0 18 -17 -2 -11
-2 -15 2 -9 5 12 54 -35 54 -52 0 -16 36 -51 49 -47 10 3 12 0 8 -11 -4 -10
-1 -14 6 -12 7 3 21 -13 31 -35 11 -22 25 -40 32 -40 7 0 25 -13 41 -29 16
-15 38 -31 48 -35 11 -3 33 -17 49 -31 16 -14 34 -25 39 -25 6 0 25 -11 43
-25 18 -14 36 -25 39 -25 4 0 26 -13 50 -30 24 -16 48 -30 54 -30 6 0 11 -6
11 -12 0 -9 4 -8 10 2 6 9 10 10 10 3 0 -19 92 -65 140 -69 25 -2 63 -7 86
-10 25 -4 50 -1 64 6 13 7 37 14 52 15 44 4 118 27 118 36 0 5 8 9 18 9 25 0
87 40 112 72 14 19 31 28 50 28 22 0 29 5 32 22 2 13 15 29 31 36 15 7 27 19
27 26 0 8 21 20 46 27 26 8 49 21 51 29 8 26 20 45 29 45 17 0 34 16 34 32 0
18 48 63 68 63 7 0 12 13 12 30 0 17 5 30 11 30 23 0 79 84 79 119 0 10 9 21
20 24 11 3 20 11 20 19 0 10 -3 9 -10 -2 -8 -13 -10 -12 -10 3 0 30 -23 14
-50 -34 -56 -101 -215 -267 -352 -366 -44 -32 -111 -83 -149 -114 -63 -52 -77
-59 -173 -83 -159 -39 -218 -32 -315 37 -25 19 -109 65 -185 103 -165 82 -247
148 -392 319 -137 160 -227 440 -227 700 0 98 9 131 29 114 19 -16 41 3 50 44
3 18 10 37 15 43 5 6 9 105 10 221 2 252 7 267 65 204 51 -58 55 -43 5 20 -23
29 -61 92 -84 140 -23 48 -45 88 -49 88 -5 1 -8 -126 -9 -281z m91 97 c0 -3
-2 -5 -5 -5 -3 0 -5 2 -5 5 0 3 2 5 5 5 3 0 5 -2 5 -5z m-20 -1210 c0 -3 -2
-5 -5 -5 -3 0 -5 2 -5 5 0 3 2 5 5 5 3 0 5 -2 5 -5z m10 -40 c0 -3 -2 -5 -5
-5 -3 0 -5 2 -5 5 0 3 2 5 5 5 3 0 5 -2 5 -5z M2230 2165 c0 -3 2 -5 5 -5 3 0
5 2 5 5 0 3 -2 5 -5 5 -3 0 -5 -2 -5 -5z M2170 2055 c0 -3 2 -5 5 -5 3 0 5 2
5 5 0 3 -2 5 -5 5 -3 0 -5 -2 -5 -5z M3640 1990 c0 -7 3 -10 7 -7 3 4 3 10 0
14 -4 3 -7 0 -7 -7z M3585 1957 c-22 -12 -47 -30 -56 -39 -9 -10 -20 -18 -24
-18 -4 0 -24 -13 -44 -29 -20 -16 -58 -38 -86 -50 -27 -12 -67 -31 -88 -41
-22 -11 -48 -20 -59 -20 -10 0 -27 -4 -36 -9 -16 -9 -206 -35 -242 -34 -45 2
-216 26 -225 32 -5 4 -28 13 -50 20 -22 8 -59 26 -81 41 -23 15 -58 33 -77 39
-20 7 -53 21 -74 31 -21 10 -39 17 -41 15 -9 -8 25 -45 56 -59 18 -9 59 -33
90 -54 236 -156 503 -183 733 -74 46 22 95 44 109 48 14 3 27 10 30 14 3 4 28
24 55 44 59 44 155 141 155 156 0 5 -1 10 -2 9 -2 0 -21 -10 -43 -22z M3960
1556 c0 -26 121 -183 149 -194 9 -3 28 -14 44 -24 15 -11 27 -17 27 -13 0 3
12 -6 27 -20 15 -14 39 -25 52 -25 24 0 44 -8 178 -71 35 -16 67 -29 72 -29 5
0 11 -4 13 -10 2 -5 12 -11 23 -13 19 -4 58 -18 100 -36 11 -5 66 -21 122 -35
56 -15 119 -34 140 -42 38 -15 50 -21 193 -88 41 -20 98 -40 125 -46 28 -6 62
-20 77 -30 15 -11 36 -20 48 -20 11 0 20 -4 20 -10 0 -5 8 -10 18 -10 21 0 93
-34 170 -79 29 -17 60 -31 69 -31 28 0 133 -62 178 -105 24 -24 47 -40 51 -36
4 3 4 1 1 -5 -3 -6 7 -25 23 -43 17 -18 30 -35 30 -39 0 -4 25 -19 55 -33 54
-25 55 -25 55 -5 0 42 -80 176 -123 208 -62 45 -532 272 -636 307 -49 17 -152
61 -228 99 -137 69 -311 142 -336 142 -7 0 -23 -9 -35 -20 -12 -12 -22 -16
-22 -10 0 5 -7 10 -15 10 -8 0 -26 11 -40 25 -14 14 -25 23 -25 19 0 -4 -8 0
-17 8 -20 16 -73 41 -113 53 -14 4 -64 27 -111 51 -90 46 -105 51 -93 32 10
-15 -3 -7 -116 75 -92 66 -150 103 -150 93z m754 -361 c11 -8 15 -15 10 -15
-6 0 -19 7 -30 15 -10 8 -14 14 -9 14 6 0 19 -6 29 -14z m-39 -15 c3 -5 4 -10
1 -10 -3 0 -8 5 -11 10 -3 6 -4 10 -1 10 3 0 8 -4 11 -10z M1916 1489 c-32
-27 -64 -48 -70 -46 -6 2 -37 -9 -69 -25 -59 -29 -117 -93 -117 -129 0 -10 -9
-23 -20 -29 -44 -24 -16 -27 35 -4 31 13 62 24 70 24 8 0 21 13 31 29 16 27
74 61 106 61 39 0 108 96 108 150 0 29 -8 25 -74 -31z M1590 1335 c-30 -20
-66 -38 -80 -41 -68 -13 -133 -42 -217 -97 -51 -33 -93 -64 -93 -69 0 -4 -22
-8 -50 -8 -32 0 -70 -9 -107 -26 -32 -14 -89 -35 -126 -45 -37 -11 -91 -33
-120 -49 -29 -16 -77 -34 -107 -41 -106 -22 -180 -50 -198 -76 -9 -13 -35 -41
-57 -61 -22 -20 -55 -53 -75 -73 -36 -37 -132 -109 -145 -109 -4 0 0 11 9 25
25 37 6 31 -70 -26 -38 -28 -85 -59 -105 -70 -39 -19 -59 -49 -34 -49 8 0 15
6 15 13 0 8 3 8 9 -2 5 -8 7 -21 4 -30 -4 -9 6 -5 24 12 29 27 57 35 68 18 3
-6 15 -5 28 3 59 33 87 52 87 59 0 4 7 7 15 7 9 0 38 15 64 32 27 18 68 44 91
58 23 14 56 37 73 53 17 15 46 32 64 39 35 13 44 28 17 28 -13 0 -14 3 -5 14
9 11 9 15 -1 18 -26 9 72 48 154 62 74 12 119 28 198 71 14 7 45 22 70 32 25
10 73 37 107 61 66 44 86 52 77 27 -4 -8 -12 -15 -20 -15 -8 0 -14 -5 -14 -12
0 -6 -7 -20 -17 -30 -14 -16 -14 -18 -1 -18 41 0 78 14 78 29 0 13 2 13 9 3 7
-11 13 -9 33 10 49 46 89 72 103 65 2 -1 12 8 20 21 9 12 23 22 31 22 7 0 31
16 53 35 43 39 51 42 51 20 0 -30 31 -14 100 53 99 95 94 124 -10 57z M4610
1235 c0 -3 2 -5 5 -5 3 0 5 2 5 5 0 3 -2 5 -5 5 -3 0 -5 -2 -5 -5z M4650 1220
c-9 -6 -10 -10 -3 -10 6 0 15 5 18 10 8 12 4 12 -15 0z M1110 1005 c0 -3 2 -5
5 -5 3 0 5 2 5 5 0 3 -2 5 -5 5 -3 0 -5 -2 -5 -5z M2250 680 c0 -5 5 -10 10
-10 6 0 10 5 10 10 0 6 -4 10 -10 10 -5 0 -10 -4 -10 -10z M3560 440 c0 -7 3
-10 7 -7 3 4 3 10 0 14 -4 3 -7 0 -7 -7z M3430 345 c0 -3 2 -5 5 -5 3 0 5 2 5
5 0 3 -2 5 -5 5 -3 0 -5 -2 -5 -5z M415 140 c-3 -5 -2 -10 4 -10 5 0 13 5 16
10 3 6 2 10 -4 10 -5 0 -13 -4 -16 -10z M2815 75 c17 -7 32 -11 35 -9 7 8 -24
24 -45 23 -15 0 -13 -4 10 -14z"/>
</g>
</svg>
