<?xml version="1.0" encoding="utf-8"?>
<svg viewBox="0 0 602 602" xmlns="http://www.w3.org/2000/svg">
  <g transform="matrix(0.1, 0, 0, -0.1, 0, 602)" fill="#000000" stroke="none">
    <path d="M 4115 3539 C 4113 3554 1852 3626 1852 3581 C 1853 3536 1857 3500 1862 3500 C 1866 3500 1870 3494 1870 3486 C 1870 3478 1873 3470 1878 3467 C 1882 3465 1878 3466 1870 3468 C 1825 3484 1785 3475 1772 3446 C 1729 3359 1770 2975 1836 2849 C 1844 2833 1850 2801 1850 2776 C 1850 2715 1857 2702 1901 2680 C 1946 2656 1998 2654 2006 2675 C 2015 2698 1980 2891 1959 2936 C 1949 2958 1940 2982 1940 2988 C 1940 2995 1924 3000 1900 3000 C 1855 3000 1853 3003 1846 3075 C 1844 3103 1841 3128 1841 3133 C 1840 3137 1834 3140 1826 3140 C 1817 3140 1808 3162 1800 3205 C 1788 3270 1793 3340 1810 3340 C 1815 3340 1817 3346 1814 3354 C 1811 3362 1816 3377 1826 3388 C 1842 3407 1910 3332 1910 3286 C 1910 3268 1914 3250 1919 3244 C 1924 3239 1930 3202 1932 3163 C 1936 3078 1953 3070 1958 3151 C 1960 3183 1895.055 3580.933 1904.055 3591.933 C 1901.209 3607.788 3156.86 3579.215 4089.705 3548.21 C 4266.689 3542.328 3939.557 3522.11 4135 3464 C 4157.377 3457.347 4190 3444 4190 3422 C 4190 3413 4198 3398 4207 3387 C 4237 3354 4225 3192 4194 3204 C 4183 3208 4180 3197 4179 3152 C 4178 3054 4170 3039 4111 3014 C 4069 2997 4030 2962 4030 2943 C 4030 2926 4040 2927 4064 2945 C 4097 2970 4117 2964 4123 2928 C 4125 2910 4124 2887 4119 2878 C 4114 2869 4110 2852 4110 2841 C 4110 2829 4106 2820 4101 2820 C 4096 2820 4093 2812 4094 2803 C 4095 2791 4089 2786 4078 2788 C 4068 2790 4060 2786 4060 2781 C 4060 2775 4030 2770 3994 2768 C 3931 2765 3925 2763 3898 2729 C 3882 2709 3863 2671 3855 2644 C 3806 2467 3792 2414 3796 2409 C 3798 2405 3792 2381 3783 2354 C 3771 2319 3770 2305 3778 2302 C 3785 2300 3790 2289 3790 2279 C 3790 2268 3794 2261 3799 2265 C 3817 2276 3820 2252 3805 2204 C 3794 2168 3791 2101 3790 1952 C 3790 1840 3788 1744 3784 1739 C 3766 1709 3835 1539 3859 1555 C 3869 1561 3955 1461 3961 1467 C 3974 1480 3937 1551 3888 1608 L 3860 1641 L 3865 1833 C 3868 1939 3872 2088 3874 2164 C 3876 2241 3874 2315 3869 2328 C 3862 2345 3864 2367 3874 2399 C 3882 2424 3905 2508 3925 2585 C 3944 2662 3964 2728 3969 2733 C 3973 2737 3984 2730 3993 2716 C 4042 2642 4164 2700 4166 2799 C 4166 2849 4171 2869 4231 3059 C 4284 3227 4292 3353 4258 3450 C 4237 3508 4232 3515 4206 3518 C 4175 3522 4131 3504 4117 3482 C 4106 3465 4090 3476 4090 3502 C 4090 3515 4095 3520 4104 3517 C 4115 3513 4117 3518 4115 3539 Z M 4090 3469 C 4090 3464 4086 3460 4080 3460 C 4075 3460 4070 3467 4070 3476 C 4070 3484 4075 3488 4080 3485 C 4086 3482 4090 3475 4090 3469 Z M 1920 2930 C 1930 2925 1941 2907 1945 2890 C 1949 2874 1955 2860 1960 2860 C 1964 2860 1968 2840 1968 2815 C 1969 2786 1965 2770 1957 2770 C 1934 2770 1918 2788 1917 2814 C 1916 2828 1912 2840 1908 2840 C 1903 2840 1900 2847 1900 2855 C 1900 2863 1896 2870 1890 2870 C 1885 2870 1880 2886 1880 2905 C 1880 2941 1889 2947 1920 2930 Z M 3290 3473 C 3260 3457 3205 3395 3205 3395 L 3253 3424 C 3328 3467 3385 3479 3349 3443 C 3340 3434 3341 3423 3351 3398 C 3358 3380 3363 3357 3361 3346 C 3360 3335 3363 3330 3369 3335 C 3375 3338 3378 3345 3375 3350 C 3373 3354 3383 3363 3400 3370 C 3429 3382 3449 3427 3435 3450 C 3416 3480 3520 3449 3563 3412 C 3579 3398 3578 3395 3538 3368 C 3501 3343 3489 3340 3448 3345 C 3387 3352 3378 3325 3438 3315 C 3475 3309 3590 3346 3597 3367 C 3599 3372 3616 3374 3635 3372 C 3662 3369 3669 3371 3664 3381 C 3653 3408 3577 3461 3534 3471 C 3509 3477 3487 3486 3484 3491 C 3481 3496 3448 3500 3411 3500 C 3357 3500 3333 3495 3290 3473 Z M 3420 3465 C 3420 3462 3418 3460 3415 3460 C 3412 3460 3410 3462 3410 3465 C 3410 3468 3412 3470 3415 3470 C 3418 3470 3420 3468 3420 3465 Z M 3400 3420 C 3400 3415 3396 3410 3390 3410 C 3385 3410 3380 3415 3380 3420 C 3380 3426 3385 3430 3390 3430 C 3396 3430 3400 3426 3400 3420 Z M 3234 3476 C 3224 3468 3217 3459 3220 3457 C 3223 3454 3234 3458 3244 3466 C 3255 3473 3261 3482 3259 3485 C 3256 3488 3245 3483 3234 3476 Z M 2455 3464 C 2440 3456 2417 3448 2404 3446 C 2391 3443 2368 3433 2352 3422 C 2337 3411 2315 3400 2303 3396 C 2257 3381 2265 3334 2312 3344 C 2329 3347 2356 3344 2374 3336 C 2443 3306 2486 3299 2519 3313 C 2559 3330 2551 3338 2497 3334 C 2469 3331 2441 3337 2409 3352 L 2364 3374 L 2389 3396 C 2422 3423 2460 3443 2467 3436 C 2470 3434 2483 3435 2496 3440 C 2527 3452 2529 3433 2498 3420 C 2485 3415 2481 3411 2488 3411 C 2495 3410 2505 3399 2510 3385 C 2515 3371 2526 3359 2535 3359 C 2586 3355 2585 3354 2585 3397 C 2585 3435 2587 3439 2605 3434 C 2639 3423 2664 3411 2688 3394 C 2719 3371 2715 3392 2683 3421 C 2625 3473 2512 3494 2455 3464 Z M 2560 3400 C 2560 3395 2558 3390 2556 3390 C 2553 3390 2548 3395 2545 3400 C 2542 3406 2544 3410 2549 3410 C 2555 3410 2560 3406 2560 3400 Z M 2670 3465 C 2670 3462 2672 3460 2675 3460 C 2678 3460 2680 3462 2680 3465 C 2680 3468 2678 3470 2675 3470 C 2672 3470 2670 3468 2670 3465 Z M 2695 3450 C 2698 3445 2703 3440 2706 3440 C 2709 3440 2708 3445 2705 3450 C 2702 3456 2697 3460 2694 3460 C 2691 3460 2692 3456 2695 3450 Z M 2610 3405 C 2610 3402 2612 3400 2615 3400 C 2618 3400 2620 3402 2620 3405 C 2620 3408 2618 3410 2615 3410 C 2612 3410 2610 3408 2610 3405 Z M 2863 3383 C 2867 3380 2873 3380 2877 3383 C 2880 3387 2877 3390 2870 3390 C 2863 3390 2860 3387 2863 3383 Z M 4180 3385 C 4180 3382 4182 3380 4185 3380 C 4188 3380 4190 3382 4190 3385 C 4190 3388 4188 3390 4185 3390 C 4182 3390 4180 3388 4180 3385 Z M 3168 3373 C 3174 3371 3186 3371 3193 3373 C 3199 3376 3194 3378 3180 3378 C 3166 3378 3161 3376 3168 3373 Z M 2726 3351 C 2709 3332 2709 3332 2729 3337 C 2741 3340 2750 3349 2750 3356 C 2750 3374 2746 3374 2726 3351 Z M 3080 3360 C 3080 3353 3083 3350 3087 3353 C 3090 3357 3090 3363 3087 3367 C 3083 3370 3080 3367 3080 3360 Z M 2575 3340 C 2572 3335 2576 3330 2584 3330 C 2593 3330 2600 3335 2600 3340 C 2600 3346 2596 3350 2591 3350 C 2585 3350 2578 3346 2575 3340 Z M 2841 3336 C 2833 3326 2832 3320 2840 3315 C 2845 3312 2853 3316 2856 3325 C 2865 3347 2855 3354 2841 3336 Z M 3072 3301 C 3057 3251 3057 3245 3076 3226 C 3106 3195 3119 3233 3104 3309 C 3095 3350 3086 3348 3072 3301 Z M 4160 3265 C 4160 3251 4165 3240 4170 3240 C 4176 3240 4180 3251 4180 3265 C 4180 3279 4176 3290 4170 3290 C 4165 3290 4160 3279 4160 3265 Z M 3108 3112 C 3098 3110 3090 3106 3090 3102 C 3090 3087 3115 3030 3122 3030 C 3126 3030 3130 3021 3130 3010 C 3130 3000 3143 2976 3159 2958 C 3175 2940 3197 2908 3208 2887 C 3228 2849 3243 2849 3236 2886 C 3234 2897 3216 2932 3197 2965 C 3178 2998 3159 3040 3155 3059 C 3146 3100 3131 3117 3108 3112 Z M 2750 2985 C 2750 2982 2752 2980 2755 2980 C 2758 2980 2760 2982 2760 2985 C 2760 2988 2758 2990 2755 2990 C 2752 2990 2750 2988 2750 2985 Z M 2711 2934 C 2711 2923 2714 2920 2717 2928 C 2720 2935 2719 2944 2716 2947 C 2713 2951 2710 2945 2711 2934 Z M 2800 2851 C 2800 2837 2841 2810 2862 2810 C 2889 2810 2883 2828 2850 2845 C 2817 2862 2800 2864 2800 2851 Z M 3094 2845 C 3057 2830 3045 2814 3063 2807 C 3079 2801 3140 2828 3140 2841 C 3140 2857 3124 2858 3094 2845 Z M 2107 2703 C 2104 2698 2099 2680 2095 2662 C 2091 2644 2082 2626 2076 2624 C 2046 2613 2088 2412 2140 2312 C 2212 2174 2216 2168 2231 2187 C 2243 2201 2243 2203 2231 2195 C 2220 2189 2218 2191 2223 2203 C 2226 2212 2225 2222 2219 2226 C 2213 2229 2211 2238 2214 2246 C 2221 2263 2201 2371 2189 2386 C 2184 2392 2176 2431 2170 2472 C 2164 2514 2155 2563 2150 2581 C 2144 2600 2140 2636 2140 2662 C 2140 2697 2136 2710 2126 2710 C 2118 2710 2109 2707 2107 2703 Z M 3335 2529 C 3302 2518 3241 2507 3200 2504 C 3159 2502 3109 2497 3090 2493 C 3071 2490 3033 2486 3005 2485 C 2978 2484 2947 2480 2938 2476 C 2929 2472 2916 2471 2910 2475 C 2904 2478 2840 2486 2767 2491 C 2525 2509 2504 2503 2576 2431 C 2619 2389 2712 2348 2728 2364 C 2739 2376 2718 2400 2697 2400 C 2669 2400 2645 2424 2655 2440 C 2659 2447 2730 2450 2868 2449 C 2988 2448 3102 2452 3140 2458 C 3176 2465 3227 2470 3254 2470 L 3303 2470 L 3280 2445 C 3267 2431 3251 2420 3244 2420 C 3237 2420 3226 2410 3219 2399 C 3208 2378 3209 2377 3241 2384 C 3275 2391 3291 2405 3284 2424 C 3282 2430 3291 2436 3304 2436 C 3336 2438 3430 2510 3430 2532 C 3430 2554 3413 2554 3335 2529 Z M 2089 2018 C 2088 1785 2146 1620 2151 1626 C 2156 1632 2160 1731 2161 1847 C 2163 2099 2168 2114 2226 2051 C 2277 1993 2281 2008 2231 2071 C 2208 2100 2170 2163 2147 2211 C 2124 2259 2102 2299 2098 2299 C 2093 2300 2090 2173 2089 2018 Z M 2180 2115 C 2180 2112 2178 2110 2175 2110 C 2172 2110 2170 2112 2170 2115 C 2170 2118 2172 2120 2175 2120 C 2178 2120 2180 2118 2180 2115 Z M 2230 2165 C 2230 2162 2232 2160 2235 2160 C 2238 2160 2240 2162 2240 2165 C 2240 2168 2238 2170 2235 2170 C 2232 2170 2230 2168 2230 2165 Z M 2170 2055 C 2170 2052 2172 2050 2175 2050 C 2178 2050 2180 2052 2180 2055 C 2180 2058 2178 2060 2175 2060 C 2172 2060 2170 2058 2170 2055 Z M 3640 1990 C 3640 1983 3643 1980 3647 1983 C 3650 1987 3650 1993 3647 1997 C 3643 2000 3640 1997 3640 1990 Z M 3585 1957 C 3563 1945 3538 1927 3529 1918 C 3520 1908 3509 1900 3505 1900 C 3501 1900 3481 1887 3461 1871 C 3441 1855 3403 1833 3375 1821 C 3348 1809 3308 1790 3287 1780 C 3265 1769 3239 1760 3228 1760 C 3218 1760 3201 1756 3192 1751 C 3176 1742 2986 1716 2950 1717 C 2905 1719 2734 1743 2725 1749 C 2720 1753 2697 1762 2675 1769 C 2653 1777 2616 1795 2594 1810 C 2571 1825 2536 1843 2517 1849 C 2497 1856 2464 1870 2443 1880 C 2422 1890 2404 1897 2402 1895 C 2393 1887 2427 1850 2458 1836 C 2476 1827 2517 1803 2548 1782 C 2784 1626 3051 1599 3281 1708 C 3327 1730 3376 1752 3390 1756 C 3404 1759 3417 1766 3420 1770 C 3423 1774 3448 1794 3475 1814 C 3534 1858 3630 1955 3630 1970 C 3630 1975 3629 1980 3628 1979 C 3626 1979 3607 1969 3585 1957 Z" style="fill: rgb(212, 136, 124);"/>
    <rect x="1909.023" y="-3665.32" width="2194.421" height="135.31" style="fill: rgb(255, 255, 255); stroke: rgb(255, 255, 255);" transform="matrix(1, 0, 0, -1, 0, 0)" rx="16.097" ry="16.097"/>
  </g>
</svg>