<?xml version="1.0" encoding="utf-8"?>
<svg viewBox="0 0 500 500" xmlns="http://www.w3.org/2000/svg">
  <g transform="matrix(0.062667, 0, 0, -0.062667, 48.64748, 400.748077)" fill="#000000" stroke="none" style="">
    <path d="M 3860 1641 C 3860 1641 3835 1539 3859 1555 C 3869 1561 3925 1430 3940 1368 C 3960 1281 3943 1103 3901 963 L 3882 900 L 3903 900 C 3921 900 3922 902 3910 910 C 3898 917 3897 923 3906 938 C 3918 956 3935 1020 3932 1032 C 3931 1036 3937 1068 3945 1102 C 3959 1167 3971 1467 3958 1447 C 3953 1440 3950 1439 3950 1445 C 3950 1451 3955 1461 3961 1467 C 3974 1480 3937 1551 3888 1608 L 3860 1641 Z M 2086 1539 C 2105 1523 2078 1526 2072 1578 C 2069 1600 2053 1590 2025 1549 C 2003 1515 2000 1504 2009 1486 C 2018 1468 2048 1275 2067 1109 C 2070 1081 2082 1052 2095 1036 C 2108 1021 2121 991 2125 969 C 2129 948 2136 932 2141 936 C 2152 943 2153 919 2141 902 C 2131 885 2164 817 2203 776 C 2225 753 2229 745 2218 738 C 2209 731 2211 730 2226 733 C 2243 737 2247 733 2244 716 C 2242 705 2242 701 2246 707 C 2251 719 2300 672 2300 655 C 2300 639 2336 604 2349 608 C 2359 611 2361 608 2357 597 C 2353 587 2356 583 2363 585 C 2370 588 2384 572 2394 550 C 2405 528 2419 510 2426 510 C 2433 510 2451 497 2467 481 C 2483 466 2505 450 2515 446 C 2526 443 2548 429 2564 415 C 2580 401 2598 390 2603 390 C 2609 390 2628 379 2646 365 C 2664 351 2682 340 2685 340 C 2689 340 2711 327 2735 310 C 2759 294 2783 280 2789 280 C 2795 280 2800 274 2800 268 C 2800 259 2804 260 2810 270 C 2816 279 2820 280 2820 273 C 2820 254 2912 208 2960 204 C 2985 202 3023 197 3046 194 C 3071 190 3096 193 3110 200 C 3123 207 3147 214 3162 215 C 3206 219 3280 242 3280 251 C 3280 256 3288 260 3298 260 C 3323 260 3385 300 3410 332 C 3424 351 3441 360 3460 360 C 3482 360 3489 365 3492 382 C 3494 395 3507 411 3523 418 C 3538 425 3550 437 3550 444 C 3550 452 3571 464 3596 471 C 3622 479 3645 492 3647 500 C 3655 526 3667 545 3676 545 C 3693 545 3710 561 3710 577 C 3710 595 3758 640 3778 640 C 3785 640 3790 653 3790 670 C 3790 687 3795 700 3801 700 C 3824 700 3880 784 3880 819 C 3880 829 3889 840 3900 843 C 3911 846 3920 854 3920 862 C 3920 872 3917 871 3910 860 C 3902 847 3900 848 3900 863 C 3900 893 3877 877 3850 829 C 3794 728 3635 562 3498 463 C 3454 431 3387 380 3349 349 C 3286 297 3272 290 3176 266 C 3017 227 2958 234 2861 303 C 2836 322 2752 368 2676 406 C 2511 488 2429 554 2284 725 C 2147 885 2057 1165 2057 1425 C 2057 1523 2066 1556 2086 1539 Z M 2160 905 C 2160 902 2158 900 2155 900 C 2152 900 2150 902 2150 905 C 2150 908 2152 910 2155 910 C 2158 910 2160 908 2160 905 Z M 2170 865 C 2170 862 2168 860 2165 860 C 2162 860 2160 862 2160 865 C 2160 868 2162 870 2165 870 C 2168 870 2170 868 2170 865 Z M 3960 1556 C 3960 1530 4081 1373 4109 1362 C 4118 1359 4137 1348 4153 1338 C 4168 1327 4180 1321 4180 1325 C 4180 1328 4192 1319 4207 1305 C 4222 1291 4246 1280 4259 1280 C 4283 1280 4303 1272 4437 1209 C 4472 1193 4504 1180 4509 1180 C 4514 1180 4520 1176 4522 1170 C 4524 1165 4534 1159 4545 1157 C 4564 1153 4603 1139 4645 1121 C 4656 1116 4711 1100 4767 1086 C 4823 1071 4886 1052 4907 1044 C 4945 1029 4957 1023 5100 956 C 5141 936 5198 916 5225 910 C 5253 904 5287 890 5302 880 C 5317 869 5338 860 5350 860 C 5361 860 5370 856 5370 850 C 5370 845 5378 840 5388 840 C 5409 840 5481 806 5558 761 C 5587 744 5618 730 5627 730 C 5655 730 5760 668 5805 625 C 5829 601 5852 585 5856 589 C 5860 592 5860 590 5857 584 C 5854 578 5864 559 5880 541 C 5897 523 5910 506 5910 502 C 5910 498 5935 483 5965 469 C 6019 444 6020 444 6020 464 C 6020 506 5940 640 5897 672 C 5835 717 5365 944 5261 979 C 5212 996 5109 1040 5033 1078 C 4896 1147 4722 1220 4697 1220 C 4690 1220 4674 1211 4662 1200 C 4650 1188 4640 1184 4640 1190 C 4640 1195 4633 1200 4625 1200 C 4617 1200 4599 1211 4585 1225 C 4571 1239 4560 1248 4560 1244 C 4560 1240 4552 1244 4543 1252 C 4523 1268 4470 1293 4430 1305 C 4416 1309 4366 1332 4319 1356 C 4229 1402 4214 1407 4226 1388 C 4236 1373 4223 1381 4110 1463 C 4018 1529 3960 1566 3960 1556 Z M 4714 1195 C 4725 1187 4729 1180 4724 1180 C 4718 1180 4705 1187 4694 1195 C 4684 1203 4680 1209 4685 1209 C 4691 1209 4704 1203 4714 1195 Z M 4675 1180 C 4678 1175 4679 1170 4676 1170 C 4673 1170 4668 1175 4665 1180 C 4662 1186 4661 1190 4664 1190 C 4667 1190 4672 1186 4675 1180 Z M 1916 1489 C 1884 1462 1852 1441 1846 1443 C 1840 1445 1809 1434 1777 1418 C 1718 1389 1660 1325 1660 1289 C 1660 1279 1651 1266 1640 1260 C 1596 1236 1624 1233 1675 1256 C 1706 1269 1737 1280 1745 1280 C 1753 1280 1766 1293 1776 1309 C 1792 1336 1850 1370 1882 1370 C 1921 1370 1990 1466 1990 1520 C 1990 1549 1982 1545 1916 1489 Z M 1590 1335 C 1560 1315 1524 1297 1510 1294 C 1442 1281 1377 1252 1293 1197 C 1242 1164 1200 1133 1200 1128 C 1200 1124 1178 1120 1150 1120 C 1118 1120 1080 1111 1043 1094 C 1011 1080 954 1059 917 1049 C 880 1038 826 1016 797 1000 C 768 984 720 966 690 959 C 584 937 510 909 492 883 C 483 870 457 842 435 822 C 413 802 380 769 360 749 C 324 712 228 640 215 640 C 211 640 215 651 224 665 C 249 702 230 696 154 639 C 116 611 69 580 49 569 C 10 550 -10 520 15 520 C 23 520 30 526 30 533 C 30 541 33 541 39 531 C 44 523 46 510 43 501 C 39 492 49 496 67 513 C 96 540 124 548 135 531 C 138 525 150 526 163 534 C 222 567 250 586 250 593 C 250 597 257 600 265 600 C 274 600 303 615 329 632 C 356 650 397 676 420 690 C 443 704 476 727 493 743 C 510 758 539 775 557 782 C 592 795 601 810 574 810 C 561 810 560 813 569 824 C 578 835 578 839 568 842 C 542 851 640 890 722 904 C 796 916 841 932 920 975 C 934 982 965 997 990 1007 C 1015 1017 1063 1044 1097 1068 C 1163 1112 1183 1120 1174 1095 C 1170 1087 1162 1080 1154 1080 C 1146 1080 1140 1075 1140 1068 C 1140 1062 1133 1048 1123 1038 C 1109 1022 1109 1020 1122 1020 C 1163 1020 1200 1034 1200 1049 C 1200 1062 1202 1062 1209 1052 C 1216 1041 1222 1043 1242 1062 C 1291 1108 1331 1134 1345 1127 C 1347 1126 1357 1135 1365 1148 C 1374 1160 1388 1170 1396 1170 C 1403 1170 1427 1186 1449 1205 C 1492 1244 1500 1247 1500 1225 C 1500 1195 1531 1211 1600 1278 C 1699 1373 1694 1402 1590 1335 Z M 4610 1235 C 4610 1232 4612 1230 4615 1230 C 4618 1230 4620 1232 4620 1235 C 4620 1238 4618 1240 4615 1240 C 4612 1240 4610 1238 4610 1235 Z M 4650 1220 C 4641 1214 4640 1210 4647 1210 C 4653 1210 4662 1215 4665 1220 C 4673 1232 4669 1232 4650 1220 Z M 1110 1005 C 1110 1002 1112 1000 1115 1000 C 1118 1000 1120 1002 1120 1005 C 1120 1008 1118 1010 1115 1010 C 1112 1010 1110 1008 1110 1005 Z M 2250 680 C 2250 675 2255 670 2260 670 C 2266 670 2270 675 2270 680 C 2270 686 2266 690 2260 690 C 2255 690 2250 686 2250 680 Z M 3560 440 C 3560 433 3563 430 3567 433 C 3570 437 3570 443 3567 447 C 3563 450 3560 447 3560 440 Z M 3430 345 C 3430 342 3432 340 3435 340 C 3438 340 3440 342 3440 345 C 3440 348 3438 350 3435 350 C 3432 350 3430 348 3430 345 Z" style="fill: rgb(0, 163, 251);"/>
  </g>
</svg>