<svg xmlns="http://www.w3.org/2000/svg" width="250" height="160"><path d="M16.866 115.541L4.648 101.745l36.215-40.89 36.214-40.891L89.35 33.82l12.275 13.858-36.16 40.83c-19.889 22.455-36.211 40.829-36.272 40.829-.061 0-5.609-6.209-12.328-13.797zm98.629-29.522v-27.7l16.897-19.185 16.896-19.185 12.313 13.75 12.313 13.751-29.02 33.052c-15.962 18.178-29.107 33.088-29.21 33.134-.105.046-.19-12.31-.19-27.617zM89.35 131.263L77.189 117.53V91.18l12.218-13.794 12.219-13.795v40.704c0 22.387-.025 40.704-.056 40.704-.03 0-5.529-6.18-12.218-13.735zm72.211 0l-12.163-13.734v-26.35l12.219-13.794 12.219-13.795v40.704c0 22.387-.026 40.704-.056 40.704-.031 0-5.53-6.18-12.219-13.735zm26.144-40.943c0-12.95-.064-25.38-.142-27.624l-.142-4.079 16.912-19.265c9.302-10.595 16.97-19.286 17.04-19.313.069-.027 5.66 6.13 12.424 13.683l12.298 13.732-16.03 18.259a31992.527 31992.527 0 01-29.194 33.206l-13.166 14.946z" fill="#ff7a57"/></svg>