<svg viewBox="0 31.84 494.553 430.043" xmlns="http://www.w3.org/2000/svg"><path d="M249.215 34.41c-1.304.489-7.584 1.468-13.863 2.365-6.28.815-12.07 1.712-12.804 2.038-.897.327-1.468.245-1.468-.244 0-.571-1.141-.49-3.343.244-2.936 1.06-3.262 1.06-2.855 0 .245-.652.245-1.223 0-1.223-1.06 0-5.219 2.854-5.219 3.507 0 .408-.57.49-1.223.245-.816-.327-1.55.163-1.957 1.304-.571 1.55-.653 1.55-1.142.327-.326-.816-.408-1.795-.082-2.202.245-.408.082-1.305-.326-2.04-1.06-1.956-5.22 1.877-8.481 7.911-1.468 2.61-3.099 4.812-3.67 4.812-.57 0-1.06.57-1.06 1.305 0 .815-.49 1.141-1.223.815-.734-.244-1.224 0-1.224.653 0 .57-.489 1.55-1.141 2.038-.897.734-1.224.571-1.631-1.06-.408-1.794.815-6.85 1.875-7.829.816-.652 2.528-5.953 2.12-6.442-.244-.245-.978.408-1.712 1.386-.652.979-1.712 1.794-2.365 1.794-1.06 0-5.3 7.83-5.3 9.705 0 .49-.327.897-.816.897-.734 0-1.142-1.876-1.06-4.73.081-1.794-1.305-1.06-1.876 1.06-.326 1.223-1.305 2.284-2.365 2.528-1.468.408-1.957 1.223-2.365 4.404-.57 4.485-1.55 5.545-3.507 3.914-.978-.734-1.223-.734-.734-.081.327.652.163 1.06-.326 1.06-.57 0-.815.57-.49 1.386.327.897-.162.653-1.14-.57-.898-1.142-1.632-2.447-1.632-3.018 0-2.365-2.528.245-2.936 3.1-.326 1.956-.978 3.18-1.712 3.18-.816 0-.979.57-.653 1.794.408 1.468.082 1.223-1.386-.734-3.017-4.24-3.507-3.1-.734 1.794 2.773 4.893 2.773 8.807 0 5.22-1.468-1.958-1.55-1.958-1.55-.164 0 1.957 3.67 6.769 5.22 6.769 1.06 0 3.751 2.528 3.751 3.425 0 .245-.734.652-1.63.897-1.143.326-1.632 0-1.632-1.06 0-1.876-2.12-3.67-2.854-2.447-.245.408.081 1.06.734 1.305.734.245 1.305.816 1.305 1.223 0 .979-3.018.897-3.67-.081-.326-.49-.816-.653-1.224-.408-.407.245-1.06-.245-1.549-.979-.408-.815-1.06-1.223-1.305-.897-.326.327 0 1.387.734 2.447.734.978 1.305 2.61 1.305 3.588 0 .979 1.06 2.854 2.447 4.078 1.712 1.63 2.12 2.528 1.386 2.935-.734.49-.734.653 0 .653 1.468 0 .408 4.73-1.713 7.584-.978 1.305-1.712 3.833-1.875 6.116-.082 2.12-.408 5.627-.653 7.91-.326 2.203-.652 12.886-.734 23.65-.163 11.826-.57 20.47-1.141 21.693-.49 1.224-.653 2.365-.49 2.61.245.245.49 3.343.49 7.013.081 3.67.407 6.606.815 6.606.326 0 .652.49.652 1.142 0 .652.245 1.304.653 1.55.326.162 0 .08-.653-.082-3.67-1.305-6.931-.571-7.992 1.794-3.506 7.095-.163 38.41 5.22 48.686.652 1.304 1.141 3.914 1.141 5.953 0 4.974.571 6.035 4.16 7.829 3.67 1.957 7.91 2.12 8.562.407.734-1.875-2.12-17.615-3.832-21.284-.816-1.794-1.55-3.752-1.55-4.241 0-.57-1.305-.979-3.262-.979-3.67 0-3.833-.244-4.404-6.116-.163-2.283-.407-4.322-.407-4.73-.082-.326-.571-.57-1.224-.57-.734 0-1.468-1.795-2.12-5.302-.979-5.3-.57-11.009.815-11.009.408 0 .571-.49.327-1.142-.245-.652.163-1.875.978-2.772 1.305-1.55 1.55-1.55 3.262-.49 2.12 1.387 3.589 5.056 3.589 8.808 0 1.468.326 2.936.733 3.425.408.408.898 3.425 1.06 6.606.327 6.931 1.713 7.584 2.121.978.163-2.61.815-4.974 1.55-5.871 1.06-1.142 1.549-4.812 2.283-18.513.815-15.657.978-17.288 2.691-19.327 4.322-5.382 4.567-6.116 5.3-14.435.735-8.807 1.387-24.302 1.469-35.474.081-7.177 1.63-12.478 4.404-14.761.978-.816 3.506-1.223 8.073-1.305 7.421-.081 11.907-.734 15.74-2.446 1.386-.653 3.18-1.142 4.077-1.142.815 0 2.202-.49 3.099-1.06 2.854-1.958 10.846-3.1 14.353-2.12 1.712.57 3.996.652 5.382.326l2.284-.653-2.04-.57c-2.038-.653-2.038-.653.327-.735 1.305-.081 4.322.571 6.687 1.305 3.752 1.142 4.812 1.223 7.666.245 2.528-.816 3.751-.897 5.3-.163 2.447 1.141 10.929 1.223 15.332.244 2.202-.489 4.323-.407 7.34.49 2.284.734 4.812 1.468 5.464 1.63.897.245.897.49.163.98-.652.407.653 2.12 4.24 5.545 4.975 4.567 8.237 6.28 7.259 3.751-.245-.652.163-1.06 1.305-1.06.978 0 1.712.326 1.712.815 0 .408 1.957 2.773 4.322 5.301 4.893 4.975 10.031 14.435 10.847 19.736.57 3.751 1.386 4.24 4.24 2.202 1.958-1.387 2.202-.898 1.794 3.506-.081 1.713 2.04 12.151 4.241 20.225.408 1.794 1.468 4.159 2.284 5.3 2.038 2.937 3.343 9.216 3.343 15.822-.081 7.013 1.468 20.714 2.528 22.752 1.468 2.855 3.262 1.06 5.22-5.3 2.12-6.688 4.566-10.357 7.257-10.765 1.876-.326 4.486 1.63 4.486 3.425 0 .734.652 1.957 1.386 2.854 2.447 2.691 1.468 15.903-1.06 14.924-.897-.326-1.142.57-1.223 4.24-.082 7.993-.734 9.216-5.546 11.255-3.425 1.386-6.605 4.24-6.605 5.79 0 1.386.815 1.305 2.772-.163 2.692-2.04 4.323-1.55 4.812 1.386.163 1.468.081 3.344-.326 4.078-.408.734-.734 2.12-.734 3.017 0 .979-.326 1.713-.734 1.713s-.653.652-.571 1.386c.081.979-.408 1.386-1.305 1.223-.815-.163-1.468.163-1.468.571 0 .49-2.446.897-5.382 1.06-5.138.245-5.627.408-7.83 3.18-1.304 1.632-2.853 4.73-3.506 6.933-3.996 14.434-5.137 18.756-4.811 19.164.163.326-.326 2.283-1.06 4.485-.98 2.855-1.06 3.996-.408 4.241.57.163.978 1.06.978 1.876 0 .897.327 1.468.734 1.141 1.468-.897 1.713 1.06.49 4.975-.897 2.936-1.142 8.4-1.224 20.55 0 9.135-.163 16.963-.489 17.371-1.468 2.447 4.16 16.31 6.116 15.006.816-.49 5.383 10.193 6.606 15.25 1.631 7.095.245 21.61-3.18 33.028l-1.55 5.138h1.713c1.468 0 1.55-.164.57-.816-.978-.57-1.06-1.06-.326-2.283.979-1.468 2.365-6.688 2.12-7.666-.08-.326.408-2.936 1.06-5.709 1.143-5.3 2.121-29.766 1.061-28.135-.408.571-.652.653-.652.163s.407-1.305.897-1.794c1.06-1.06-1.958-6.85-5.954-11.499l-2.283-2.69.408-15.659c.244-8.644.57-20.795.734-26.993.163-6.28 0-12.314-.408-13.374-.57-1.387-.408-3.18.408-5.79.652-2.04 2.528-8.89 4.159-15.169 1.55-6.28 3.18-11.662 3.588-12.07.326-.326 1.223.245 1.957 1.387 3.996 6.035 13.945 1.305 14.109-6.769 0-4.077.407-5.708 5.3-21.203 4.323-13.7 4.975-23.976 2.202-31.887-1.712-4.73-2.12-5.3-4.24-5.545-2.528-.326-6.117 1.142-7.258 2.936-.897 1.386-2.202.49-2.202-1.631 0-1.06.407-1.468 1.141-1.223.897.326 1.06-.082.897-1.795-.163-1.223-.489-11.743-.733-23.405-.245-11.58-.49-21.285-.49-21.53-.408-4.24-.244-13.047.163-13.047.327 0 1.305 1.386 2.202 3.017l1.631 3.099.082-3.099c0-1.713-.326-4.648-.816-6.524-.408-1.876-1.141-7.095-1.468-11.58-.489-6.035-1.223-9.216-2.69-12.07-2.61-5.22-11.581-17.615-16.8-23.405-2.365-2.528-4.323-5.382-4.323-6.198 0-1.794-3.425-6.85-5.382-7.91-.652-.408-3.833-1.55-7.095-2.691-3.18-1.06-7.176-2.936-8.807-3.996-3.426-2.447-14.598-7.258-18.676-8.156-1.549-.326-5.627-1.467-8.97-2.446-7.666-2.365-12.722-2.936-15.903-1.957zm-46.076 5.219c0 .245-.163.408-.408.408-.244 0-.407-.163-.407-.408 0-.245.163-.408.407-.408.245 0 .408.163.408.408zm61.245 1.957c3.507.49 7.91 1.55 9.786 2.447 1.957.978 5.138 2.038 7.013 2.528 2.936.734 6.524 3.017 5.79 3.67-.163.163-4.403-.408-9.378-1.305-6.85-1.142-9.623-1.957-10.928-3.262-1.141-1.142-2.12-1.468-3.017-1.06-.734.407-3.425.57-5.872.489-2.446-.082-9.949-.326-16.718-.571-6.687-.163-12.395-.408-12.559-.408-.163 0-.163-.163.082-.407.245-.245 4.567-.816 9.541-1.224 4.975-.408 9.705-1.141 10.439-1.63 1.55-.898 5.056-.735 15.82.733zm-64.589 3.1c-.815 1.712-1.549 3.506-1.549 4.158 0 .571-.326.816-.815.571-.816-.49.733-4.322 2.61-6.769 1.467-1.712 1.386-1.06-.246 2.04zm2.529-.164c-.571.652-.734 1.223-.49 1.223.326 0 .163.734-.326 1.631-.49.897-1.305 1.631-1.794 1.631-.734 0-.734-.244 0-.978.57-.571.979-1.468.979-2.04 0-1.222 1.794-3.506 2.365-3.016.163.163-.164.815-.734 1.549zm6.524-1.713c0 .245-.408.653-.979.98-.57.325-.652.244-.326-.327.57-.979 1.305-1.305 1.305-.653zm18.186 1.876c-.571.163-1.713.163-2.447 0-.816-.245-.326-.408.979-.408 1.386 0 1.957.163 1.468.408zm-20.633.653c0 .244-.163.407-.408.407-.244 0-.407-.163-.407-.407 0-.245.163-.408.407-.408.245 0 .408.163.408.408zm2.447 0c0 .244-.163.407-.408.407-.245 0-.408-.163-.408-.407 0-.245.163-.408.408-.408.245 0 .408.163.408.408zm32.946.163c4.975.407 5.464.652 4.16 1.63-.898.572-3.018 1.06-4.812 1.06-2.365 0-3.018-.244-2.202-.733 1.223-.816.326-1.142-4.812-1.957l-2.038-.327 2.038-.163c1.142 0 4.567.163 7.666.49zm-38.084 1.63c-.326.245-.57 0-.57-.57 0-.571.244-.816.57-.571a.98.98 0 010 1.142zm28.787 1.876c5.709 1.958 6.85 1.958 14.027 0 7.258-1.957 9.705-2.038 18.594-.163 6.198 1.387 15.087 4.893 12.396 5.056-.571 0-2.12-.57-3.344-1.141-1.223-.653-4.24-1.468-6.687-1.713l-4.404-.49 6.116 1.795c3.344.979 7.258 1.794 8.563 1.794 11.336 0 29.766 5.627 29.766 9.052 0 .49 2.447 3.262 5.464 6.198 11.662 11.336 13.293 13.048 13.293 14.027-.081.57-1.386-.408-2.936-2.202-1.63-1.794-3.343-3.344-3.833-3.344-.57-.081-1.468-.163-2.038-.244-.571 0-.897-.408-.653-.816.653-.978-5.138-7.42-6.524-7.42-.652 0-1.142-.327-1.142-.735 0-1.06-3.506-1.794-4.403-.897-1.142 1.142-3.262.979-5.954-.326-5.627-2.773-12.395-5.464-15.739-6.198-5.627-1.223-14.842-.979-16.636.408-.897.652-2.447 1.223-3.425 1.223-1.06 0-2.04.326-2.284.734-.57.897 2.284 1.713 6.035 1.713 3.017 0 9.297 2.69 8.4 3.588-.408.408 2.12 2.854 4.893 4.648.489.326.489 1.387.081 2.691l-.734 2.12-2.61-1.793c-1.467-1.06-2.854-2.529-3.18-3.262-.978-3.181-2.691-3.915-8.97-3.915-4.649 0-6.198.326-6.525 1.223-.326.653-1.06 1.224-1.712 1.224-.653 0-.897.326-.653.815.816 1.305-.57.979-2.201-.57-1.305-1.224-1.713-1.224-4.486 0-1.712.652-4.159 1.467-5.545 1.712-2.365.49-2.365.49-.816-.816 1.794-1.386 2.284-1.386-4.811.082-1.142.245-2.936 0-4.078-.571-1.712-.734-2.69-.652-5.3.49-2.692 1.223-3.426 1.304-4.975.326-1.468-.816-1.957-.816-2.202-.082-.245.57-1.386 1.06-2.528 1.142h-2.202l2.039.897c1.141.489 3.18 1.386 4.648 1.957 3.588 1.631 5.79 1.386 11.662-.979 3.588-1.468 5.382-1.794 5.953-1.223.49.49 2.284.897 3.996.897 2.447 0 2.936-.245 2.528-1.305-.407-1.223.326-1.304 7.177-.734 7.992.571 11.743 1.958 5.953 2.12-2.528.164-2.12.327 2.12.898 7.992 1.141 9.052 1.468 8.563 2.283-.244.49.163.816.979.816.897 0 1.957.407 2.446.897.571.57 1.631.734 2.447.408 1.386-.571 1.386-.653.081-1.387-.815-.49-1.468-1.142-1.468-1.55 0-1.386 11.907 5.465 15.414 8.89 2.365 2.446 3.751 3.262 4.322 2.69 1.06-1.06 4.974 1.224 4.24 2.366-.244.408.082.734.734.734.653 0 2.692 1.63 4.567 3.67 1.794 1.957 3.344 3.18 3.344 2.69 0-1.549-13.945-14.923-16.881-16.228-1.468-.57-2.691-1.386-2.691-1.794 0-.326-1.305-1.223-2.855-1.957-3.588-1.713-3.67-2.691-.081-2.691 3.099 0 4.567 1.223 2.365 1.957-.816.245-.408.326.978.163 2.447-.326 9.379 2.773 13.375 5.872 1.223.978 2.69 1.386 4.077 1.141 1.876-.407 1.468-.734-3.588-3.099-3.18-1.549-5.3-2.772-4.73-2.772 2.284 0-.163-3.1-3.262-4.078-3.017-.897-3.262-1.06-1.876-2.039 1.631-1.223 4.975-.57 8.4 1.794 1.305.898 4.649 2.61 7.503 3.752 5.22 2.283 7.34 3.588 13.048 8.481 1.713 1.468 3.425 2.365 3.751 2.039.408-.326.327-.082 0 .57-.489.898-.326 1.06.734.653.816-.326 1.224-.244.897.245-.244.49-.163.815.327.815.489 0 1.304.816 1.794 1.794.734 1.55.734 1.713-.163.816-2.202-2.039-2.12-.816.244 3.507 1.305 2.446 2.039 4.485 1.55 4.485-1.305 0-1.06 1.305.407 2.773 1.795 1.875 1.06 6.198-1.957 10.683-1.386 2.12-2.283 4.322-2.039 4.975.245.57-.081 1.304-.652 1.549-.815.326-1.142 1.713-.979 4.485 0 2.284-.244 4.322-.652 4.567-.652.408-.897-.57-1.142-5.953 0-.979-.407-2.12-.815-2.447-.326-.326-.408-.244-.163.245.489.897-1.55 2.365-2.855 2.12-.407-.081-.652.245-.652.734 0 .49-.49.734-1.142.49-.734-.327-1.305.244-1.63 1.55-1.06 3.914-2.692 1.712-2.284-3.181.081-.734-.163-1.387-.571-1.387-.408 0-1.223-1.386-1.713-3.099-1.304-4.077-8.318-18.104-9.133-18.104-.326 0-.653.326-.653.815 0 1.468-1.55.816-2.038-.815-.816-2.528-6.606-8.155-8.4-8.155-.816 0-1.876.815-2.284 1.712-.815 1.713-.897 1.631-4.73-1.63-5.137-4.486-7.584-5.628-13.13-6.28-3.914-.49-4.566-.816-4.24-2.039.245-.978-.163-1.55-1.386-1.794-.897-.245 1.386-.245 5.219-.081 6.932.326 6.932.326 4.077-.98-2.12-.978-4.24-1.222-8.562-.896-5.138.49-6.035.326-9.297-1.631-3.67-2.12-4.486-2.12-10.683.326-1.06.408-1.06.326-.163-.815.897-1.06.815-1.305-.408-1.713-3.915-1.142-14.924-.082-14.924 1.468 0 1.142 6.035 4.811 6.769 4.077.244-.244.652-.081.897.327.897 1.468-8.808 1.794-16.963.57-4.485-.652-8.155-1.223-8.237-1.223-.652 0-.897-3.262-.244-3.914.408-.408.244-1.06-.408-1.713-.897-.734-1.957-.57-4.73.653-1.957.897-3.833 1.386-4.159 1.223-.326-.245-.652 0-.652.408 0 .489-.734.897-1.55.897-.897 0-1.876.326-2.12.815-.734 1.223-1.794.979-2.365-.408-.571-1.549 1.142-4.485 2.528-4.485.57 0 1.06-.408 1.06-.815 0-.49.57-.816 1.223-.816 2.202 0 5.301-3.343 4.812-5.3-.408-1.632.734-3.344 2.528-3.67 2.528-.49 6.85-2.773 7.258-3.752.326-.815.082-.897-.979-.326-1.55.815-10.927 4.078-11.906 4.078-.326 0-.326-.408-.082-.816.245-.49-.081-.815-.815-.815s-1.06.326-.816.815c.245.408-.244.816-1.141.816s-1.876.326-2.12.815c-.245.408-.082.816.489.816.57 0 .489.652-.408 1.957-.734 1.141-1.06 2.61-.816 3.262.245.734.163 1.305-.326 1.305-.49 0-.978-.327-1.142-.734-.081-.408-1.794 0-3.75.897-2.04.978-3.345 2.12-3.1 2.69.408 1.224-2.365 4.486-3.914 4.486-1.387 0-7.992 7.258-7.421 8.155.244.408.081.897-.327 1.142-.407.245-.978-.163-1.304-.979-.49-1.304-.571-1.304-1.387.082-.57 1.06-.49 2.202.163 3.914.897 2.12.816 2.692-.57 4.241-2.12 2.365-6.688 12.967-7.096 16.31-.163 1.468-.326 2.936-.407 3.425-.082.408-.49.245-.979-.407-.652-.897-.734-.49-.408 1.63.408 2.121.245 2.529-.407 1.632-.653-.897-.734-.653-.408 1.223.244 1.386-.082 3.262-.734 4.485-1.387 2.365-1.631 1.142-.408-2.202.816-2.201.734-2.201-.49-.652-.815 1.142-1.14 2.528-.815 4.485.245 1.55.49 3.507.49 4.241 0 .815.57 1.468 1.223 1.468.734 0 1.223-.734 1.223-1.876 0-.978.49-2.528 1.142-3.425.57-.897 1.223-3.588 1.468-5.953.244-2.365.734-4.649 1.223-5.138 1.223-1.223.49 9.134-.897 12.396-.652 1.63-1.468 4.974-1.713 7.503-.244 2.446-.978 5.545-1.63 6.768-.653 1.305-1.224 4.24-1.224 6.606 0 4.893-.57 6.769-2.039 6.769-1.304 0-2.528-11.091-1.55-14.435.327-1.305.653-5.79.735-10.112.163-5.383.57-8.4 1.468-9.786.652-1.06 1.794-4.241 2.528-7.014.734-2.854 2.039-6.605 2.936-8.481 2.935-5.627 1.304-4.404-2.692 2.12-3.262 5.22-3.914 7.014-4.322 11.825-.734 7.258-1.957 8.237-1.957 1.631 0-3.751.408-5.627 1.631-7.42.979-1.224 1.876-4.242 2.12-6.607.571-4.648 1.958-8.807 3.018-8.807.408 0 1.957-1.305 3.425-2.936 2.773-2.936 2.773-3.017 1.55-5.872-1.469-3.67-1.713-3.832-2.936-2.772-.816.652-1.142-.163-1.387-3.752-.652-8.889-.49-10.927 1.06-12.07.897-.57 1.55-2.201 1.631-3.506.082-1.55.408-2.12.816-1.63.49.407 1.386.733 2.12.733.734 0 1.305.652 1.305 1.55 0 .897-.245 1.467-.49 1.304-.978-.652-3.588 4.975-3.832 8.155-.082 1.795-.408 4.078-.653 4.975-.407 1.876.571 3.099 3.262 3.833 1.387.408 2.04-.408 4.323-4.975 1.386-3.017 2.61-6.034 2.61-6.768 0-1.713 2.935-4.404 3.588-3.344 1.141 1.794 7.828-1.223 7.828-3.507 0-.978-3.832-.244-5.627 1.142-2.935 2.202-4.811 1.223-2.446-1.223.978-1.06 1.63-2.12 1.468-2.365-.408-.326-3.67.408-6.606 1.63-1.957.816-1.957-1.875 0-4.077 2.936-3.343 9.134-7.34 9.134-5.79 0 .245-.326 1.305-.816 2.447-.815 2.283 0 2.772 1.794 1.06.898-.979 6.117-3.833 6.932-3.833.979 0-.081 1.55-1.794 2.446-1.386.734-2.039 1.713-1.957 3.181.082 1.468.245 1.713.49.652.325-1.141.896-1.386 2.69-.978 1.387.326 3.589-.082 5.79-1.06 11.662-5.138 14.598-6.035 15.17-4.486.244.571-.164 1.06-.898 1.06s-1.305.327-1.305.816c0 .408 1.468.734 3.262.652 3.67-.081 4.078-.734 1.468-2.202-1.06-.489-1.223-.733-.49-.57.816.244 1.958-.082 2.61-.734.653-.653 1.468-1.224 1.795-1.224.407 0 .244.408-.327.979-1.141 1.142-1.304 2.61-.163 1.876 2.04-1.224 9.542-1.224 15.25 0 8.645 1.957 20.796 2.61 26.75 1.55l3.261-.572-2.446-1.06-2.447-.978 2.039-.898c1.875-.815 1.794-.897-.653-.407-1.468.244-3.18.081-3.75-.408-.653-.57-5.302-.979-11.418-.979-7.177-.081-10.276-.407-10.03-1.06.325-1.06 8.236-2.691 17.288-3.506 3.833-.327 5.464-.734 4.078-.898-3.018-.407-20.225 1.387-23.895 2.447-1.55.49-5.056.979-7.829 1.06-2.773.163-6.442.571-8.155.897-2.039.326-3.017.245-2.691-.244.734-1.224-5.872.081-9.052 1.794-1.468.734-4.567 2.61-6.85 4.159-2.284 1.55-4.241 2.69-4.404 2.528-.897-.816 1.63-5.383 3.425-6.198 1.142-.49 3.507-2.039 5.138-3.425 2.446-1.876 4.648-2.691 9.786-3.588 3.67-.653 7.34-1.55 8.073-2.04 2.039-1.14 4.975-.896 9.95.816zm-28.542 1.55c0 .408-.734.897-1.631 1.142-.897.244-1.631.081-1.631-.245 0-.408.652-.897 1.467-1.06.734-.245 1.468-.408 1.631-.49.082 0 .164.245.164.653zm80.735.49c0 .244-.163.407-.408.407-.244 0-.407-.163-.407-.408 0-.245.163-.408.407-.408.245 0 .408.163.408.408zm11.417 0c0 .244-.163.407-.408.407-.244 0-.407-.163-.407-.408 0-.245.163-.408.407-.408.245 0 .408.163.408.408zm-96.23.815c0 .244-.163.407-.408.407-.244 0-.407-.163-.407-.407 0-.245.163-.408.407-.408.245 0 .408.163.408.408zm88.075.407c.653.408.897.816.408.816-.408 0-1.386-.408-2.039-.816-.652-.407-.815-.815-.408-.815.49 0 1.387.408 2.04.815zm-110.91 3.1c0 .407-.57.733-1.223.733-.652 0-1.223-.326-1.223-.734 0-.326.571-.652 1.223-.652.653 0 1.224.326 1.224.652zm2.773 1.386c.245.652.082 1.223-.326 1.223-.489 0-.815-.57-.815-1.223 0-.653.163-1.224.326-1.224s.49.571.815 1.224zm6.198.815c0 .245-.163.408-.407.408-.245 0-.408-.163-.408-.408 0-.244.163-.408.408-.408.244 0 .407.164.407.408zm95.415 6.85c0 .816-5.709 2.365-7.176 1.876-1.713-.57-1.06-1.712 1.304-2.039 4.078-.652 5.872-.57 5.872.163zm-111.154 1.468c-.326.245-.57 0-.57-.57 0-.571.244-.816.57-.571a.98.98 0 010 1.141zm143.774-.163c0 .245-.163.408-.407.408-.245 0-.408-.163-.408-.408 0-.244.163-.407.408-.407.244 0 .407.163.407.407zm-145.16.816c0 .244-.163.408-.408.408-.245 0-.408-.164-.408-.408 0-.245.163-.408.408-.408.245 0 .408.163.408.408zm116.78 1.468c.572.57 2.121 1.712 3.426 2.528 1.63 1.06 2.039 1.63 1.305 2.12-1.224.734-7.503-.734-6.85-1.712.244-.408-.571-1.142-1.876-1.631-1.794-.653-1.958-.98-1.06-1.55 1.712-1.06 3.75-.979 5.056.245zm30.42-.245c.244.408.325.816.08.816-.244 0-.652-.408-.896-.816-.245-.49-.326-.815-.082-.815.245 0 .653.326.897.815zm-150.136 2.12c.734 1.794-.245 2.61-1.142 1.142-.979-1.55-.979-2.446-.081-2.446.407 0 .978.57 1.223 1.304zm3.588.245c.245.652-.081.979-.734.734-.57-.163-1.223-.816-1.386-1.386-.245-.653.081-.979.734-.734.57.163 1.223.815 1.386 1.386zm92.071 1.386c-.245.245-.978.327-1.55.082-.652-.245-.407-.49.49-.49.897-.08 1.386.164 1.06.408zm-59.695 1.142c-.245.408-.979.816-1.468.816-.571 0-.49-.327.245-.816 1.549-.979 1.875-.979 1.223 0zm-23.08 2.447c-.733 1.304-1.549 2.038-1.712 1.55-.244-.735 2.12-3.997 2.855-3.997.163 0-.408 1.06-1.142 2.447zm44.69-.408c0 .245-.162.408-.407.408-.245 0-.408-.163-.408-.408 0-.245.163-.408.408-.408.245 0 .408.163.408.408zm60.92.081c-.245.245-.98.327-1.55.082-.652-.245-.408-.49.49-.49.896-.08 1.386.164 1.06.408zm-11.173.734c0 .245-.163.408-.408.408-.244 0-.408-.163-.408-.408 0-.244.164-.407.408-.407.245 0 .408.163.408.407zm-112.54.816c0 .245-.164.408-.408.408-.245 0-.408-.163-.408-.408 0-.245.163-.408.408-.408.244 0 .408.163.408.408zm121.51 0c0 .245-.163.408-.407.408-.245 0-.408-.163-.408-.408 0-.245.163-.408.408-.408.244 0 .408.163.408.408zm-121.51 2.446c0 .245-.164.408-.408.408-.245 0-.408-.163-.408-.408 0-.244.163-.407.408-.407.244 0 .408.163.408.407zm1.386 1.795c-.326.244-.57 0-.57-.571s.244-.816.57-.571a.98.98 0 010 1.142zm82.366 2.446a.98.98 0 01-1.141 0c-.245-.326 0-.57.57-.57.571 0 .816.244.571.57zm-70.297 4.16c-.652.652-2.038-1.387-2.038-3.1 0-.734.489-.49 1.305.653.733 1.06 1.06 2.12.733 2.446zm20.307-2.61c2.202-.082 3.588 0 3.099.163-.49.163-.734.734-.49 1.386 1.142 2.854-6.687 3.833-9.133 1.142-1.468-1.631-1.468-1.713.081-2.855.816-.652 1.713-.815 1.957-.407.245.407 2.284.652 4.486.57zm97.535.734c0 .244-.163.407-.408.407-.245 0-.408-.163-.408-.407 0-.245.163-.408.408-.408.245 0 .408.163.408.408zm1.63 1.63c0 .245-.162.408-.407.408-.245 0-.408-.163-.408-.407 0-.245.163-.408.408-.408.245 0 .408.163.408.408zm-132.927 1.224c0 .408-.164.815-.327.815-.244 0-.652-.407-.897-.815-.244-.49-.081-.816.326-.816.49 0 .898.326.898.816zm3.262.408c0 .244-.164.407-.408.407-.245 0-.408-.163-.408-.407 0-.245.163-.408.408-.408.244 0 .408.163.408.408zm-1.631.815c0 .245-.164.408-.408.408-.245 0-.408-.163-.408-.408 0-.245.163-.408.408-.408.244 0 .408.163.408.408zm14.679 2.447c0 .244-.163.407-.408.407-.245 0-.408-.163-.408-.407 0-.245.163-.408.408-.408.245 0 .408.163.408.408zm26.096 1.63c0 .245-.163.408-.408.408-.244 0-.407-.163-.407-.407 0-.245.163-.408.407-.408.245 0 .408.163.408.408zm122.327 42.244c0 1.06.326 2.202.734 2.61.897 1.06 2.69 8.644 2.201 9.133-.244.245.082 1.713.734 3.262 1.06 2.528 1.06 2.773 0 2.365-.897-.326-1.06.082-.652 1.958.815 4.322-1.223 2.61-2.202-1.876-.57-2.283-2.039-6.361-3.344-8.89-2.364-4.73-2.446-6.279-.081-9.051 1.713-1.876 2.61-1.713 2.61.489zm9.786 46.321c0 .408-.327.734-.816.734-.408 0-.815-.57-.815-1.305 0-.652.407-.978.815-.734.49.245.816.816.816 1.305zm-176.966 43.956c.816.408 1.713 1.876 2.039 3.262.326 1.305.815 2.447 1.223 2.447.326 0 .652 1.63.652 3.67.082 2.364-.244 3.67-.897 3.67-1.875 0-3.18-1.469-3.262-3.59-.081-1.14-.407-2.12-.734-2.12-.407 0-.652-.57-.652-1.223 0-.652-.326-1.223-.816-1.223-.407 0-.815-1.305-.815-2.854 0-2.936.734-3.425 3.262-2.039zM265.933 42.891c0 .245.163.408.408.408.245 0 .408-.163.408-.408 0-.245-.163-.408-.408-.408-.245 0-.408.163-.408.408zM247.83 55.287c1.468.163 3.67.163 4.893 0 1.223-.163 0-.326-2.691-.326s-3.67.163-2.202.326zm22.019 0c.57.244 1.305.163 1.55-.082.325-.244-.164-.49-1.06-.408-.898 0-1.143.245-.49.49zm-72.417 5.545c0 .245.163.408.407.408.245 0 .408-.163.408-.408 0-.244-.163-.408-.408-.408-.244 0-.407.164-.407.408zm22.67 2.365c-1.63 1.55-2.69 3.018-2.446 3.262.245.245.082.49-.408.49-1.223 0-5.953 5.056-5.464 5.79.245.407 1.876 0 3.589-.897 1.794-.897 4.403-1.631 5.871-1.713 2.365-.082 2.447-.163.734-.652l-1.957-.571 2.12-1.387c2.365-1.55 4.649-1.794 4.649-.57 0 .407.815.815 1.876.733h12.232c10.846 0 14.435-.489 11.499-1.63-1.305-.49-1.223-.653.652-.653 3.507-.081 3.589-1.713.082-1.794-14.68-.326-20.959-.734-21.693-1.468-1.223-1.223-4.077-1.142-3.343.082.407.57.244.652-.49.244-.57-.326-1.223-.244-1.55.245-.733 1.223-4.974 2.202-4.974 1.142 0-.49.734-1.142 1.631-1.387.897-.244 1.631-.897 1.631-1.305 0-1.386-1.386-.734-4.24 2.04zm.572 2.12c.244.408.326.816.081.816s-.652-.408-.897-.815c-.245-.49-.326-.816-.082-.816.245 0 .653.326.898.816zm28.787-.244c-.815.163-2.283.163-3.262 0-1.06-.163-.408-.326 1.386-.326 1.794-.082 2.61.081 1.876.326zm-30.826 3.507c-1.631 1.06-2.691 1.06-2.039 0 .245-.49 1.142-.816 1.876-.816 1.223 0 1.223.163.163.816zm-7.992.163c-.571.57-.979 1.304-.979 1.712 0 .408.571.082 1.305-.652s1.142-1.468.979-1.631c-.164-.245-.816.081-1.305.57zm18.838.407a.98.98 0 001.142 0c.244-.326 0-.57-.571-.57-.57 0-.816.244-.57.57zm-3.099 1.06c-.245.408-.081.816.326.816.49 0 .897-.408.897-.815 0-.49-.163-.816-.326-.816-.244 0-.652.326-.897.816zm18.594 1.387a.98.98 0 001.141 0c.245-.326 0-.57-.57-.57-.571 0-.816.244-.571.57zm-60.593 4.322c0 .571.245.816.571.571a.98.98 0 000-1.142c-.326-.244-.57 0-.57.571zm-2.446.816c0 .407.408.815.815.815.49 0 .816-.408.816-.815 0-.49-.326-.816-.816-.816a.817.817 0 00-.815.816zm34.822.57c-.245.408.49.734 1.631.816 1.55.082 1.794-.082.979-.652-1.387-.897-2.12-.897-2.61-.163zm101.368-.163c0 .245.163.408.408.408.244 0 .407-.163.407-.408 0-.244-.163-.407-.407-.407-.245 0-.408.163-.408.407zm-98.269 2.855c-.245.489.408.815 1.55.815 1.141 0 2.283-.408 2.528-.815.244-.49-.408-.816-1.55-.816-1.142 0-2.283.326-2.528.816zm81.143.407c0 .245.163.408.408.408.245 0 .408-.163.408-.408 0-.244-.163-.407-.408-.407-.245 0-.408.163-.408.407zm-82.366 3.018c0 .408 1.55.652 3.425.652 1.876 0 3.18-.244 2.854-.49-.734-.733-6.28-.896-6.28-.162zm60.43.652c1.956 1.713 5.381 2.936 6.115 2.202.245-.245-.57-1.06-1.875-1.794-2.12-1.223-2.12-1.223-.245-.734 1.142.326 1.794.245 1.468-.082-.326-.326-2.12-.733-3.996-.897l-3.425-.326 1.957 1.631zm17.859-.408c0 .245.163.408.407.408.245 0 .408-.163.408-.408 0-.244-.163-.407-.408-.407-.244 0-.407.163-.407.407zm2.039 1.224c.244.408.652.815.897.815.244 0 .163-.407-.082-.815-.245-.49-.652-.816-.897-.816s-.163.326.082.816zm-.816 1.794c.245.57 1.957 2.12 3.67 3.425 1.794 1.386 3.262 2.691 3.262 3.099 0 .326.408.652.978.652.49 0-.081-1.141-1.467-2.528-3.018-3.18-7.014-6.116-6.443-4.648zm2.854-.571c0 .245.163.408.408.408.245 0 .408-.163.408-.408 0-.245-.163-.408-.408-.408-.245 0-.408.163-.408.408zm13.375 1.468c-.49 1.386 1.957 5.382 3.343 5.464.49 0 1.713.978 2.773 2.039 1.55 1.712 1.631 1.957.408 1.55-.897-.327-1.958-.898-2.528-1.306-.571-.489-1.468-.489-1.958-.163-.57.326-1.386 0-1.875-.652-1.06-1.468-7.014-4.16-7.095-3.262 0 .326-.163 1.386-.408 2.446-.326 1.876 3.262 6.28 4.567 5.464.326-.244 1.223.408 1.876 1.468.978 1.55 1.06 2.202.244 3.751-2.039 3.752.571 9.053 4.404 9.053.652 0 1.713.734 2.283 1.63 1.142 1.876 4.486 1.55 6.606-.57.816-.897 1.305-.897 1.713-.245.815 1.305 1.63-.978 1.63-4.322 0-2.773-1.712-5.872-5.219-9.868-1.141-1.305-1.957-2.528-1.794-2.69.734-.735 3.425 1.304 4.567 3.343 1.06 2.038 2.447 2.854 2.447 1.468 0-.327-1.958-3.1-4.323-6.198-4.73-6.198-10.764-10.602-11.661-8.4zm-2.202 10.112a.98.98 0 01-1.142 0c-.245-.326 0-.57.57-.57.572 0 .816.244.572.57zm2.69-.163c0 .245-.162.408-.407.408-.244 0-.408-.163-.408-.408 0-.244.164-.408.408-.408.245 0 .408.164.408.408zm2.447 0c0 .245-.163.408-.407.408-.245 0-.408-.163-.408-.408 0-.244.163-.408.408-.408.244 0 .407.164.407.408zm3.263 12.151c-.408 1.06-.49 2.202-.245 2.447.326.244-.082.49-.816.49-.815 0-1.223-.49-.978-1.224.244-.653.57-1.794.815-2.447.163-.652.734-1.223 1.142-1.223.57 0 .57.734.082 1.957zm2.038 5.383c.245.407.082.815-.326.815-.49 0-.897-.408-.897-.815 0-.49.163-.816.326-.816.245 0 .653.326.897.816zm-144.753-27.32c0 .245.163.408.408.408.245 0 .408-.163.408-.408 0-.245-.163-.408-.408-.408-.245 0-.408.163-.408.408zm118.25 3.262c0 .652.57 1.223 1.304 1.223 1.142 0 1.142-.244.326-1.223-.57-.652-1.141-1.223-1.305-1.223-.163 0-.326.57-.326 1.223zm-123.143.816c0 .244.163.407.408.407.245 0 .408-.163.408-.407 0-.245-.163-.408-.408-.408-.245 0-.408.163-.408.408zm-.408 6.197c-.326.49-.407.98-.163 1.224.163.244.571-.163.816-.897.57-1.387.081-1.631-.653-.327zm-7.747 9.297c0 .245.163.408.408.408.245 0 .408-.163.408-.408 0-.244-.163-.407-.408-.407-.245 0-.408.163-.408.407zm157.638 10.765a.98.98 0 001.142 0c.245-.326 0-.57-.571-.57-.57 0-.815.244-.57.57zm.571 3.914c0 .245.163.408.408.408.244 0 .408-.163.408-.408 0-.244-.164-.407-.408-.407-.245 0-.408.163-.408.407zM170.274 60.506c.326 1.06.652 1.468.897.816.163-.571-.081-1.468-.49-1.876-.652-.653-.733-.326-.407 1.06zm-4.648 1.142c0 .244.163.407.407.407.245 0 .408-.163.408-.407 0-.245-.163-.408-.408-.408-.244 0-.407.163-.407.408zm-7.34 12.64c0 .571.245.816.57.571a.98.98 0 000-1.142c-.325-.244-.57 0-.57.571zm96.883 20.143c.489.163 1.468.163 2.038 0 .49-.244.082-.408-1.06-.408-1.141 0-1.55.164-.978.408zM156.655 95.9c0 .245.163.408.408.408.244 0 .408-.163.408-.408 0-.245-.164-.408-.408-.408-.245 0-.408.163-.408.408zm135.375 11.417c0 .245.163.408.407.408.245 0 .408-.163.408-.408 0-.244-.163-.407-.408-.407-.244 0-.407.163-.407.407zm2.61 53.742c-.898 1.224-2.04 2.12-2.529 2.12-1.223 0-1.141 1.06.163 2.366.49.652.653.978.163.734a98.763 98.763 0 01-3.996-1.794c-2.446-1.06-4.159-1.305-6.931-.816-2.04.326-6.77.49-10.357.408-7.34-.245-9.297.978-9.297 5.627 0 4.567.897 4.811 13.211 3.425 10.275-1.142 11.662-1.142 17.534.163 3.506.734 7.258 1.55 8.4 1.713 1.141.163 2.854.57 3.75.815 1.713.571 1.795.326 1.632-4.811-.163-6.524-1.387-8.074-6.443-8.563-.326-.082-.57-.734-.408-1.55.408-2.283-3.017-2.202-4.893.163zm.407 7.585c-.326.244-.57 0-.57-.571s.244-.816.57-.571a.98.98 0 010 1.142zm-110.338-4.567c-3.752 1.06-4.894 2.773-3.833 5.708.489 1.305.734 3.1.489 3.996-1.223 4.73 1.631 7.014 5.382 4.323 1.142-.734 3.833-1.713 6.117-2.202 4.077-.897 27.809-.897 32.865-.082 2.12.408 2.69.163 3.099-1.223 1.223-3.833-5.383-6.932-16.392-7.747-3.099-.245-6.932-.571-8.481-.816-1.713-.245-3.833.163-5.301.897-3.262 1.794-8.318 3.017-7.014 1.713.49-.49.897-1.958.897-3.18 0-2.04-.244-2.284-2.61-2.203-1.467 0-3.832.408-5.218.816zm85.302 17.615c-2.447 1.305-4.975 3.18-5.627 4.322l-1.305 2.039 3.915-2.365c6.116-3.507 10.764-4.486 7.828-1.55-.734.734-.652 1.631.164 3.67.57 1.468.978 3.344.815 4.24-.082.898.163 1.306.652.898.49-.245.734-.816.49-1.223-.163-.327.652-1.06 2.039-1.631 2.364-.98 3.996-4.649 2.854-6.525-1.55-2.446 6.932.082 10.438 3.1 1.305 1.141 1.224 1.386-2.038 3.588-3.018 2.038-3.996 2.283-7.34 1.875-4.975-.57-5.709 1.631-.816 2.447 3.018.49 12.396-2.528 12.967-4.24.163-.409 1.55-.572 3.099-.409 2.202.245 2.773.082 2.365-.734-.897-2.201-7.095-6.524-10.602-7.34-2.038-.488-3.833-1.222-4.077-1.63-.245-.408-2.936-.734-5.953-.734-4.404 0-6.361.408-9.868 2.202zm10.602.652c0 .245-.164.408-.408.408-.245 0-.408-.163-.408-.408 0-.244.163-.408.408-.408.244 0 .408.164.408.408zm-1.631 3.67a.817.817 0 01-.816.816c-.408 0-.816-.408-.816-.816 0-.49.408-.816.816-.816.49 0 .816.327.816.816zm-13.538-4.567c-.815.653-1.386 1.387-1.142 1.55.245.244 1.142-.082 1.958-.734.897-.571 1.386-1.305 1.223-1.55-.245-.244-1.142.163-2.039.734zm-63.528.979c-1.223.652-3.1 1.305-4.16 1.468-1.06.244-2.935 1.06-4.24 1.957-1.223.897-3.017 1.794-3.996 2.12-3.751 1.223-3.099 5.056.734 4.24 1.386-.244 3.588 0 5.056.653 5.627 2.447 9.134 3.018 11.825 1.876 3.262-1.386 2.61-2.039-1.794-1.713-2.283.245-4.567-.244-7.177-1.468l-3.67-1.794 2.04-1.794c2.69-2.202 5.79-3.833 6.36-3.262.245.163 1.305.082 2.365-.326 2.528-.979 2.692.57.164 1.631-1.06.408-1.387.734-.816.734.57.082 1.386.979 1.794 2.12.408 1.142 1.305 2.12 2.039 2.12 4.159.327 4.077.408 4.077-3.098 0-3.1.164-3.425 1.631-3.018 2.773.897 4.812 1.876 6.77 3.262 2.527 1.876 2.201.163-.409-2.202-4.73-4.24-13.945-5.953-18.593-3.506zm8.563 5.219c0 .408-.163.816-.327.816-.244 0-.652-.408-.897-.816-.244-.49-.081-.815.327-.815.489 0 .897.326.897.815zm8.97-5.3c0 .244.163.407.408.407.245 0 .408-.163.408-.408 0-.244-.163-.408-.408-.408-.245 0-.408.164-.408.408zm2.04 1.222c.244.408.651.816.896.816s.163-.408-.081-.816c-.245-.489-.653-.815-.897-.815-.245 0-.164.326.081.815zm-6.933 3.67c0 .245.163.408.408.408.245 0 .408-.163.408-.408 0-.244-.163-.407-.408-.407-.245 0-.408.163-.408.407zm20.633 1.794a.98.98 0 001.141 0c.245-.326 0-.57-.57-.57-.571 0-.816.244-.571.57zm107.402-.163c0 .245.163.408.408.408.245 0 .408-.163.408-.408 0-.244-.163-.407-.408-.407-.245 0-.408.163-.408.407zm-82.53.979c.49.163 1.469.163 2.04 0 .489-.245.081-.408-1.06-.408-1.142 0-1.55.163-.98.408zm-36.045 1.794c-1.386 1.55-1.386 1.55.245 1.142.978-.245 1.712-.979 1.712-1.55 0-1.468-.326-1.468-1.957.408zm28.87-.734c0 .57.244.816.57.57a.98.98 0 000-1.14c-.326-.245-.57 0-.57.57zm-41.184 1.631c-.245.408.081.816.734.816.734 0 1.305-.408 1.305-.816 0-.49-.326-.815-.734-.815-.49 0-1.06.326-1.305.815zm21.692.326c-.652.816-.733 1.305-.081 1.713.408.245 1.06-.082 1.305-.816.734-1.794-.082-2.365-1.224-.897zm18.839 2.855c-1.223 4.077-1.223 4.566.326 6.116 2.447 2.528 3.507-.571 2.283-6.769-.734-3.343-1.468-3.18-2.61.653zm88.727 2.935c0 1.142.408 2.04.816 2.04.49 0 .815-.898.815-2.04 0-1.141-.326-2.038-.815-2.038-.408 0-.816.897-.816 2.038zm-85.791 12.478c-.816.163-1.468.489-1.468.815 0 1.223 2.038 5.872 2.61 5.872.326 0 .652.734.652 1.63 0 .816 1.06 2.774 2.365 4.242 1.305 1.467 3.099 4.077 3.996 5.79 1.63 3.099 2.854 3.099 2.283.081-.163-.897-1.63-3.751-3.18-6.442-1.55-2.691-3.1-6.117-3.425-7.666-.734-3.344-1.958-4.73-3.833-4.322zm-29.196 10.357c0 .244.163.407.408.407.245 0 .408-.163.408-.407 0-.245-.163-.408-.408-.408-.245 0-.408.163-.408.408zm-3.18 4.159c0 .897.245 1.141.49.49.244-.572.162-1.306-.082-1.55-.245-.327-.49.163-.408 1.06zm7.258 6.769c0 1.141 3.343 3.343 5.056 3.343 2.202 0 1.713-1.468-.979-2.854-2.69-1.387-4.077-1.55-4.077-.49zm23.976.489c-3.017 1.223-3.996 2.528-2.528 3.099 1.305.49 6.28-1.713 6.28-2.773 0-1.305-1.306-1.386-3.752-.326zm-80.49 11.58c-.246.408-.653 1.876-.98 3.344-.326 1.468-1.06 2.935-1.549 3.099-2.447.897.979 17.288 5.22 25.444 5.87 11.254 6.197 11.743 7.42 10.193.979-1.141.979-1.304 0-.652-.897.49-1.06.326-.652-.652.245-.734.163-1.55-.326-1.876-.49-.245-.653-.979-.408-1.631.57-1.386-1.06-10.194-2.039-11.417-.408-.49-1.06-3.67-1.55-7.014-.489-3.425-1.222-7.42-1.63-8.889-.49-1.55-.816-4.485-.816-6.605 0-2.855-.326-3.915-1.141-3.915-.653 0-1.387.245-1.55.571zm100.144 14.19c-2.691.897-7.666 1.794-11.01 2.039-3.343.163-7.42.57-8.97.897-1.55.244-4.649.57-6.932.652-2.202.082-4.73.408-5.464.734s-1.794.408-2.283.082c-.49-.245-5.71-.897-11.662-1.305-19.736-1.468-21.448-.979-15.577 4.893 3.507 3.425 11.091 6.769 12.396 5.464.897-.979-.815-2.936-2.528-2.936-2.283 0-4.24-1.957-3.425-3.262.326-.57 6.116-.816 17.37-.734 9.786.082 19.083-.245 22.182-.734 2.936-.57 7.095-.979 9.297-.979h3.996l-1.876 2.04c-1.06 1.14-2.365 2.038-2.935 2.038-.571 0-1.468.816-2.04 1.713-.896 1.712-.815 1.794 1.795 1.223 2.773-.571 4.077-1.713 3.507-3.262-.164-.49.57-.979 1.63-.979 2.61-.163 10.276-6.035 10.276-7.829 0-1.794-1.386-1.794-7.747.245zm-101.613 41.673c-.081 19-.897 40.123-1.386 35.882-.245-1.794-1.55-.979-3.833 2.365-1.794 2.773-2.039 3.67-1.305 5.138.734 1.468 3.18 17.207 4.73 30.744.245 2.284 1.223 4.649 2.283 5.954 1.06 1.223 2.12 3.67 2.447 5.463.326 1.713.897 3.018 1.305 2.692.897-.571.978 1.386 0 2.772-.816 1.387 1.875 6.932 5.056 10.276 1.794 1.876 2.12 2.528 1.223 3.099-.734.57-.57.652.653.408 1.386-.327 1.712 0 1.468 1.386-.164.897-.164 1.223.163.734.407-.979 4.403 2.854 4.403 4.24 0 1.305 2.936 4.16 3.996 3.833.816-.244.979 0 .653.897-.326.816-.082 1.142.49.98.57-.246 1.712 1.06 2.527 2.853.897 1.794 2.039 3.262 2.61 3.262.57 0 2.039 1.06 3.343 2.365 1.305 1.224 3.1 2.528 3.915 2.855.897.244 2.691 1.386 3.996 2.528 1.305 1.141 2.773 2.039 3.18 2.039.49 0 2.04.897 3.507 2.038 1.468 1.142 2.936 2.04 3.18 2.04.327 0 2.12 1.06 4.078 2.446 1.957 1.304 3.915 2.446 4.404 2.446.49 0 .897.49.897.979 0 .734.326.652.815-.163.49-.734.816-.816.816-.245 0 1.55 7.503 5.3 11.417 5.627 2.039.163 5.138.57 7.013.816 2.04.326 4.078.081 5.22-.49 1.06-.57 3.017-1.141 4.24-1.223 3.589-.326 9.623-2.202 9.623-2.936 0-.408.653-.734 1.468-.734 2.04 0 7.095-3.262 9.134-5.872 1.142-1.549 2.528-2.283 4.078-2.283 1.794 0 2.365-.408 2.61-1.794.162-1.06 1.222-2.365 2.527-2.936 1.224-.57 2.202-1.55 2.202-2.12 0-.653 1.713-1.631 3.752-2.202 2.12-.653 3.996-1.713 4.159-2.365.652-2.12 1.63-3.67 2.365-3.67 1.386 0 2.772-1.305 2.772-2.61 0-1.467 3.915-5.137 5.546-5.137.57 0 .978-1.06.978-2.447 0-1.386.408-2.446.897-2.446 1.876 0 6.443-6.85 6.443-9.705 0-.815.734-1.712 1.631-1.957.897-.245 1.631-.897 1.631-1.55 0-.815-.245-.734-.815.164-.653 1.06-.816.978-.816-.245 0-2.447-1.876-1.142-4.078 2.773-4.566 8.236-17.533 21.774-28.705 29.847-3.589 2.61-9.053 6.769-12.152 9.297-5.137 4.24-6.279 4.812-14.108 6.769-12.967 3.18-17.778 2.61-25.688-3.018-2.04-1.549-8.89-5.3-15.087-8.4-13.456-6.686-20.144-12.069-31.968-26.014-11.173-13.048-18.512-35.882-18.512-57.086 0-7.992.733-10.683 2.364-9.297 1.55 1.305 3.344-.244 4.078-3.588.245-1.468.816-3.017 1.223-3.507.408-.489.734-8.562.816-18.022.163-20.551.57-21.774 5.3-16.637 4.16 4.73 4.486 3.507.408-1.63-1.875-2.366-4.974-7.503-6.85-11.418-1.876-3.914-3.67-7.176-3.996-7.176-.408-.082-.652 10.275-.734 22.916zm7.421-7.91c0 .244-.163.407-.407.407-.245 0-.408-.163-.408-.408 0-.245.163-.408.408-.408.244 0 .407.163.407.408zm-1.63 98.676c0 .244-.164.408-.408.408-.245 0-.408-.164-.408-.408 0-.245.163-.408.408-.408.244 0 .407.163.407.408zm.815 3.262c0 .244-.163.408-.408.408-.245 0-.408-.164-.408-.408 0-.245.163-.408.408-.408.245 0 .408.163.408.408zm4.893-106.016c0 .244.163.407.408.407.244 0 .407-.163.407-.407 0-.245-.163-.408-.407-.408-.245 0-.408.163-.408.408zm-4.893 8.97c0 .245.163.408.408.408.244 0 .407-.163.407-.408 0-.245-.163-.408-.407-.408-.245 0-.408.163-.408.408zm119.88 5.3c0 .572.244.816.57.572a.98.98 0 000-1.142c-.326-.245-.57 0-.57.57zm-4.486 2.692c-1.794.979-3.832 2.447-4.566 3.18-.734.816-1.631 1.469-1.958 1.469-.326 0-1.957 1.06-3.588 2.364-1.63 1.305-4.73 3.1-7.013 4.078-2.202.979-5.464 2.528-7.177 3.344-1.794.897-3.914 1.63-4.811 1.63-.816 0-2.202.327-2.936.735-1.305.734-16.8 2.854-19.735 2.772-3.67-.163-17.615-2.12-18.35-2.61-.407-.325-2.283-1.06-4.077-1.63-1.794-.653-4.811-2.12-6.606-3.344-1.875-1.223-4.73-2.691-6.279-3.18-1.631-.571-4.322-1.713-6.035-2.528-1.712-.816-3.18-1.387-3.343-1.224-.734.653 2.038 3.67 4.566 4.812 1.468.734 4.812 2.691 7.34 4.404 19.246 12.721 41.02 14.923 59.777 6.034 3.751-1.794 7.747-3.588 8.889-3.914 1.142-.245 2.202-.816 2.447-1.142.244-.326 2.283-1.957 4.485-3.588 4.811-3.588 12.64-11.499 12.64-12.722 0-.408-.081-.816-.163-.734-.163 0-1.712.816-3.507 1.794zm30.582 32.702c0 2.12 9.868 14.924 12.151 15.821.734.245 2.284 1.142 3.588 1.957 1.224.897 2.202 1.387 2.202 1.06 0-.244.979.49 2.202 1.631 1.223 1.142 3.18 2.04 4.24 2.04 1.958 0 3.59.652 14.517 5.79 2.854 1.304 5.464 2.364 5.872 2.364.407 0 .897.326 1.06.816.163.408.978.897 1.875 1.06 1.55.326 4.73 1.468 8.156 2.936.897.408 5.382 1.712 9.949 2.854 4.567 1.223 9.704 2.773 11.417 3.425 3.099 1.223 4.077 1.713 15.74 7.177 3.343 1.63 7.991 3.262 10.193 3.751 2.284.49 5.056 1.631 6.28 2.447 1.223.897 2.935 1.63 3.914 1.63.897 0 1.631.327 1.631.816 0 .408.652.816 1.468.816 1.712 0 7.584 2.772 13.864 6.442 2.365 1.386 4.893 2.528 5.627 2.528 2.283 0 10.846 5.056 14.516 8.563 1.957 1.957 3.833 3.262 4.159 2.936.326-.245.326-.082.081.408-.244.489.571 2.038 1.876 3.506 1.386 1.468 2.447 2.855 2.447 3.18 0 .327 2.038 1.55 4.485 2.692 4.404 2.039 4.485 2.039 4.485.408 0-3.425-6.524-14.353-10.03-16.963-5.057-3.67-43.386-22.182-51.867-25.036-3.996-1.386-12.396-4.975-18.594-8.074-11.172-5.627-25.362-11.58-27.4-11.58-.572 0-1.877.734-2.855 1.631-.979.979-1.794 1.305-1.794.816 0-.408-.571-.816-1.224-.816-.652 0-2.12-.897-3.262-2.039-1.141-1.141-2.038-1.875-2.038-1.549 0 .326-.653 0-1.387-.652-1.63-1.305-5.953-3.344-9.215-4.323-1.142-.326-5.22-2.202-9.052-4.159-7.34-3.751-8.563-4.159-7.584-2.61.815 1.224-.245.571-9.46-6.116-7.503-5.382-12.233-8.4-12.233-7.584zm61.49 29.44c.897.652 1.223 1.223.815 1.223-.49 0-1.55-.57-2.446-1.223-.816-.652-1.142-1.142-.734-1.142.489 0 1.549.49 2.365 1.142zm-3.181 1.223c.245.408.326.816.082.816-.245 0-.653-.408-.897-.816-.245-.49-.327-.815-.082-.815s.652.326.897.815zm-225-25.199c-2.609 2.202-5.218 3.914-5.708 3.751-.49-.163-3.017.734-5.627 2.04-4.811 2.364-9.541 7.583-9.541 10.52 0 .815-.734 1.875-1.631 2.364-3.588 1.957-1.305 2.202 2.854.326 2.528-1.06 5.056-1.957 5.709-1.957.652 0 1.712-1.06 2.528-2.365 1.305-2.202 6.034-4.974 8.644-4.974 3.18 0 8.808-7.83 8.808-12.233 0-2.365-.653-2.039-6.035 2.528zm-26.585 12.559c-2.446 1.63-5.382 3.099-6.524 3.343-5.545 1.06-10.846 3.426-17.696 7.91-4.16 2.692-7.585 5.22-7.585 5.628 0 .326-1.794.652-4.077.652-2.61 0-5.709.734-8.726 2.12-2.61 1.142-7.258 2.855-10.276 3.67-3.017.897-7.42 2.692-9.786 3.996-2.365 1.305-6.28 2.773-8.726 3.344-8.644 1.794-14.679 4.078-16.147 6.198-.734 1.06-2.854 3.343-4.648 4.974-1.794 1.632-4.486 4.323-6.117 5.954-2.935 3.017-10.764 8.889-11.824 8.889-.327 0 0-.897.734-2.039 2.038-3.017.489-2.528-5.709 2.12-3.099 2.284-6.932 4.812-8.563 5.709-3.18 1.55-4.811 3.996-2.773 3.996.653 0 1.224-.49 1.224-1.06 0-.653.244-.653.734.163.407.652.57 1.712.326 2.446-.326.734.49.408 1.957-.978 2.365-2.202 4.648-2.855 5.545-1.468.245.49 1.224.408 2.284-.245 4.811-2.691 7.095-4.24 7.095-4.811 0-.327.57-.571 1.223-.571.734 0 3.1-1.223 5.22-2.61a258.425 258.425 0 017.42-4.73c1.876-1.141 4.567-3.017 5.954-4.322 1.386-1.223 3.751-2.61 5.219-3.18 2.854-1.06 3.588-2.284 1.386-2.284-1.06 0-1.141-.245-.407-1.142.734-.897.734-1.223-.082-1.468-2.12-.733 5.872-3.914 12.559-5.056 6.035-.978 9.704-2.283 16.147-5.79 1.142-.57 3.67-1.794 5.709-2.61 2.038-.815 5.953-3.017 8.726-4.974 5.382-3.588 7.013-4.24 6.279-2.202-.326.652-.979 1.223-1.631 1.223s-1.142.408-1.142.979c0 .49-.57 1.631-1.386 2.446-1.142 1.305-1.142 1.468-.082 1.468 3.344 0 6.361-1.141 6.361-2.365 0-1.06.163-1.06.734-.244.571.897 1.06.734 2.691-.816 3.996-3.751 7.258-5.871 8.4-5.3.163.081.979-.653 1.631-1.713.734-.979 1.876-1.794 2.528-1.794.571 0 2.528-1.305 4.323-2.855 3.506-3.18 4.159-3.425 4.159-1.63 0 2.446 2.528 1.141 8.155-4.323 8.073-7.747 7.666-10.112-.816-4.648zm246.284 8.155c0 .245.163.408.408.408.245 0 .408-.163.408-.408 0-.245-.163-.408-.408-.408-.245 0-.408.163-.408.408zm3.262 1.223c-.734.49-.815.816-.244.816.489 0 1.223-.408 1.468-.816.652-.978.326-.978-1.224 0zM92.23 382.96c0 .244.163.407.407.407.245 0 .408-.163.408-.407 0-.245-.163-.408-.408-.408-.244 0-.407.163-.407.408zm92.968 26.504c0 .407.408.815.815.815.49 0 .816-.408.816-.815 0-.49-.326-.816-.816-.816a.817.817 0 00-.815.816zm106.832 19.572c0 .57.244.815.57.57a.98.98 0 000-1.14c-.326-.246-.57 0-.57.57zm-10.602 7.747c0 .245.163.408.408.408.244 0 .408-.163.408-.408 0-.244-.164-.407-.408-.407-.245 0-.408.163-.408.407zM35.552 453.5c-.245.408-.163.816.326.816.408 0 1.06-.408 1.305-.816.244-.489.163-.815-.326-.815-.408 0-1.06.326-1.305.815zm195.722 5.301c1.387.571 2.61.897 2.854.734.571-.652-1.957-1.957-3.67-1.876-1.223 0-1.06.327.816 1.142z" fill="#353a40"/></svg>