<svg xmlns="http://www.w3.org/2000/svg" width="250" height="250"><defs><clipPath clipPathUnits="userSpaceOnUse" id="g"><path d="M300.106 205.498h.048v-.05h-.048z"/></clipPath><clipPath clipPathUnits="userSpaceOnUse" id="f"><path d="M301.694 197.486h.94v-.973h-.94z"/></clipPath><clipPath clipPathUnits="userSpaceOnUse" id="e"><path d="M296.904 202.278h1.03v-1.066h-1.03z"/></clipPath><clipPath clipPathUnits="userSpaceOnUse" id="d"><path d="M281.668 295.471h.996v-1.031h-.996z"/></clipPath><clipPath clipPathUnits="userSpaceOnUse" id="c"><path d="M284.052 290.036h.973v-1.007h-.973z"/></clipPath><clipPath clipPathUnits="userSpaceOnUse" id="b"><path d="M208.415 269.752h1.076v-1.113h-1.076z"/></clipPath><clipPath clipPathUnits="userSpaceOnUse" id="a"><path d="M212.968 275.172h1.601v-1.106h-1.601z"/></clipPath></defs><g stroke-width=".902"><path d="M109.12 180.861s-51.538-1.187-81.95-81.018l-9.042 1.82s10.115 94.204 85.8 121.098z" fill="#ffccc3"/><path d="M34.424 101.067c-5.605 3.387-12.547-6.756-8.332-11.417 5.052-5.337 5.04 4.626 9.16 2.294 4.12-2.33.24-10.005-2.798-11.224-4.806-1.908-5.441-1.626-8.71 1.571-.653-9.129-4.06-21.743-7.157-16.752-2.401 3.871 1.206 14.356 2.204 19.049-1.013-1.862-5.8-13.864-8.799-10.462-1.931 2.684 4.483 15.593 5.494 17.456.015.022.026.05.04.073a72.985 72.985 0 00-1.862-1.46c-2.37-1.474-7.473-6.667-7.717-1.608-.14 5.118 8.104 10.226 12.182 13.076.547 2.107 1.365 3.901 2.965 4.782 4.795-4 5.753.442 10.48 1.851 4.036 1.54 7.318-.115 8.508-4.455 2.177-9.927-9.382-12.599-5.658-2.774" fill="#ffccc3"/><path d="M196.738 155.227c3.235 1.142 27.605 48.987 41.286 94.938l-149.715-1.47s6.177-46.928 25.484-83.672z" fill="#fff"/><path d="M216.984 193.724a505.724 505.724 0 00-2.857-6.375c-17.607.017-35.201.178-52.82-.485-18.516-.698-37.14-3.08-55.695-3.92a233.132 233.132 0 00-2.211 5.802c18.504 3.11 37.773 3.53 56.238 4.387 19.02.883 38.253 1.405 57.345.591m10.233 24.882a615.783 615.783 0 00-1.997-5.138c-21.261-.018-42.523-.523-63.765-1.57-14.174-.703-28.34-1.642-42.49-2.74-6.868-.532-14.221-1.725-21.517-2.206-.5 1.733-.977 3.435-1.432 5.112 43.773 3.34 87.307 6.382 131.2 6.542m-62.856 12.601c-24.298.658-48.918.362-73.302 1.804-.381 1.88-.72 3.628-1.016 5.222 24.757.186 49.678-1.468 74.319-2.125 22.932-.613 45.879-1.356 68.815-1.058-.556-1.628-1.12-3.25-1.693-4.867-22.37-.322-44.75.419-67.122 1.024" fill="#00cef1"/><path d="M205.636 13.667c3.247-3.85 9.153-5.256 13.01-2.139 2.501 2.02 3.817 5.517 6.518 7.21 2.311 1.447 5.198 1.29 7.67 2.378 3.528 1.554 5.863 5.983 5.017 10.012-.604 2.88-2.642 5.243-5.063 6.589-2.422 1.345-5.195 1.777-7.915 1.809-7.114.083-13.506-3.584-19.14-8.288-5.366-4.483-4.463-12.398-.097-17.57" fill="#004b7f"/><path d="M196.738 26.244s3.854-5.667 6.217-4.703c2.361.962 7.942 11.858 7.942 13.23 0 2.83-5.163 4.756-5.163 4.756z" fill="#00cef1"/><path d="M122.177 93.967s-18.022-17.638-24.43-10.68c-6.409 6.96 6.287 20.878 24.43 15.41z" fill="#ffccc3"/><path d="M115.1 60.242s3.161-38.592 54.535-43.561c51.373-4.972 51.831 74.122 51.831 74.122s-1.374 32.748-21.973 34.737l-38.451-59z" fill="#004b7f"/><path d="M111.272 103.256s-9.756-71.975 42.352-68.353c52.11 3.621 52.11 54.558 52.11 54.558s-39.684 58.61-94.462 13.795m94.462-9.289s18.02-17.638 24.43-10.68c6.408 6.96-6.288 20.878-24.43 15.41z" fill="#ffccc3"/><path d="M111.272 103.256s14.598 12.943 31.027 7.912c16.429-5.033 33.774 16.965 63.434-21.707h5.149s2.33 106.784-50.608 121.422c-52.938 14.637-99.695-12.808-62.205-69.069 0 0 13.49-15.442 13.203-38.558m15.138-60.689c2.988-1.63 6.592-1.301 9.779-.199 3.187 1.102 6.123 2.916 9.237 4.236 6.453 2.733 13.673 3.281 20.413 1.55 4.452-1.144 8.789-3.266 13.364-3.141 4.015.108 7.798 1.942 11.455 3.744l12.297 6.057c-6.792-11.115-17.062-19.676-28.704-23.93-11.644-4.253-24.587-4.173-36.186.224-4.833 1.83-9.617 4.558-12.575 9.092" fill="#004b7f"/><path d="M148.43 110.617V83.518l-6.413 14.797-2.55 8.275.386 7.382 2.55 2.098 3.167-1.594z" fill="#ffccc3"/><path d="M150.36 80.494c-2.017 4.506-3.97 9.046-5.648 13.693-1.234 3.416-3.04 6.566-4.043 10.085-.93 3.267-1.512 8.273 1.763 10.27.174.107.367.203.567.18.182-.024 1.312-.549 1.46-.666 1.338-1.06 2.26-2.524 3.468-3.73.324-.323.9-.603 1.136-.201.142.24.032.552-.087.807a14.188 14.188 0 01-3.545 4.698c-1.017.876-2.279 1.616-3.56 1.383-1.257-.228-2.243-1.37-2.731-2.65-1.815-4.773.369-10.194 1.81-14.708 2.171-6.808 5.266-13.276 8.3-19.727.352-.75 1.447-.187 1.11.566" fill="#d46c6c"/><path d="M166.463 85.413a2.54 2.54 0 01-1.581 3.218c-1.325.456-2.07-.486-2.523-1.808-.451-1.32.163-2.73 1.486-3.186 1.326-.456 2.167.454 2.618 1.776m-28.855 2.234c-.898 1.033-2.482 1.089-3.537.123-1.057-.965-.63-2.079.268-3.112.898-1.034 2.405-1.158 3.462-.193 1.055.966.705 2.149-.193 3.182" fill="#303030"/><path d="M172.163 77.55c-1.595-.566-3.01-1.242-4.49-2.085-1.385-.79-3.155-1.394-3.404-3.199-.105-.748.092-1.77.882-2.077 1.887-.738 2.992.257 4.575 1.298 1.492.983 2.817 1.998 4.124 3.233 1.265 1.192-.142 3.379-1.687 2.83m-37.311-6.935c2.182-.598 4.47-1.013 6.722-.696 2.227.316 2.285 4.267.027 4.632-2.258.364-4.541.016-6.73-.539-1.622-.414-1.676-2.943-.02-3.397" fill="#004b7f"/><path d="M155.401 133.583c2.806-1.715 4.818-4.874 4.899-8.211.013-.494-.019-1-.196-1.46-.542-1.415-2.29-1.939-3.764-1.712-1.472.226-2.815.991-4.249 1.412a9.244 9.244 0 01-5.16.001c-.984-.288-1.923-.742-2.933-.927-1.008-.183-2.154-.046-2.889.696-.714.724-.879 1.842-.842 2.868.288 8.32 8.816 11.199 15.134 7.333" fill="#a04340"/><path d="M174.092 100.633c-.241 1.65-2.981 2.547-6.117 2.003-3.139-.543-5.489-2.323-5.248-3.974.243-1.651 4.403-2.301 7.541-1.756 3.139.544 4.066 2.076 3.824 3.727m-50.821-1.675c.22-1.655 2.949-2.593 6.093-2.097 3.144.497 5.515 2.24 5.296 3.896-.22 1.654-4.372 2.369-7.517 1.871-3.144-.496-4.092-2.016-3.872-3.67" fill="#ffb0a0"/><path d="M137.22 39.577c4.205-3.935 8.009-8.612 12.82-11.701 5.199-3.339 11.046-4.4 16.756-6.177.288-.09.162-.52-.119-.474-12.695 2.043-21.051 8.166-29.955 17.81-.326.353.158.861.498.542m12.505 1.565c10.663-10.783 22.436-16.263 36.55-19.375.2-.045.156-.396-.048-.387-13.939.64-27.467 8.412-36.95 19.276-.282.321.15.788.448.486m14.787 4.167c9.306-7.88 19.236-12.119 30.3-16.172.327-.12.19-.604-.138-.548-11.26 1.878-21.884 8.545-30.59 16.256-.304.27.127.72.428.464m22.731-1.549c4.358-2.3 9.666-5.618 12.414-10.108.214-.353-.232-.878-.56-.607-1.938 1.606-3.56 3.631-5.495 5.267-2.12 1.797-4.39 3.328-6.78 4.665-.483.27-.06 1.038.42.784m12.648 8.976c3.3-2.22 6.944-6.197 7.397-10.606.042-.416-.532-.544-.704-.207-.89 1.744-1.434 3.615-2.507 5.267a18.631 18.631 0 01-4.551 4.867c-.38.281-.034.948.366.679m6.102 12.136c2.519-3.096 5.606-7.128 6.378-11.267.07-.374-.362-.573-.56-.257-1.064 1.68-1.725 3.657-2.687 5.416-1.07 1.96-2.309 3.79-3.666 5.529-.312.397.21.978.535.579m6.464 14.367c2.042-3.089 3.797-6.885 4.087-10.73.027-.382-.513-.444-.604-.09-.963 3.801-1.934 7.19-4.048 10.462-.242.377.322.727.565.359M114.976 119.5c-.035.948-.07 1.893-.082 2.842-.011.851-.106 1.728.128 2.55a.398.398 0 00.777 0c.23-.82.137-1.702.126-2.55-.011-.949-.047-1.894-.082-2.842a.434.434 0 00-.867 0m-.043 16.266c-.137 1.92-.865 3.416-1.465 5.181-.12.356.338.6.565.356 1.296-1.4 1.736-3.626 1.846-5.537.038-.663-.899-.654-.946 0m9.511 1.758c-.087 1.545-.523 3.444-.12 4.956a.407.407 0 00.795 0c.401-1.515-.035-3.41-.12-4.956-.023-.386-.534-.386-.555 0m29.69 6.605c.146 1.203.16 2.601.732 3.673.132.248.532.217.588-.083.231-1.215-.149-2.538-.361-3.73-.103-.58-1.031-.456-.96.14m10.654-5.286c-.005.883-.149 1.885.112 2.73.101.326.511.326.613 0 .261-.841.118-1.849.112-2.73-.004-.583-.832-.585-.837 0m3.971-15.237c.307 1.206.6 2.389 1.13 3.507.135.283.565.152.554-.162-.05-1.26-.334-2.449-.616-3.665-.174-.749-1.26-.428-1.068.32m12.5 2.325c-.596 1.622-.989 4.078-.264 5.71.187.421.828.313.92-.129.178-.856.059-1.744.091-2.616.037-.946.168-1.876.271-2.815.075-.683-.82-.686-1.018-.15m10.612-5.121c.068 1.702-.09 3.809.513 5.406.154.403.742.508.856 0 .377-1.688-.059-3.704-.232-5.406-.078-.771-1.17-.81-1.137 0m11.023-11.248c.542.787 1.006 1.572 1.224 2.54.199.88.105 1.784.261 2.673.081.454.613.419.819.115 1.277-1.883-.008-4.923-1.532-6.166-.444-.36-1.102.357-.772.838M102.846 148.5a11.237 11.237 0 00-1.729 3.113c-.353.985-.808 2.332-.333 3.328.186.389.66.313.86 0 .462-.717.405-1.763.64-2.6a9.41 9.41 0 011.409-2.92c.46-.647-.343-1.571-.847-.922m22.634-27.661a14.945 14.945 0 01-.895 1.924c-.3.539-.682.998-.815 1.618-.118.544.43 1.074.902.753 1.096-.745 1.652-2.65 2.06-3.919.283-.875-.94-1.19-1.252-.376m28.29-5.248c-.083.876-.362 1.946-.08 2.79.15.448.769.631 1.003.143.41-.858.27-1.986.295-2.933.024-.866-1.14-.83-1.218 0m7.052.879c-.014.877-.136 1.775.194 2.593.163.403.819.403.982 0 .329-.815.208-1.72.194-2.593a.686.686 0 00-1.37 0m-23.494.941c-.634.722-1.526 1.61-1.388 2.675.032.259.375.465.594.367.804-.362 1.133-1.383 1.67-2.092.497-.654-.316-1.59-.876-.95m-4.311 10.124c-.427.818-1.207 1.755-1.012 2.731.046.222.307.394.51.313.865-.353 1.155-1.531 1.562-2.37.366-.758-.669-1.423-1.06-.673m14-8.9c-.25.425-.348.878-.433 1.37-.06.349.051.593.3.801.168.139.305.108.503.071.22-.043.396-.274.455-.494.13-.484.241-.946.197-1.448-.05-.576-.714-.825-1.022-.3m-31.019 32.029c-.363.693-.782 1.4-.956 2.183-.11.485.397.74.723.456.577-.506.991-1.234 1.415-1.889.504-.774-.74-1.59-1.182-.75m15.833-.079c-.555 1.09-1.51 2.352-1.47 3.641.01.267.284.473.508.317 1-.691 1.416-2.231 1.928-3.345.317-.693-.616-1.3-.966-.613m13.989 1.679a11.21 11.21 0 01-.449 2.314c-.174.566-.45 1.035-.278 1.625.04.136.19.264.328.202 1.19-.525 1.3-2.93 1.386-4.141.048-.692-.926-.678-.987 0m-6.96-11.757c-.054 1.148-.438 2.213-.51 3.344-.028.463.526.522.733.215.65-.967.733-2.396.774-3.559.024-.697-.966-.693-.997 0m35.026 1.941c-.382.99-.934 2.363-.5 3.4.155.366.617.276.792 0 .288-.457.26-.897.354-1.435.1-.562.258-1.104.441-1.64.257-.748-.815-1.033-1.087-.325m15.274-2.995c-.044.703-.091 1.405-.137 2.106-.035.583-.106.936.302 1.347.112.112.328.176.464.065.831-.676.53-2.489.57-3.518.033-.842-1.144-.828-1.198 0m11.353-5.783a13.736 13.736 0 01-.52 2.375c-.212.678-.53 1.259-.402 1.984.057.317.411.413.644.283 1.227-.683 1.343-3.15 1.415-4.475.037-.695-1.048-.873-1.137-.166M93.533 166.9c-.418.758-.82 1.517-1.195 2.301-.322.67-.66 1.218-.52 1.977.069.382.489.493.768.34.652-.354.855-1.153 1.142-1.841.313-.756.598-1.517.873-2.289.244-.685-.737-1.085-1.068-.488m14.235-4.458c.03 1.015-.353 1.998-.285 2.988.032.468.612.861.946.427.753-.983.624-2.387.446-3.576-.102-.686-1.129-.52-1.107.161m13.871 1.193c-.4 1.006-.987 2.09-.985 3.211.002.476.534.695.841.379.712-.725 1.017-1.843 1.396-2.795.364-.921-.884-1.725-1.252-.795M98.55 177.71a12.104 12.104 0 01-.7 2.174c-.249.565-.61 1.082-.587 1.727.016.413.39.623.72.449 1.106-.58 1.483-2.83 1.693-4.012.14-.792-.94-1.14-1.126-.337m15.657 2.277c-.076.996-.434 2.13-.192 3.11.07.278.455.433.64.184.646-.877.639-2.215.731-3.294.068-.817-1.116-.818-1.179 0m-11.39 13.336c0 .618-.077 1.205-.237 1.8-.143.526-.357.966-.31 1.528.036.456.456.784.855.535 1.122-.706 1.174-2.626 1.05-3.863-.09-.924-1.358-.971-1.358 0m33.049-27.022c-.002 1.12-.232 2.533.246 3.556.134.285.562.285.695 0 .477-1.021.249-2.44.247-3.556-.001-.83-1.187-.832-1.188 0m-9.538 17.2a5.84 5.84 0 01-.228 1.887c-.148.522-.349.924-.2 1.464.075.276.336.438.594.367 1.268-.344 1.367-2.583 1.284-3.718-.074-.998-1.492-1.022-1.45 0m-5.868 18.595c-.057.858-.506 2.49.204 3.098.134.114.3.164.457.064.84-.533.562-2.244.608-3.162.044-.889-1.21-.878-1.269 0m20.4-2.807c-.037.918-.241 1.913.13 2.76.173.395.785.395.958 0 .368-.839.167-1.848.13-2.76a.61.61 0 00-1.218 0m6.498-22.16c.23.996.136 1.997.319 2.983.086.473.72.422.834 0 .272-1.009-.047-2.258-.338-3.226-.167-.56-.95-.335-.815.243m12.045-16.267c-.053 1.078-.232 2.238.046 3.293.137.516.73.434.894 0 .38-1.013.312-2.22.369-3.293.05-.914-1.265-.913-1.31 0m19.958-7.195a40.135 40.135 0 01-.1 2.021c-.044.602-.16 1.206.003 1.791a.4.4 0 00.744.105c.609-1.012.474-2.75.482-3.917.006-.79-1.111-.788-1.128 0m-9.591 18.249c-.01 1.001-.27 2.358.216 3.242a.46.46 0 00.819 0c.486-.887.225-2.239.214-3.242-.009-.871-1.24-.873-1.248 0m23.517-15.427c-.214 1.274-.776 3.402-.118 4.577.15.265.495.259.644 0 .318-.547.298-1.155.33-1.79a25.94 25.94 0 01.233-2.462c.107-.764-.955-1.109-1.089-.325m-12.741 21.744c-.06.639-.151 1.267-.29 1.893-.12.545-.334 1.05-.281 1.617.048.51.647.922 1.022.459.783-.961.82-2.737.898-3.97.061-.948-1.263-.925-1.349 0" fill="#006696"/><path d="M180.547 178.234a52.7 52.7 0 00-.62 2.137c-.168.64-.364 1.205-.117 1.845.138.356.505.51.791.227.461-.456.522-1.026.654-1.674.15-.73.316-1.454.497-2.175.21-.848-.948-1.181-1.205-.36m31.823-70.277c1.212-.465 2.242-1.124 3.157-2.113.658-.711 1.849-2.028 1.568-3.137-.041-.165-.22-.293-.377-.233-.865.332-1.356 1.619-1.953 2.329a14.242 14.242 0 01-2.67 2.446c-.323.226-.124.862.276.708m-3.062-86.853c1.306-1.048 2.663-2.003 4.145-2.735 1.634-.808 3.401-1.112 5.045-1.84.44-.196.393-.876-.114-.913-3.432-.258-7.184 2.354-9.48 4.922-.252.281.089.819.404.566m.513 3.546c4.35-.33 9.95-.83 13.607-3.6.298-.225.105-.664-.237-.61-2.101.328-4.121 1.33-6.183 1.9-2.366.657-4.754 1.065-7.187 1.305-.585.059-.6 1.052 0 1.006m1.154 4.649c6.197 1.104 13.335 1.152 19.086-1.959.435-.235.115-.9-.315-.808-6.328 1.352-11.994 2.69-18.498 1.69-.643-.098-.93.96-.273 1.077" fill="#006696"/><path d="M221.764 204.918l-27.293 13.072 9.678 31.811 33.875.365s-7.83-29.023-16.26-45.248" fill="#ffccc3"/><g clip-path="url(#a)" opacity=".22" transform="matrix(1.41825 0 0 -1.54004 -204.477 535.844)"><path d="M214.037 275.17c-.377-.032-.664-.017-.955-.274-.152-.134-.152-.42 0-.555.291-.258.578-.242.955-.274.708-.058.71 1.161 0 1.102" fill="#303030"/></g><g clip-path="url(#b)" opacity=".22" transform="matrix(1.41825 0 0 -1.54004 -204.477 535.844)"><path d="M208.953 268.639c.716 0 .717 1.113 0 1.113-.716 0-.718-1.113 0-1.113" fill="#303030"/></g><g clip-path="url(#c)" opacity=".22" transform="matrix(1.41825 0 0 -1.54004 -204.477 535.844)"><path d="M284.54 289.028c.647 0 .648 1.008 0 1.008-.649 0-.65-1.008 0-1.008" fill="#303030"/></g><g clip-path="url(#d)" opacity=".22" transform="matrix(1.41825 0 0 -1.54004 -204.477 535.844)"><path d="M282.166 294.44c.663 0 .665 1.03 0 1.03-.663 0-.665-1.03 0-1.03" fill="#303030"/></g><g clip-path="url(#e)" opacity=".22" transform="matrix(1.41825 0 0 -1.54004 -204.477 535.844)"><path d="M297.419 201.212c.686 0 .687 1.066 0 1.066s-.687-1.066 0-1.066" fill="#303030"/></g><g clip-path="url(#f)" opacity=".22" transform="matrix(1.41825 0 0 -1.54004 -204.477 535.844)"><path d="M302.164 196.513c.626 0 .627.973 0 .973-.626 0-.627-.973 0-.973" fill="#303030"/></g><g clip-path="url(#g)" opacity=".22" transform="matrix(1.41825 0 0 -1.54004 -204.477 535.844)"><path d="M300.13 205.448c.032 0 .032.05 0 .05s-.032-.05 0-.05" fill="#303030"/></g></g></svg>