<svg version="1.0" xmlns="http://www.w3.org/2000/svg" width="802.667" height="802.667" viewBox="0 0 602 602"><path d="M303.5 74.1c-1.6.6-9.3 1.8-17 2.9-7.7 1-14.8 2.1-15.7 2.5-1.1.4-1.8.3-1.8-.3 0-.7-1.4-.6-4.1.3-3.6 1.3-4 1.3-3.5 0 .3-.8.3-1.5 0-1.5-1.3 0-6.4 3.5-6.4 4.3 0 .5-.7.6-1.5.3-1-.4-1.9.2-2.4 1.6-.7 1.9-.8 1.9-1.4.4-.4-1-.5-2.2-.1-2.7.3-.5.1-1.6-.4-2.5-1.3-2.4-6.4 2.3-10.4 9.7-1.8 3.2-3.8 5.9-4.5 5.9-.7 0-1.3.7-1.3 1.6 0 1-.6 1.4-1.5 1-.9-.3-1.5 0-1.5.8 0 .7-.6 1.9-1.4 2.5-1.1.9-1.5.7-2-1.3-.5-2.2 1-8.4 2.3-9.6 1-.8 3.1-7.3 2.6-7.9-.3-.3-1.2.5-2.1 1.7-.8 1.2-2.1 2.2-2.9 2.2-1.3 0-6.5 9.6-6.5 11.9 0 .6-.4 1.1-1 1.1-.9 0-1.4-2.3-1.3-5.8.1-2.2-1.6-1.3-2.3 1.3-.4 1.5-1.6 2.8-2.9 3.1-1.8.5-2.4 1.5-2.9 5.4-.7 5.5-1.9 6.8-4.3 4.8-1.2-.9-1.5-.9-.9-.1.4.8.2 1.3-.4 1.3-.7 0-1 .7-.6 1.7.4 1.1-.2.8-1.4-.7-1.1-1.4-2-3-2-3.7 0-2.9-3.1.3-3.6 3.8-.4 2.4-1.2 3.9-2.1 3.9-1 0-1.2.7-.8 2.2.5 1.8.1 1.5-1.7-.9-3.7-5.2-4.3-3.8-.9 2.2s3.4 10.8 0 6.4c-1.8-2.4-1.9-2.4-1.9-.2 0 2.4 4.5 8.3 6.4 8.3 1.3 0 4.6 3.1 4.6 4.2 0 .3-.9.8-2 1.1-1.4.4-2 0-2-1.3 0-2.3-2.6-4.5-3.5-3-.3.5.1 1.3.9 1.6.9.3 1.6 1 1.6 1.5 0 1.2-3.7 1.1-4.5-.1-.4-.6-1-.8-1.5-.5-.5.3-1.3-.3-1.9-1.2-.5-1-1.3-1.5-1.6-1.1-.4.4 0 1.7.9 3 .9 1.2 1.6 3.2 1.6 4.4 0 1.2 1.3 3.5 3 5 2.1 2 2.6 3.1 1.7 3.6-.9.6-.9.8 0 .8 1.8 0 .5 5.8-2.1 9.3-1.2 1.6-2.1 4.7-2.3 7.5-.1 2.6-.5 6.9-.8 9.7-.4 2.7-.8 15.8-.9 29-.2 14.5-.7 25.1-1.4 26.6-.6 1.5-.8 2.9-.6 3.2.3.3.6 4.1.6 8.6.1 4.5.5 8.1 1 8.1.4 0 .8.6.8 1.4 0 .8.3 1.6.8 1.9.4.2 0 .1-.8-.1-4.5-1.6-8.5-.7-9.8 2.2-4.3 8.7-.2 47.1 6.4 59.7.8 1.6 1.4 4.8 1.4 7.3 0 6.1.7 7.4 5.1 9.6 4.5 2.4 9.7 2.6 10.5.5.9-2.3-2.6-21.6-4.7-26.1-1-2.2-1.9-4.6-1.9-5.2 0-.7-1.6-1.2-4-1.2-4.5 0-4.7-.3-5.4-7.5-.2-2.8-.5-5.3-.5-5.8-.1-.4-.7-.7-1.5-.7-.9 0-1.8-2.2-2.6-6.5-1.2-6.5-.7-13.5 1-13.5.5 0 .7-.6.4-1.4-.3-.8.2-2.3 1.2-3.4 1.6-1.9 1.9-1.9 4-.6 2.6 1.7 4.4 6.2 4.4 10.8 0 1.8.4 3.6.9 4.2.5.5 1.1 4.2 1.3 8.1.4 8.5 2.1 9.3 2.6 1.2.2-3.2 1-6.1 1.9-7.2 1.3-1.4 1.9-5.9 2.8-22.7 1-19.2 1.2-21.2 3.3-23.7 5.3-6.6 5.6-7.5 6.5-17.7.9-10.8 1.7-29.8 1.8-43.5.1-8.8 2-15.3 5.4-18.1 1.2-1 4.3-1.5 9.9-1.6 9.1-.1 14.6-.9 19.3-3 1.7-.8 3.9-1.4 5-1.4 1 0 2.7-.6 3.8-1.3 3.5-2.4 13.3-3.8 17.6-2.6 2.1.7 4.9.8 6.6.4l2.8-.8-2.5-.7c-2.5-.8-2.5-.8.4-.9 1.6-.1 5.3.7 8.2 1.6 4.6 1.4 5.9 1.5 9.4.3 3.1-1 4.6-1.1 6.5-.2 3 1.4 13.4 1.5 18.8.3 2.7-.6 5.3-.5 9 .6 2.8.9 5.9 1.8 6.7 2 1.1.3 1.1.6.2 1.2-.8.5.8 2.6 5.2 6.8 6.1 5.6 10.1 7.7 8.9 4.6-.3-.8.2-1.3 1.6-1.3 1.2 0 2.1.4 2.1 1 0 .5 2.4 3.4 5.3 6.5 6 6.1 12.3 17.7 13.3 24.2.7 4.6 1.7 5.2 5.2 2.7 2.4-1.7 2.7-1.1 2.2 4.3-.1 2.1 2.5 14.9 5.2 24.8.5 2.2 1.8 5.1 2.8 6.5 2.5 3.6 4.1 11.3 4.1 19.4-.1 8.6 1.8 25.4 3.1 27.9 1.8 3.5 4 1.3 6.4-6.5 2.6-8.2 5.6-12.7 8.9-13.2 2.3-.4 5.5 2 5.5 4.2 0 .9.8 2.4 1.7 3.5 3 3.3 1.8 19.5-1.3 18.3-1.1-.4-1.4.7-1.5 5.2-.1 9.8-.9 11.3-6.8 13.8-4.2 1.7-8.1 5.2-8.1 7.1 0 1.7 1 1.6 3.4-.2 3.3-2.5 5.3-1.9 5.9 1.7.2 1.8.1 4.1-.4 5-.5.9-.9 2.6-.9 3.7 0 1.2-.4 2.1-.9 2.1s-.8.8-.7 1.7c.1 1.2-.5 1.7-1.6 1.5-1-.2-1.8.2-1.8.7 0 .6-3 1.1-6.6 1.3-6.3.3-6.9.5-9.6 3.9-1.6 2-3.5 5.8-4.3 8.5-4.9 17.7-6.3 23-5.9 23.5.2.4-.4 2.8-1.3 5.5-1.2 3.5-1.3 4.9-.5 5.2.7.2 1.2 1.3 1.2 2.3 0 1.1.4 1.8.9 1.4 1.8-1.1 2.1 1.3.6 6.1-1.1 3.6-1.4 10.3-1.5 25.2 0 11.2-.2 20.8-.6 21.3-1.8 3 5.1 20 7.5 18.4 1-.6 6.6 12.5 8.1 18.7 2 8.7.3 26.5-3.9 40.5l-1.9 6.3h2.1c1.8 0 1.9-.2.7-1-1.2-.7-1.3-1.3-.4-2.8 1.2-1.8 2.9-8.2 2.6-9.4-.1-.4.5-3.6 1.3-7 1.4-6.5 2.6-36.5 1.3-34.5-.5.7-.8.8-.8.2 0-.6.5-1.6 1.1-2.2 1.3-1.3-2.4-8.4-7.3-14.1l-2.8-3.3.5-19.2c.3-10.6.7-25.5.9-33.1.2-7.7 0-15.1-.5-16.4-.7-1.7-.5-3.9.5-7.1.8-2.5 3.1-10.9 5.1-18.6 1.9-7.7 3.9-14.3 4.4-14.8.4-.4 1.5.3 2.4 1.7 4.9 7.4 17.1 1.6 17.3-8.3 0-5 .5-7 6.5-26 5.3-16.8 6.1-29.4 2.7-39.1-2.1-5.8-2.6-6.5-5.2-6.8-3.1-.4-7.5 1.4-8.9 3.6-1.1 1.7-2.7.6-2.7-2 0-1.3.5-1.8 1.4-1.5 1.1.4 1.3-.1 1.1-2.2-.2-1.5-.6-14.4-.9-28.7-.3-14.2-.6-26.1-.6-26.4-.5-5.2-.3-16 .2-16 .4 0 1.6 1.7 2.7 3.7l2 3.8.1-3.8c0-2.1-.4-5.7-1-8-.5-2.3-1.4-8.7-1.8-14.2-.6-7.4-1.5-11.3-3.3-14.8-3.2-6.4-14.2-21.6-20.6-28.7-2.9-3.1-5.3-6.6-5.3-7.6 0-2.2-4.2-8.4-6.6-9.7-.8-.5-4.7-1.9-8.7-3.3-3.9-1.3-8.8-3.6-10.8-4.9-4.2-3-17.9-8.9-22.9-10-1.9-.4-6.9-1.8-11-3-9.4-2.9-15.6-3.6-19.5-2.4zM247 80.5c0 .3-.2.5-.5.5s-.5-.2-.5-.5.2-.5.5-.5.5.2.5.5zm75.1 2.4c4.3.6 9.7 1.9 12 3 2.4 1.2 6.3 2.5 8.6 3.1 3.6.9 8 3.7 7.1 4.5-.2.2-5.4-.5-11.5-1.6-8.4-1.4-11.8-2.4-13.4-4-1.4-1.4-2.6-1.8-3.7-1.3-.9.5-4.2.7-7.2.6-3-.1-12.2-.4-20.5-.7-8.2-.2-15.2-.5-15.4-.5-.2 0-.2-.2.1-.5.3-.3 5.6-1 11.7-1.5s11.9-1.4 12.8-2c1.9-1.1 6.2-.9 19.4.9zm-79.2 3.8c-1 2.1-1.9 4.3-1.9 5.1 0 .7-.4 1-1 .7-1-.6.9-5.3 3.2-8.3 1.8-2.1 1.7-1.3-.3 2.5zm3.1-.2c-.7.8-.9 1.5-.6 1.5.4 0 .2.9-.4 2-.6 1.1-1.6 2-2.2 2-.9 0-.9-.3 0-1.2.7-.7 1.2-1.8 1.2-2.5 0-1.5 2.2-4.3 2.9-3.7.2.2-.2 1-.9 1.9zm8-2.1c0 .3-.5.8-1.2 1.2-.7.4-.8.3-.4-.4.7-1.2 1.6-1.6 1.6-.8zm22.3 2.3c-.7.2-2.1.2-3 0-1-.3-.4-.5 1.2-.5 1.7 0 2.4.2 1.8.5zm-25.3.8c0 .3-.2.5-.5.5s-.5-.2-.5-.5.2-.5.5-.5.5.2.5.5zm3 0c0 .3-.2.5-.5.5s-.5-.2-.5-.5.2-.5.5-.5.5.2.5.5zm40.4.2c6.1.5 6.7.8 5.1 2-1.1.7-3.7 1.3-5.9 1.3-2.9 0-3.7-.3-2.7-.9 1.5-1 .4-1.4-5.9-2.4l-2.5-.4 2.5-.2c1.4 0 5.6.2 9.4.6zm-46.7 2c-.4.3-.7 0-.7-.7s.3-1 .7-.7c.3.4.3 1 0 1.4zM283 92c7 2.4 8.4 2.4 17.2 0 8.9-2.4 11.9-2.5 22.8-.2 7.6 1.7 18.5 6 15.2 6.2-.7 0-2.6-.7-4.1-1.4-1.5-.8-5.2-1.8-8.2-2.1l-5.4-.6 7.5 2.2c4.1 1.2 8.9 2.2 10.5 2.2 13.9 0 36.5 6.9 36.5 11.1 0 .6 3 4 6.7 7.6 14.3 13.9 16.3 16 16.3 17.2-.1.7-1.7-.5-3.6-2.7-2-2.2-4.1-4.1-4.7-4.1-.7-.1-1.8-.2-2.5-.3-.7 0-1.1-.5-.8-1 .8-1.2-6.3-9.1-8-9.1-.8 0-1.4-.4-1.4-.9 0-1.3-4.3-2.2-5.4-1.1-1.4 1.4-4 1.2-7.3-.4-6.9-3.4-15.2-6.7-19.3-7.6-6.9-1.5-18.2-1.2-20.4.5-1.1.8-3 1.5-4.2 1.5-1.3 0-2.5.4-2.8.9-.7 1.1 2.8 2.1 7.4 2.1 3.7 0 11.4 3.3 10.3 4.4-.5.5 2.6 3.5 6 5.7.6.4.6 1.7.1 3.3l-.9 2.6-3.2-2.2c-1.8-1.3-3.5-3.1-3.9-4-1.2-3.9-3.3-4.8-11-4.8-5.7 0-7.6.4-8 1.5-.4.8-1.3 1.5-2.1 1.5s-1.1.4-.8 1c1 1.6-.7 1.2-2.7-.7-1.6-1.5-2.1-1.5-5.5 0-2.1.8-5.1 1.8-6.8 2.1-2.9.6-2.9.6-1-1 2.2-1.7 2.8-1.7-5.9.1-1.4.3-3.6 0-5-.7-2.1-.9-3.3-.8-6.5.6-3.3 1.5-4.2 1.6-6.1.4-1.8-1-2.4-1-2.7-.1-.3.7-1.7 1.3-3.1 1.4h-2.7l2.5 1.1c1.4.6 3.9 1.7 5.7 2.4 4.4 2 7.1 1.7 14.3-1.2 4.4-1.8 6.6-2.2 7.3-1.5.6.6 2.8 1.1 4.9 1.1 3 0 3.6-.3 3.1-1.6-.5-1.5.4-1.6 8.8-.9 9.8.7 14.4 2.4 7.3 2.6-3.1.2-2.6.4 2.6 1.1 9.8 1.4 11.1 1.8 10.5 2.8-.3.6.2 1 1.2 1 1.1 0 2.4.5 3 1.1.7.7 2 .9 3 .5 1.7-.7 1.7-.8.1-1.7-1-.6-1.8-1.4-1.8-1.9 0-1.7 14.6 6.7 18.9 10.9 2.9 3 4.6 4 5.3 3.3 1.3-1.3 6.1 1.5 5.2 2.9-.3.5.1.9.9.9s3.3 2 5.6 4.5c2.2 2.4 4.1 3.9 4.1 3.3 0-1.9-17.1-18.3-20.7-19.9-1.8-.7-3.3-1.7-3.3-2.2 0-.4-1.6-1.5-3.5-2.4-4.4-2.1-4.5-3.3-.1-3.3 3.8 0 5.6 1.5 2.9 2.4-1 .3-.5.4 1.2.2 3-.4 11.5 3.4 16.4 7.2 1.5 1.2 3.3 1.7 5 1.4 2.3-.5 1.8-.9-4.4-3.8-3.9-1.9-6.5-3.4-5.8-3.4 2.8 0-.2-3.8-4-5-3.7-1.1-4-1.3-2.3-2.5 2-1.5 6.1-.7 10.3 2.2 1.6 1.1 5.7 3.2 9.2 4.6 6.4 2.8 9 4.4 16 10.4 2.1 1.8 4.2 2.9 4.6 2.5.5-.4.4-.1 0 .7-.6 1.1-.4 1.3.9.8 1-.4 1.5-.3 1.1.3-.3.6-.2 1 .4 1 .6 0 1.6 1 2.2 2.2.9 1.9.9 2.1-.2 1-2.7-2.5-2.6-1 .3 4.3 1.6 3 2.5 5.5 1.9 5.5-1.6 0-1.3 1.6.5 3.4 2.2 2.3 1.3 7.6-2.4 13.1-1.7 2.6-2.8 5.3-2.5 6.1.3.7-.1 1.6-.8 1.9-1 .4-1.4 2.1-1.2 5.5 0 2.8-.3 5.3-.8 5.6-.8.5-1.1-.7-1.4-7.3 0-1.2-.5-2.6-1-3-.4-.4-.5-.3-.2.3.6 1.1-1.9 2.9-3.5 2.6-.5-.1-.8.3-.8.9 0 .6-.6.9-1.4.6-.9-.4-1.6.3-2 1.9-1.3 4.8-3.3 2.1-2.8-3.9.1-.9-.2-1.7-.7-1.7-.5 0-1.5-1.7-2.1-3.8-1.6-5-10.2-22.2-11.2-22.2-.4 0-.8.4-.8 1 0 1.8-1.9 1-2.5-1-1-3.1-8.1-10-10.3-10-1 0-2.3 1-2.8 2.1-1 2.1-1.1 2-5.8-2-6.3-5.5-9.3-6.9-16.1-7.7-4.8-.6-5.6-1-5.2-2.5.3-1.2-.2-1.9-1.7-2.2-1.1-.3 1.7-.3 6.4-.1 8.5.4 8.5.4 5-1.2-2.6-1.2-5.2-1.5-10.5-1.1-6.3.6-7.4.4-11.4-2-4.5-2.6-5.5-2.6-13.1.4-1.3.5-1.3.4-.2-1 1.1-1.3 1-1.6-.5-2.1-4.8-1.4-18.3-.1-18.3 1.8 0 1.4 7.4 5.9 8.3 5 .3-.3.8-.1 1.1.4 1.1 1.8-10.8 2.2-20.8.7-5.5-.8-10-1.5-10.1-1.5-.8 0-1.1-4-.3-4.8.5-.5.3-1.3-.5-2.1-1.1-.9-2.4-.7-5.8.8-2.4 1.1-4.7 1.7-5.1 1.5-.4-.3-.8 0-.8.5 0 .6-.9 1.1-1.9 1.1-1.1 0-2.3.4-2.6 1-.9 1.5-2.2 1.2-2.9-.5-.7-1.9 1.4-5.5 3.1-5.5.7 0 1.3-.5 1.3-1 0-.6.7-1 1.5-1 2.7 0 6.5-4.1 5.9-6.5-.5-2 .9-4.1 3.1-4.5 3.1-.6 8.4-3.4 8.9-4.6.4-1 .1-1.1-1.2-.4-1.9 1-13.4 5-14.6 5-.4 0-.4-.5-.1-1 .3-.6-.1-1-1-1s-1.3.4-1 1c.3.5-.3 1-1.4 1-1.1 0-2.3.4-2.6 1-.3.5-.1 1 .6 1s.6.8-.5 2.4c-.9 1.4-1.3 3.2-1 4 .3.9.2 1.6-.4 1.6-.6 0-1.2-.4-1.4-.9-.1-.5-2.2 0-4.6 1.1-2.5 1.2-4.1 2.6-3.8 3.3.5 1.5-2.9 5.5-4.8 5.5-1.7 0-9.8 8.9-9.1 10 .3.5.1 1.1-.4 1.4-.5.3-1.2-.2-1.6-1.2-.6-1.6-.7-1.6-1.7.1-.7 1.3-.6 2.7.2 4.8 1.1 2.6 1 3.3-.7 5.2-2.6 2.9-8.2 15.9-8.7 20-.2 1.8-.4 3.6-.5 4.2-.1.5-.6.3-1.2-.5-.8-1.1-.9-.6-.5 2 .5 2.6.3 3.1-.5 2s-.9-.8-.5 1.5c.3 1.7-.1 4-.9 5.5-1.7 2.9-2 1.4-.5-2.7 1-2.7.9-2.7-.6-.8-1 1.4-1.4 3.1-1 5.5.3 1.9.6 4.3.6 5.2 0 1 .7 1.8 1.5 1.8.9 0 1.5-.9 1.5-2.3 0-1.2.6-3.1 1.4-4.2.7-1.1 1.5-4.4 1.8-7.3.3-2.9.9-5.7 1.5-6.3 1.5-1.5.6 11.2-1.1 15.2-.8 2-1.8 6.1-2.1 9.2-.3 3-1.2 6.8-2 8.3-.8 1.6-1.5 5.2-1.5 8.1 0 6-.7 8.3-2.5 8.3-1.6 0-3.1-13.6-1.9-17.7.4-1.6.8-7.1.9-12.4.2-6.6.7-10.3 1.8-12 .8-1.3 2.2-5.2 3.1-8.6.9-3.5 2.5-8.1 3.6-10.4 3.6-6.9 1.6-5.4-3.3 2.6-4 6.4-4.8 8.6-5.3 14.5-.9 8.9-2.4 10.1-2.4 2 0-4.6.5-6.9 2-9.1 1.2-1.5 2.3-5.2 2.6-8.1.7-5.7 2.4-10.8 3.7-10.8.5 0 2.4-1.6 4.2-3.6 3.4-3.6 3.4-3.7 1.9-7.2-1.8-4.5-2.1-4.7-3.6-3.4-1 .8-1.4-.2-1.7-4.6-.8-10.9-.6-13.4 1.3-14.8 1.1-.7 1.9-2.7 2-4.3.1-1.9.5-2.6 1-2 .6.5 1.7.9 2.6.9.9 0 1.6.8 1.6 1.9 0 1.1-.3 1.8-.6 1.6-1.2-.8-4.4 6.1-4.7 10-.1 2.2-.5 5-.8 6.1-.5 2.3.7 3.8 4 4.7 1.7.5 2.5-.5 5.3-6.1 1.7-3.7 3.2-7.4 3.2-8.3 0-2.1 3.6-5.4 4.4-4.1 1.4 2.2 9.6-1.5 9.6-4.3 0-1.2-4.7-.3-6.9 1.4-3.6 2.7-5.9 1.5-3-1.5 1.2-1.3 2-2.6 1.8-2.9-.5-.4-4.5.5-8.1 2-2.4 1-2.4-2.3 0-5 3.6-4.1 11.2-9 11.2-7.1 0 .3-.4 1.6-1 3-1 2.8 0 3.4 2.2 1.3 1.1-1.2 7.5-4.7 8.5-4.7 1.2 0-.1 1.9-2.2 3-1.7.9-2.5 2.1-2.4 3.9.1 1.8.3 2.1.6.8.4-1.4 1.1-1.7 3.3-1.2 1.7.4 4.4-.1 7.1-1.3 14.3-6.3 17.9-7.4 18.6-5.5.3.7-.2 1.3-1.1 1.3-.9 0-1.6.4-1.6 1 0 .5 1.8.9 4 .8 4.5-.1 5-.9 1.8-2.7-1.3-.6-1.5-.9-.6-.7 1 .3 2.4-.1 3.2-.9.8-.8 1.8-1.5 2.2-1.5.5 0 .3.5-.4 1.2-1.4 1.4-1.6 3.2-.2 2.3 2.5-1.5 11.7-1.5 18.7 0 10.6 2.4 25.5 3.2 32.8 1.9l4-.7-3-1.3-3-1.2 2.5-1.1c2.3-1 2.2-1.1-.8-.5-1.8.3-3.9.1-4.6-.5-.8-.7-6.5-1.2-14-1.2-8.8-.1-12.6-.5-12.3-1.3.4-1.3 10.1-3.3 21.2-4.3 4.7-.4 6.7-.9 5-1.1-3.7-.5-24.8 1.7-29.3 3-1.9.6-6.2 1.2-9.6 1.3-3.4.2-7.9.7-10 1.1-2.5.4-3.7.3-3.3-.3.9-1.5-7.2.1-11.1 2.2-1.8.9-5.6 3.2-8.4 5.1-2.8 1.9-5.2 3.3-5.4 3.1-1.1-1 2-6.6 4.2-7.6 1.4-.6 4.3-2.5 6.3-4.2 3-2.3 5.7-3.3 12-4.4 4.5-.8 9-1.9 9.9-2.5 2.5-1.4 6.1-1.1 12.2 1zm-35 1.9c0 .5-.9 1.1-2 1.4-1.1.3-2 .1-2-.3 0-.5.8-1.1 1.8-1.3.9-.3 1.8-.5 2-.6.1 0 .2.3.2.8zm99 .6c0 .3-.2.5-.5.5s-.5-.2-.5-.5.2-.5.5-.5.5.2.5.5zm14 0c0 .3-.2.5-.5.5s-.5-.2-.5-.5.2-.5.5-.5.5.2.5.5zm-118 1c0 .3-.2.5-.5.5s-.5-.2-.5-.5.2-.5.5-.5.5.2.5.5zm108 .5c.8.5 1.1 1 .5 1-.5 0-1.7-.5-2.5-1s-1-1-.5-1c.6 0 1.7.5 2.5 1zm-136 3.8c0 .5-.7.9-1.5.9s-1.5-.4-1.5-.9c0-.4.7-.8 1.5-.8s1.5.4 1.5.8zm3.4 1.7c.3.8.1 1.5-.4 1.5-.6 0-1-.7-1-1.5s.2-1.5.4-1.5.6.7 1 1.5zm7.6 1c0 .3-.2.5-.5.5s-.5-.2-.5-.5.2-.5.5-.5.5.2.5.5zm117 8.4c0 1-7 2.9-8.8 2.3-2.1-.7-1.3-2.1 1.6-2.5 5-.8 7.2-.7 7.2.2zm-136.3 1.8c-.4.3-.7 0-.7-.7s.3-1 .7-.7c.3.4.3 1 0 1.4zm176.3-.2c0 .3-.2.5-.5.5s-.5-.2-.5-.5.2-.5.5-.5.5.2.5.5zm-178 1c0 .3-.2.5-.5.5s-.5-.2-.5-.5.2-.5.5-.5.5.2.5.5zm143.2 1.8c.7.7 2.6 2.1 4.2 3.1 2 1.3 2.5 2 1.6 2.6-1.5.9-9.2-.9-8.4-2.1.3-.5-.7-1.4-2.3-2-2.2-.8-2.4-1.2-1.3-1.9 2.1-1.3 4.6-1.2 6.2.3zm37.3-.3c.3.5.4 1 .1 1-.3 0-.8-.5-1.1-1-.3-.6-.4-1-.1-1 .3 0 .8.4 1.1 1zm-184.1 2.6c.9 2.2-.3 3.2-1.4 1.4-1.2-1.9-1.2-3-.1-3 .5 0 1.2.7 1.5 1.6zm4.4.3c.3.8-.1 1.2-.9.9-.7-.2-1.5-1-1.7-1.7-.3-.8.1-1.2.9-.9.7.2 1.5 1 1.7 1.7zm112.9 1.7c-.3.3-1.2.4-1.9.1-.8-.3-.5-.6.6-.6 1.1-.1 1.7.2 1.3.5zm-73.2 1.4c-.3.5-1.2 1-1.8 1-.7 0-.6-.4.3-1 1.9-1.2 2.3-1.2 1.5 0zm-28.3 3c-.9 1.6-1.9 2.5-2.1 1.9-.3-.9 2.6-4.9 3.5-4.9.2 0-.5 1.3-1.4 3zm54.8-.5c0 .3-.2.5-.5.5s-.5-.2-.5-.5.2-.5.5-.5.5.2.5.5zm74.7.1c-.3.3-1.2.4-1.9.1-.8-.3-.5-.6.6-.6 1.1-.1 1.7.2 1.3.5zm-13.7.9c0 .3-.2.5-.5.5s-.5-.2-.5-.5.2-.5.5-.5.5.2.5.5zm-138 1c0 .3-.2.5-.5.5s-.5-.2-.5-.5.2-.5.5-.5.5.2.5.5zm149 0c0 .3-.2.5-.5.5s-.5-.2-.5-.5.2-.5.5-.5.5.2.5.5zm-149 3c0 .3-.2.5-.5.5s-.5-.2-.5-.5.2-.5.5-.5.5.2.5.5zm1.7 2.2c-.4.3-.7 0-.7-.7s.3-1 .7-.7c.3.4.3 1 0 1.4zm101 3c-.4.3-1 .3-1.4 0-.3-.4 0-.7.7-.7s1 .3.7.7zm-86.2 5.1c-.8.8-2.5-1.7-2.5-3.8 0-.9.6-.6 1.6.8.9 1.3 1.3 2.6.9 3zm24.9-3.2c2.7-.1 4.4 0 3.8.2-.6.2-.9.9-.6 1.7 1.4 3.5-8.2 4.7-11.2 1.4-1.8-2-1.8-2.1.1-3.5 1-.8 2.1-1 2.4-.5.3.5 2.8.8 5.5.7zm119.6.9c0 .3-.2.5-.5.5s-.5-.2-.5-.5.2-.5.5-.5.5.2.5.5zm2 2c0 .3-.2.5-.5.5s-.5-.2-.5-.5.2-.5.5-.5.5.2.5.5zM195 140c0 .5-.2 1-.4 1-.3 0-.8-.5-1.1-1-.3-.6-.1-1 .4-1 .6 0 1.1.4 1.1 1zm4 .5c0 .3-.2.5-.5.5s-.5-.2-.5-.5.2-.5.5-.5.5.2.5.5zm-2 1c0 .3-.2.5-.5.5s-.5-.2-.5-.5.2-.5.5-.5.5.2.5.5zm18 3c0 .3-.2.5-.5.5s-.5-.2-.5-.5.2-.5.5-.5.5.2.5.5zm32 2c0 .3-.2.5-.5.5s-.5-.2-.5-.5.2-.5.5-.5.5.2.5.5zm150 51.8c0 1.3.4 2.7.9 3.2 1.1 1.3 3.3 10.6 2.7 11.2-.3.3.1 2.1.9 4 1.3 3.1 1.3 3.4 0 2.9-1.1-.4-1.3.1-.8 2.4 1 5.3-1.5 3.2-2.7-2.3-.7-2.8-2.5-7.8-4.1-10.9-2.9-5.8-3-7.7-.1-11.1 2.1-2.3 3.2-2.1 3.2.6zm12 56.8c0 .5-.4.9-1 .9-.5 0-1-.7-1-1.6 0-.8.5-1.2 1-.9.6.3 1 1 1 1.6zM192 309c1 .5 2.1 2.3 2.5 4 .4 1.6 1 3 1.5 3 .4 0 .8 2 .8 4.5.1 2.9-.3 4.5-1.1 4.5-2.3 0-3.9-1.8-4-4.4-.1-1.4-.5-2.6-.9-2.6-.5 0-.8-.7-.8-1.5s-.4-1.5-1-1.5c-.5 0-1-1.6-1-3.5 0-3.6.9-4.2 4-2.5zM324 84.5c0 .3.2.5.5.5s.5-.2.5-.5-.2-.5-.5-.5-.5.2-.5.5zm-22.2 15.2c1.8.2 4.5.2 6 0s0-.4-3.3-.4-4.5.2-2.7.4zm27 0c.7.3 1.6.2 1.9-.1.4-.3-.2-.6-1.3-.5-1.1 0-1.4.3-.6.6zm-88.8 6.8c0 .3.2.5.5.5s.5-.2.5-.5-.2-.5-.5-.5-.5.2-.5.5zm27.8 2.9c-2 1.9-3.3 3.7-3 4 .3.3.1.6-.5.6-1.5 0-7.3 6.2-6.7 7.1.3.5 2.3 0 4.4-1.1 2.2-1.1 5.4-2 7.2-2.1 2.9-.1 3-.2.9-.8l-2.4-.7 2.6-1.7c2.9-1.9 5.7-2.2 5.7-.7 0 .5 1 1 2.3.9h15c13.3 0 17.7-.6 14.1-2-1.6-.6-1.5-.8.8-.8 4.3-.1 4.4-2.1.1-2.2-18-.4-25.7-.9-26.6-1.8-1.5-1.5-5-1.4-4.1.1.5.7.3.8-.6.3-.7-.4-1.5-.3-1.9.3-.9 1.5-6.1 2.7-6.1 1.4 0-.6.9-1.4 2-1.7 1.1-.3 2-1.1 2-1.6 0-1.7-1.7-.9-5.2 2.5zm.7 2.6c.3.5.4 1 .1 1-.3 0-.8-.5-1.1-1-.3-.6-.4-1-.1-1 .3 0 .8.4 1.1 1zm35.3-.3c-1 .2-2.8.2-4 0-1.3-.2-.5-.4 1.7-.4 2.2-.1 3.2.1 2.3.4zM266 116c-2 1.3-3.3 1.3-2.5 0 .3-.6 1.4-1 2.3-1 1.5 0 1.5.2.2 1zm-9.8.2c-.7.7-1.2 1.6-1.2 2.1s.7.1 1.6-.8c.9-.9 1.4-1.8 1.2-2-.2-.3-1 .1-1.6.7zm23.1.5c.4.3 1 .3 1.4 0 .3-.4 0-.7-.7-.7s-1 .3-.7.7zm-3.8 1.3c-.3.5-.1 1 .4 1 .6 0 1.1-.5 1.1-1 0-.6-.2-1-.4-1-.3 0-.8.4-1.1 1zm22.8 1.7c.4.3 1 .3 1.4 0 .3-.4 0-.7-.7-.7s-1 .3-.7.7zM224 125c0 .7.3 1 .7.7.3-.4.3-1 0-1.4-.4-.3-.7 0-.7.7zm-3 1c0 .5.5 1 1 1 .6 0 1-.5 1-1 0-.6-.4-1-1-1-.5 0-1 .4-1 1zm42.7.7c-.3.5.6.9 2 1 1.9.1 2.2-.1 1.2-.8-1.7-1.1-2.6-1.1-3.2-.2zm124.3-.2c0 .3.2.5.5.5s.5-.2.5-.5-.2-.5-.5-.5-.5.2-.5.5zM267.5 130c-.3.6.5 1 1.9 1s2.8-.5 3.1-1c.3-.6-.5-1-1.9-1s-2.8.4-3.1 1zm99.5.5c0 .3.2.5.5.5s.5-.2.5-.5-.2-.5-.5-.5-.5.2-.5.5zm-101 3.7c0 .5 1.9.8 4.2.8 2.3 0 3.9-.3 3.5-.6-.9-.9-7.7-1.1-7.7-.2zm74.1.8c2.4 2.1 6.6 3.6 7.5 2.7.3-.3-.7-1.3-2.3-2.2-2.6-1.5-2.6-1.5-.3-.9 1.4.4 2.2.3 1.8-.1-.4-.4-2.6-.9-4.9-1.1l-4.2-.4 2.4 2zm21.9-.5c0 .3.2.5.5.5s.5-.2.5-.5-.2-.5-.5-.5-.5.2-.5.5zm2.5 1.5c.3.5.8 1 1.1 1 .3 0 .2-.5-.1-1-.3-.6-.8-1-1.1-1-.3 0-.2.4.1 1zm-1 2.2c.3.7 2.4 2.6 4.5 4.2 2.2 1.7 4 3.3 4 3.8 0 .4.5.8 1.2.8.6 0-.1-1.4-1.8-3.1-3.7-3.9-8.6-7.5-7.9-5.7zm3.5-.7c0 .3.2.5.5.5s.5-.2.5-.5-.2-.5-.5-.5-.5.2-.5.5zm16.4 1.8c-.6 1.7 2.4 6.6 4.1 6.7.6 0 2.1 1.2 3.4 2.5 1.9 2.1 2 2.4.5 1.9-1.1-.4-2.4-1.1-3.1-1.6-.7-.6-1.8-.6-2.4-.2-.7.4-1.7 0-2.3-.8-1.3-1.8-8.6-5.1-8.7-4 0 .4-.2 1.7-.5 3-.4 2.3 4 7.7 5.6 6.7.4-.3 1.5.5 2.3 1.8 1.2 1.9 1.3 2.7.3 4.6-2.5 4.6.7 11.1 5.4 11.1.8 0 2.1.9 2.8 2 1.4 2.3 5.5 1.9 8.1-.7 1-1.1 1.6-1.1 2.1-.3 1 1.6 2-1.2 2-5.3 0-3.4-2.1-7.2-6.4-12.1-1.4-1.6-2.4-3.1-2.2-3.3.9-.9 4.2 1.6 5.6 4.1 1.3 2.5 3 3.5 3 1.8 0-.4-2.4-3.8-5.3-7.6-5.8-7.6-13.2-13-14.3-10.3zm-2.7 12.4c-.4.3-1 .3-1.4 0-.3-.4 0-.7.7-.7s1 .3.7.7zm3.3-.2c0 .3-.2.5-.5.5s-.5-.2-.5-.5.2-.5.5-.5.5.2.5.5zm3 0c0 .3-.2.5-.5.5s-.5-.2-.5-.5.2-.5.5-.5.5.2.5.5zm4 14.9c-.5 1.3-.6 2.7-.3 3 .4.3-.1.6-1 .6-1 0-1.5-.6-1.2-1.5.3-.8.7-2.2 1-3 .2-.8.9-1.5 1.4-1.5.7 0 .7.9.1 2.4zm2.5 6.6c.3.5.1 1-.4 1-.6 0-1.1-.5-1.1-1 0-.6.2-1 .4-1 .3 0 .8.4 1.1 1zM216 139.5c0 .3.2.5.5.5s.5-.2.5-.5-.2-.5-.5-.5-.5.2-.5.5zm145 4c0 .8.7 1.5 1.6 1.5 1.4 0 1.4-.3.4-1.5-.7-.8-1.4-1.5-1.6-1.5-.2 0-.4.7-.4 1.5zm-151 1c0 .3.2.5.5.5s.5-.2.5-.5-.2-.5-.5-.5-.5.2-.5.5zm-.5 7.6c-.4.6-.5 1.2-.2 1.5.2.3.7-.2 1-1.1.7-1.7.1-2-.8-.4zm-9.5 11.4c0 .3.2.5.5.5s.5-.2.5-.5-.2-.5-.5-.5-.5.2-.5.5zm193.3 13.2c.4.3 1 .3 1.4 0 .3-.4 0-.7-.7-.7s-1 .3-.7.7zm.7 4.8c0 .3.2.5.5.5s.5-.2.5-.5-.2-.5-.5-.5-.5.2-.5.5zm-187.3-75.4c.4 1.3.8 1.8 1.1 1 .2-.7-.1-1.8-.6-2.3-.8-.8-.9-.4-.5 1.3zm-5.7 1.4c0 .3.2.5.5.5s.5-.2.5-.5-.2-.5-.5-.5-.5.2-.5.5zm-9 15.5c0 .7.3 1 .7.7.3-.4.3-1 0-1.4-.4-.3-.7 0-.7.7zm118.8 24.7c.6.2 1.8.2 2.5 0 .6-.3.1-.5-1.3-.5-1.4 0-1.9.2-1.2.5zM190 149.5c0 .3.2.5.5.5s.5-.2.5-.5-.2-.5-.5-.5-.5.2-.5.5zm166 14c0 .3.2.5.5.5s.5-.2.5-.5-.2-.5-.5-.5-.5.2-.5.5zm3.2 65.9c-1.1 1.5-2.5 2.6-3.1 2.6-1.5 0-1.4 1.3.2 2.9.6.8.8 1.2.2.9-.5-.2-2.8-1.2-4.9-2.2-3-1.3-5.1-1.6-8.5-1-2.5.4-8.3.6-12.7.5-9-.3-11.4 1.2-11.4 6.9 0 5.6 1.1 5.9 16.2 4.2 12.6-1.4 14.3-1.4 21.5.2 4.3.9 8.9 1.9 10.3 2.1 1.4.2 3.5.7 4.6 1 2.1.7 2.2.4 2-5.9-.2-8-1.7-9.9-7.9-10.5-.4-.1-.7-.9-.5-1.9.5-2.8-3.7-2.7-6 .2zm.5 9.3c-.4.3-.7 0-.7-.7s.3-1 .7-.7c.3.4.3 1 0 1.4zm-135.3-5.6c-4.6 1.3-6 3.4-4.7 7 .6 1.6.9 3.8.6 4.9-1.5 5.8 2 8.6 6.6 5.3 1.4-.9 4.7-2.1 7.5-2.7 5-1.1 34.1-1.1 40.3-.1 2.6.5 3.3.2 3.8-1.5 1.5-4.7-6.6-8.5-20.1-9.5-3.8-.3-8.5-.7-10.4-1-2.1-.3-4.7.2-6.5 1.1-4 2.2-10.2 3.7-8.6 2.1.6-.6 1.1-2.4 1.1-3.9 0-2.5-.3-2.8-3.2-2.7-1.8 0-4.7.5-6.4 1zM329 254.7c-3 1.6-6.1 3.9-6.9 5.3l-1.6 2.5 4.8-2.9c7.5-4.3 13.2-5.5 9.6-1.9-.9.9-.8 2 .2 4.5.7 1.8 1.2 4.1 1 5.2-.1 1.1.2 1.6.8 1.1.6-.3.9-1 .6-1.5-.2-.4.8-1.3 2.5-2 2.9-1.2 4.9-5.7 3.5-8-1.9-3 8.5.1 12.8 3.8 1.6 1.4 1.5 1.7-2.5 4.4-3.7 2.5-4.9 2.8-9 2.3-6.1-.7-7 2-1 3 3.7.6 15.2-3.1 15.9-5.2.2-.5 1.9-.7 3.8-.5 2.7.3 3.4.1 2.9-.9-1.1-2.7-8.7-8-13-9-2.5-.6-4.7-1.5-5-2-.3-.5-3.6-.9-7.3-.9-5.4 0-7.8.5-12.1 2.7zm13 .8c0 .3-.2.5-.5.5s-.5-.2-.5-.5.2-.5.5-.5.5.2.5.5zm-2 4.5c0 .5-.4 1-1 1-.5 0-1-.5-1-1 0-.6.5-1 1-1 .6 0 1 .4 1 1zm-16.6-5.6c-1 .8-1.7 1.7-1.4 1.9.3.3 1.4-.1 2.4-.9 1.1-.7 1.7-1.6 1.5-1.9-.3-.3-1.4.2-2.5.9zm-77.9 1.2c-1.5.8-3.8 1.6-5.1 1.8-1.3.3-3.6 1.3-5.2 2.4-1.5 1.1-3.7 2.2-4.9 2.6-4.6 1.5-3.8 6.2.9 5.2 1.7-.3 4.4 0 6.2.8 6.9 3 11.2 3.7 14.5 2.3 4-1.7 3.2-2.5-2.2-2.1-2.8.3-5.6-.3-8.8-1.8l-4.5-2.2 2.5-2.2c3.3-2.7 7.1-4.7 7.8-4 .3.2 1.6.1 2.9-.4 3.1-1.2 3.3.7.2 2-1.3.5-1.7.9-1 .9.7.1 1.7 1.2 2.2 2.6.5 1.4 1.6 2.6 2.5 2.6 5.1.4 5 .5 5-3.8 0-3.8.2-4.2 2-3.7 3.4 1.1 5.9 2.3 8.3 4 3.1 2.3 2.7.2-.5-2.7-5.8-5.2-17.1-7.3-22.8-4.3zM256 262c0 .5-.2 1-.4 1-.3 0-.8-.5-1.1-1-.3-.6-.1-1 .4-1 .6 0 1.1.4 1.1 1zm11-6.5c0 .3.2.5.5.5s.5-.2.5-.5-.2-.5-.5-.5-.5.2-.5.5zm2.5 1.5c.3.5.8 1 1.1 1 .3 0 .2-.5-.1-1-.3-.6-.8-1-1.1-1-.3 0-.2.4.1 1zm-8.5 4.5c0 .3.2.5.5.5s.5-.2.5-.5-.2-.5-.5-.5-.5.2-.5.5zm25.3 2.2c.4.3 1 .3 1.4 0 .3-.4 0-.7-.7-.7s-1 .3-.7.7zm131.7-.2c0 .3.2.5.5.5s.5-.2.5-.5-.2-.5-.5-.5-.5.2-.5.5zm-101.2 1.2c.6.2 1.8.2 2.5 0 .6-.3.1-.5-1.3-.5-1.4 0-1.9.2-1.2.5zm-44.2 2.2c-1.7 1.9-1.7 1.9.3 1.4 1.2-.3 2.1-1.2 2.1-1.9 0-1.8-.4-1.8-2.4.5zm35.4-.9c0 .7.3 1 .7.7.3-.4.3-1 0-1.4-.4-.3-.7 0-.7.7zm-50.5 2c-.3.5.1 1 .9 1 .9 0 1.6-.5 1.6-1 0-.6-.4-1-.9-1-.6 0-1.3.4-1.6 1zm26.6.4c-.8 1-.9 1.6-.1 2.1.5.3 1.3-.1 1.6-1 .9-2.2-.1-2.9-1.5-1.1zm23.1 3.5c-1.5 5-1.5 5.6.4 7.5 3 3.1 4.3-.7 2.8-8.3-.9-4.1-1.8-3.9-3.2.8zm108.8 3.6c0 1.4.5 2.5 1 2.5.6 0 1-1.1 1-2.5s-.4-2.5-1-2.5c-.5 0-1 1.1-1 2.5zm-105.2 15.3c-1 .2-1.8.6-1.8 1 0 1.5 2.5 7.2 3.2 7.2.4 0 .8.9.8 2 0 1 1.3 3.4 2.9 5.2 1.6 1.8 3.8 5 4.9 7.1 2 3.8 3.5 3.8 2.8.1-.2-1.1-2-4.6-3.9-7.9-1.9-3.3-3.8-7.5-4.2-9.4-.9-4.1-2.4-5.8-4.7-5.3zM275 303.5c0 .3.2.5.5.5s.5-.2.5-.5-.2-.5-.5-.5-.5.2-.5.5zm-3.9 5.1c0 1.1.3 1.4.6.6.3-.7.2-1.6-.1-1.9-.3-.4-.6.2-.5 1.3zm8.9 8.3c0 1.4 4.1 4.1 6.2 4.1 2.7 0 2.1-1.8-1.2-3.5s-5-1.9-5-.6zm29.4.6c-3.7 1.5-4.9 3.1-3.1 3.8 1.6.6 7.7-2.1 7.7-3.4 0-1.6-1.6-1.7-4.6-.4zm-98.7 14.2c-.3.5-.8 2.3-1.2 4.1-.4 1.8-1.3 3.6-1.9 3.8-3 1.1 1.2 21.2 6.4 31.2 7.2 13.8 7.6 14.4 9.1 12.5 1.2-1.4 1.2-1.6 0-.8-1.1.6-1.3.4-.8-.8.3-.9.2-1.9-.4-2.3-.6-.3-.8-1.2-.5-2 .7-1.7-1.3-12.5-2.5-14-.5-.6-1.3-4.5-1.9-8.6-.6-4.2-1.5-9.1-2-10.9-.6-1.9-1-5.5-1-8.1 0-3.5-.4-4.8-1.4-4.8-.8 0-1.7.3-1.9.7zm122.8 17.4c-3.3 1.1-9.4 2.2-13.5 2.5-4.1.2-9.1.7-11 1.1-1.9.3-5.7.7-8.5.8-2.7.1-5.8.5-6.7.9-.9.4-2.2.5-2.8.1-.6-.3-7-1.1-14.3-1.6-24.2-1.8-26.3-1.2-19.1 6 4.3 4.2 13.6 8.3 15.2 6.7 1.1-1.2-1-3.6-3.1-3.6-2.8 0-5.2-2.4-4.2-4 .4-.7 7.5-1 21.3-.9 12 .1 23.4-.3 27.2-.9 3.6-.7 8.7-1.2 11.4-1.2h4.9l-2.3 2.5c-1.3 1.4-2.9 2.5-3.6 2.5-.7 0-1.8 1-2.5 2.1-1.1 2.1-1 2.2 2.2 1.5 3.4-.7 5-2.1 4.3-4-.2-.6.7-1.2 2-1.2 3.2-.2 12.6-7.4 12.6-9.6 0-2.2-1.7-2.2-9.5.3zm-124.6 51.1c-.1 23.3-1.1 49.2-1.7 44-.3-2.2-1.9-1.2-4.7 2.9-2.2 3.4-2.5 4.5-1.6 6.3.9 1.8 3.9 21.1 5.8 37.7.3 2.8 1.5 5.7 2.8 7.3 1.3 1.5 2.6 4.5 3 6.7.4 2.1 1.1 3.7 1.6 3.3 1.1-.7 1.2 1.7 0 3.4-1 1.7 2.3 8.5 6.2 12.6 2.2 2.3 2.6 3.1 1.5 3.8-.9.7-.7.8.8.5 1.7-.4 2.1 0 1.8 1.7-.2 1.1-.2 1.5.2.9.5-1.2 5.4 3.5 5.4 5.2 0 1.6 3.6 5.1 4.9 4.7 1-.3 1.2 0 .8 1.1-.4 1-.1 1.4.6 1.2.7-.3 2.1 1.3 3.1 3.5 1.1 2.2 2.5 4 3.2 4 .7 0 2.5 1.3 4.1 2.9 1.6 1.5 3.8 3.1 4.8 3.5 1.1.3 3.3 1.7 4.9 3.1 1.6 1.4 3.4 2.5 3.9 2.5.6 0 2.5 1.1 4.3 2.5 1.8 1.4 3.6 2.5 3.9 2.5.4 0 2.6 1.3 5 3 2.4 1.6 4.8 3 5.4 3 .6 0 1.1.6 1.1 1.2 0 .9.4.8 1-.2.6-.9 1-1 1-.3 0 1.9 9.2 6.5 14 6.9 2.5.2 6.3.7 8.6 1 2.5.4 5 .1 6.4-.6 1.3-.7 3.7-1.4 5.2-1.5 4.4-.4 11.8-2.7 11.8-3.6 0-.5.8-.9 1.8-.9 2.5 0 8.7-4 11.2-7.2 1.4-1.9 3.1-2.8 5-2.8 2.2 0 2.9-.5 3.2-2.2.2-1.3 1.5-2.9 3.1-3.6 1.5-.7 2.7-1.9 2.7-2.6 0-.8 2.1-2 4.6-2.7 2.6-.8 4.9-2.1 5.1-2.9.8-2.6 2-4.5 2.9-4.5 1.7 0 3.4-1.6 3.4-3.2 0-1.8 4.8-6.3 6.8-6.3.7 0 1.2-1.3 1.2-3s.5-3 1.1-3c2.3 0 7.9-8.4 7.9-11.9 0-1 .9-2.1 2-2.4 1.1-.3 2-1.1 2-1.9 0-1-.3-.9-1 .2-.8 1.3-1 1.2-1-.3 0-3-2.3-1.4-5 3.4-5.6 10.1-21.5 26.7-35.2 36.6-4.4 3.2-11.1 8.3-14.9 11.4-6.3 5.2-7.7 5.9-17.3 8.3-15.9 3.9-21.8 3.2-31.5-3.7-2.5-1.9-10.9-6.5-18.5-10.3-16.5-8.2-24.7-14.8-39.2-31.9-13.7-16-22.7-44-22.7-70 0-9.8.9-13.1 2.9-11.4 1.9 1.6 4.1-.3 5-4.4.3-1.8 1-3.7 1.5-4.3.5-.6.9-10.5 1-22.1.2-25.2.7-26.7 6.5-20.4 5.1 5.8 5.5 4.3.5-2-2.3-2.9-6.1-9.2-8.4-14-2.3-4.8-4.5-8.8-4.9-8.8-.5-.1-.8 12.6-.9 28.1zm9.1-9.7c0 .3-.2.5-.5.5s-.5-.2-.5-.5.2-.5.5-.5.5.2.5.5zm-2 121c0 .3-.2.5-.5.5s-.5-.2-.5-.5.2-.5.5-.5.5.2.5.5zm1 4c0 .3-.2.5-.5.5s-.5-.2-.5-.5.2-.5.5-.5.5.2.5.5zm6-130c0 .3.2.5.5.5s.5-.2.5-.5-.2-.5-.5-.5-.5.2-.5.5zm-6 11c0 .3.2.5.5.5s.5-.2.5-.5-.2-.5-.5-.5-.5.2-.5.5zm147 6.5c0 .7.3 1 .7.7.3-.4.3-1 0-1.4-.4-.3-.7 0-.7.7zm-5.5 3.3c-2.2 1.2-4.7 3-5.6 3.9-.9 1-2 1.8-2.4 1.8-.4 0-2.4 1.3-4.4 2.9-2 1.6-5.8 3.8-8.6 5-2.7 1.2-6.7 3.1-8.8 4.1-2.2 1.1-4.8 2-5.9 2-1 0-2.7.4-3.6.9-1.6.9-20.6 3.5-24.2 3.4-4.5-.2-21.6-2.6-22.5-3.2-.5-.4-2.8-1.3-5-2-2.2-.8-5.9-2.6-8.1-4.1-2.3-1.5-5.8-3.3-7.7-3.9-2-.7-5.3-2.1-7.4-3.1-2.1-1-3.9-1.7-4.1-1.5-.9.8 2.5 4.5 5.6 5.9 1.8.9 5.9 3.3 9 5.4 23.6 15.6 50.3 18.3 73.3 7.4 4.6-2.2 9.5-4.4 10.9-4.8 1.4-.3 2.7-1 3-1.4.3-.4 2.8-2.4 5.5-4.4 5.9-4.4 15.5-14.1 15.5-15.6 0-.5-.1-1-.2-.9-.2 0-2.1 1-4.3 2.2zm37.5 40.1c0 2.6 12.1 18.3 14.9 19.4.9.3 2.8 1.4 4.4 2.4 1.5 1.1 2.7 1.7 2.7 1.3 0-.3 1.2.6 2.7 2 1.5 1.4 3.9 2.5 5.2 2.5 2.4 0 4.4.8 17.8 7.1 3.5 1.6 6.7 2.9 7.2 2.9s1.1.4 1.3 1c.2.5 1.2 1.1 2.3 1.3 1.9.4 5.8 1.8 10 3.6 1.1.5 6.6 2.1 12.2 3.5 5.6 1.5 11.9 3.4 14 4.2 3.8 1.5 5 2.1 19.3 8.8 4.1 2 9.8 4 12.5 4.6 2.8.6 6.2 2 7.7 3 1.5 1.1 3.6 2 4.8 2 1.1 0 2 .4 2 1 0 .5.8 1 1.8 1 2.1 0 9.3 3.4 17 7.9 2.9 1.7 6 3.1 6.9 3.1 2.8 0 13.3 6.2 17.8 10.5 2.4 2.4 4.7 4 5.1 3.6.4-.3.4-.1.1.5-.3.6.7 2.5 2.3 4.3 1.7 1.8 3 3.5 3 3.9 0 .4 2.5 1.9 5.5 3.3 5.4 2.5 5.5 2.5 5.5.5 0-4.2-8-17.6-12.3-20.8-6.2-4.5-53.2-27.2-63.6-30.7-4.9-1.7-15.2-6.1-22.8-9.9-13.7-6.9-31.1-14.2-33.6-14.2-.7 0-2.3.9-3.5 2-1.2 1.2-2.2 1.6-2.2 1 0-.5-.7-1-1.5-1s-2.6-1.1-4-2.5-2.5-2.3-2.5-1.9c0 .4-.8 0-1.7-.8-2-1.6-7.3-4.1-11.3-5.3-1.4-.4-6.4-2.7-11.1-5.1-9-4.6-10.5-5.1-9.3-3.2 1 1.5-.3.7-11.6-7.5-9.2-6.6-15-10.3-15-9.3zm75.4 36.1c1.1.8 1.5 1.5 1 1.5-.6 0-1.9-.7-3-1.5-1-.8-1.4-1.4-.9-1.4.6 0 1.9.6 2.9 1.4zm-3.9 1.5c.3.5.4 1 .1 1-.3 0-.8-.5-1.1-1-.3-.6-.4-1-.1-1 .3 0 .8.4 1.1 1zm-275.9-30.9c-3.2 2.7-6.4 4.8-7 4.6-.6-.2-3.7.9-6.9 2.5-5.9 2.9-11.7 9.3-11.7 12.9 0 1-.9 2.3-2 2.9-4.4 2.4-1.6 2.7 3.5.4 3.1-1.3 6.2-2.4 7-2.4.8 0 2.1-1.3 3.1-2.9 1.6-2.7 7.4-6.1 10.6-6.1 3.9 0 10.8-9.6 10.8-15 0-2.9-.8-2.5-7.4 3.1zM159 468.5c-3 2-6.6 3.8-8 4.1-6.8 1.3-13.3 4.2-21.7 9.7-5.1 3.3-9.3 6.4-9.3 6.9 0 .4-2.2.8-5 .8-3.2 0-7 .9-10.7 2.6-3.2 1.4-8.9 3.5-12.6 4.5-3.7 1.1-9.1 3.3-12 4.9-2.9 1.6-7.7 3.4-10.7 4.1-10.6 2.2-18 5-19.8 7.6-.9 1.3-3.5 4.1-5.7 6.1s-5.5 5.3-7.5 7.3c-3.6 3.7-13.2 10.9-14.5 10.9-.4 0 0-1.1.9-2.5 2.5-3.7.6-3.1-7 2.6-3.8 2.8-8.5 5.9-10.5 7C1 547-1 550 1.5 550c.8 0 1.5-.6 1.5-1.3 0-.8.3-.8.9.2.5.8.7 2.1.4 3-.4.9.6.5 2.4-1.2 2.9-2.7 5.7-3.5 6.8-1.8.3.6 1.5.5 2.8-.3 5.9-3.3 8.7-5.2 8.7-5.9 0-.4.7-.7 1.5-.7.9 0 3.8-1.5 6.4-3.2 2.7-1.8 6.8-4.4 9.1-5.8 2.3-1.4 5.6-3.7 7.3-5.3 1.7-1.5 4.6-3.2 6.4-3.9 3.5-1.3 4.4-2.8 1.7-2.8-1.3 0-1.4-.3-.5-1.4.9-1.1.9-1.5-.1-1.8-2.6-.9 7.2-4.8 15.4-6.2 7.4-1.2 11.9-2.8 19.8-7.1 1.4-.7 4.5-2.2 7-3.2s7.3-3.7 10.7-6.1c6.6-4.4 8.6-5.2 7.7-2.7-.4.8-1.2 1.5-2 1.5s-1.4.5-1.4 1.2c0 .6-.7 2-1.7 3-1.4 1.6-1.4 1.8-.1 1.8 4.1 0 7.8-1.4 7.8-2.9 0-1.3.2-1.3.9-.3.7 1.1 1.3.9 3.3-1 4.9-4.6 8.9-7.2 10.3-6.5.2.1 1.2-.8 2-2.1.9-1.2 2.3-2.2 3.1-2.2.7 0 3.1-1.6 5.3-3.5 4.3-3.9 5.1-4.2 5.1-2 0 3 3.1 1.4 10-5.3 9.9-9.5 9.4-12.4-1-5.7zm302 10c0 .3.2.5.5.5s.5-.2.5-.5-.2-.5-.5-.5-.5.2-.5.5zm4 1.5c-.9.6-1 1-.3 1 .6 0 1.5-.5 1.8-1 .8-1.2.4-1.2-1.5 0zm-354 21.5c0 .3.2.5.5.5s.5-.2.5-.5-.2-.5-.5-.5-.5.2-.5.5zM225 534c0 .5.5 1 1 1 .6 0 1-.5 1-1 0-.6-.4-1-1-1-.5 0-1 .4-1 1zm131 24c0 .7.3 1 .7.7.3-.4.3-1 0-1.4-.4-.3-.7 0-.7.7zm-13 9.5c0 .3.2.5.5.5s.5-.2.5-.5-.2-.5-.5-.5-.5.2-.5.5zM41.5 588c-.3.5-.2 1 .4 1 .5 0 1.3-.5 1.6-1 .3-.6.2-1-.4-1-.5 0-1.3.4-1.6 1zm240 6.5c1.7.7 3.2 1.1 3.5.9.7-.8-2.4-2.4-4.5-2.3-1.5 0-1.3.4 1 1.4z"/></svg>