<svg viewBox="0 0 500 500" xmlns="http://www.w3.org/2000/svg"><g transform="matrix(.06471 0 0 -.06471 54.025 433.955)"><path d="M4115 3539c-2 15-2263 87-2263 42 1-45 5-81 10-81 4 0 8-6 8-14s3-16 8-19c4-2 0-1-8 1-45 16-85 7-98-22-43-87-2-471 64-597 8-16 14-48 14-73 0-61 7-74 51-96 45-24 97-26 105-5 9 23-26 216-47 261-10 22-19 46-19 52 0 7-16 12-40 12-45 0-47 3-54 75-2 28-5 53-5 58-1 4-7 7-15 7-9 0-18 22-26 65-12 65-7 135 10 135 5 0 7 6 4 14s2 23 12 34c16 19 84-56 84-102 0-18 4-36 9-42 5-5 11-42 13-81 4-85 21-93 26-12 2 32-62.945 429.933-53.945 440.933-2.846 15.855 1252.805-12.718 2185.65-43.723 176.984-5.882-150.148-26.1 45.295-84.21 22.377-6.653 55-20 55-42 0-9 8-24 17-35 30-33 18-195-13-183-11 4-14-7-15-52-1-98-9-113-68-138-42-17-81-52-81-71 0-17 10-16 34 2 33 25 53 19 59-17 2-18 1-41-4-50s-9-26-9-37c0-12-4-21-9-21s-8-8-7-17c1-12-5-17-16-15-10 2-18-2-18-7 0-6-30-11-66-13-63-3-69-5-96-39-16-20-35-58-43-85-49-177-63-230-59-235 2-4-4-28-13-55-12-35-13-49-5-52 7-2 12-13 12-23 0-11 4-18 9-14 18 11 21-13 6-61-11-36-14-103-15-252 0-112-2-208-6-213-18-30 51-200 75-184 10 6 96-94 102-88 13 13-24 84-73 141l-28 33 5 192c3 106 7 255 9 331 2 77 0 151-5 164-7 17-5 39 5 71 8 25 31 109 51 186 19 77 39 143 44 148 4 4 15-3 24-17 49-74 171-16 173 83 0 50 5 70 65 260 53 168 61 294 27 391-21 58-26 65-52 68-31 4-75-14-89-36-11-17-27-6-27 20 0 13 5 18 14 15 11-4 13 1 11 22zm-25-70c0-5-4-9-10-9-5 0-10 7-10 16 0 8 5 12 10 9 6-3 10-10 10-16zm-2170-539c10-5 21-23 25-40 4-16 10-30 15-30 4 0 8-20 8-45 1-29-3-45-11-45-23 0-39 18-40 44-1 14-5 26-9 26-5 0-8 7-8 15s-4 15-10 15c-5 0-10 16-10 35 0 36 9 42 40 25zm1370 543c-30-16-85-78-85-78l48 29c75 43 132 55 96 19-9-9-8-20 2-45 7-18 12-41 10-52-1-11 2-16 8-11 6 3 9 10 6 15-2 4 8 13 25 20 29 12 49 57 35 80-19 30 85-1 128-38 16-14 15-17-25-44-37-25-49-28-90-23-61 7-70-20-10-30 37-6 152 31 159 52 2 5 19 7 38 5 27-3 34-1 29 9-11 27-87 80-130 90-25 6-47 15-50 20s-36 9-73 9c-54 0-78-5-121-27zm130-8c0-3-2-5-5-5s-5 2-5 5 2 5 5 5 5-2 5-5zm-20-45c0-5-4-10-10-10-5 0-10 5-10 10 0 6 5 10 10 10 6 0 10-4 10-10zm-166 56c-10-8-17-17-14-19 3-3 14 1 24 9 11 7 17 16 15 19-3 3-14-2-25-9zm-779-12c-15-8-38-16-51-18-13-3-36-13-52-24-15-11-37-22-49-26-46-15-38-62 9-52 17 3 44 0 62-8 69-30 112-37 145-23 40 17 32 25-22 21-28-3-56 3-88 18l-45 22 25 22c33 27 71 47 78 40 3-2 16-1 29 4 31 12 33-7 2-20-13-5-17-9-10-9 7-1 17-12 22-26s16-26 25-26c51-4 50-5 50 38 0 38 2 42 20 37 34-11 59-23 83-40 31-23 27-2-5 27-58 52-171 73-228 43zm105-64c0-5-2-10-4-10-3 0-8 5-11 10-3 6-1 10 4 10 6 0 11-4 11-10zm110 65c0-3 2-5 5-5s5 2 5 5-2 5-5 5-5-2-5-5zm25-15c3-5 8-10 11-10s2 5-1 10c-3 6-8 10-11 10s-2-4 1-10zm-85-45c0-3 2-5 5-5s5 2 5 5-2 5-5 5-5-2-5-5zm253-22c4-3 10-3 14 0 3 4 0 7-7 7s-10-3-7-7zm1317 2c0-3 2-5 5-5s5 2 5 5-2 5-5 5-5-2-5-5zm-1012-12c6-2 18-2 25 0 6 3 1 5-13 5s-19-2-12-5zm-442-22c-17-19-17-19 3-14 12 3 21 12 21 19 0 18-4 18-24-5zm354 9c0-7 3-10 7-7 3 4 3 10 0 14-4 3-7 0-7-7zm-505-20c-3-5 1-10 9-10 9 0 16 5 16 10 0 6-4 10-9 10-6 0-13-4-16-10zm266-4c-8-10-9-16-1-21 5-3 13 1 16 10 9 22-1 29-15 11zm231-35c-15-50-15-56 4-75 30-31 43 7 28 83-9 41-18 39-32-8zm1088-36c0-14 5-25 10-25 6 0 10 11 10 25s-4 25-10 25c-5 0-10-11-10-25zm-1052-153c-10-2-18-6-18-10 0-15 25-72 32-72 4 0 8-9 8-20 0-10 13-34 29-52s38-50 49-71c20-38 35-38 28-1-2 11-20 46-39 79s-38 75-42 94c-9 41-24 58-47 53zm-358-127c0-3 2-5 5-5s5 2 5 5-2 5-5 5-5-2-5-5zm-39-51c0-11 3-14 6-6 3 7 2 16-1 19-3 4-6-2-5-13zm89-83c0-14 41-41 62-41 27 0 21 18-12 35s-50 19-50 6zm294-6c-37-15-49-31-31-38 16-6 77 21 77 34 0 16-16 17-46 4zm-987-142c-3-5-8-23-12-41s-13-36-19-38c-30-11 12-212 64-312 72-138 76-144 91-125 12 14 12 16 0 8-11-6-13-4-8 8 3 9 2 19-4 23-6 3-8 12-5 20 7 17-13 125-25 140-5 6-13 45-19 86-6 42-15 91-20 109-6 19-10 55-10 81 0 35-4 48-14 48-8 0-17-3-19-7zm1228-174c-33-11-94-22-135-25-41-2-91-7-110-11-19-3-57-7-85-8-27-1-58-5-67-9s-22-5-28-1c-6 3-70 11-143 16-242 18-263 12-191-60 43-42 136-83 152-67 11 12-10 36-31 36-28 0-52 24-42 40 4 7 75 10 213 9 120-1 234 3 272 9 36 7 87 12 114 12h49l-23-25c-13-14-29-25-36-25s-18-10-25-21c-11-21-10-22 22-15 34 7 50 21 43 40-2 6 7 12 20 12 32 2 126 74 126 96s-17 22-95-3zm-1246-511c-1-233 57-398 62-392s9 105 10 221c2 252 7 267 65 204 51-58 55-43 5 20-23 29-61 92-84 140s-45 88-49 88c-5 1-8-126-9-281zm91 97c0-3-2-5-5-5s-5 2-5 5 2 5 5 5 5-2 5-5zm50 50c0-3 2-5 5-5s5 2 5 5-2 5-5 5-5-2-5-5zm-60-110c0-3 2-5 5-5s5 2 5 5-2 5-5 5-5-2-5-5zm1470-65c0-7 3-10 7-7 3 4 3 10 0 14-4 3-7 0-7-7zm-55-33c-22-12-47-30-56-39-9-10-20-18-24-18s-24-13-44-29-58-38-86-50c-27-12-67-31-88-41-22-11-48-20-59-20-10 0-27-4-36-9-16-9-206-35-242-34-45 2-216 26-225 32-5 4-28 13-50 20-22 8-59 26-81 41-23 15-58 33-77 39-20 7-53 21-74 31s-39 17-41 15c-9-8 25-45 56-59 18-9 59-33 90-54 236-156 503-183 733-74 46 22 95 44 109 48 14 3 27 10 30 14s28 24 55 44c59 44 155 141 155 156 0 5-1 10-2 9-2 0-21-10-43-22z" fill="#d4887c"/><rect x="1909.023" y="-3665.32" width="2194.421" height="135.31" transform="scale(1 -1)" rx="16.097" ry="16.097" fill="#fff" stroke="#fff"/></g><path d="M249.37 94.264c-1.032.387-5.998 1.161-10.965 1.87-4.966.646-9.546 1.355-10.126 1.613-.71.258-1.161.194-1.161-.193 0-.452-.903-.387-2.645.193-2.321.839-2.58.839-2.257 0 .194-.516.194-.967 0-.967-.838 0-4.128 2.257-4.128 2.773 0 .323-.451.387-.967.194-.645-.258-1.226.129-1.548 1.032-.452 1.225-.516 1.225-.903.258-.258-.645-.323-1.42-.065-1.742.194-.322.065-1.032-.258-1.612-.838-1.548-4.128 1.483-6.708 6.256-1.16 2.064-2.45 3.805-2.902 3.805-.452 0-.839.452-.839 1.032 0 .645-.387.903-.967.645-.58-.193-.968 0-.968.516 0 .452-.387 1.226-.903 1.613-.71.58-.967.451-1.29-.839-.322-1.419.645-5.418 1.484-6.192.645-.516 2-4.708 1.677-5.095-.194-.193-.774.323-1.355 1.097-.516.774-1.354 1.418-1.87 1.418-.839 0-4.193 6.192-4.193 7.676 0 .387-.258.71-.645.71-.58 0-.903-1.484-.838-3.742.064-1.419-1.032-.838-1.484.839-.258.967-1.031 1.806-1.87 2-1.161.322-1.548.967-1.87 3.482-.452 3.548-1.226 4.386-2.774 3.096-.774-.58-.967-.58-.58-.064.258.516.129.838-.258.838-.452 0-.645.452-.387 1.097.258.71-.13.516-.903-.452-.71-.903-1.29-1.935-1.29-2.386 0-1.87-2 .193-2.322 2.45-.258 1.549-.774 2.516-1.355 2.516-.645 0-.774.452-.516 1.42.323 1.16.065.967-1.096-.581-2.387-3.354-2.774-2.451-.58 1.419 2.192 3.87 2.192 6.966 0 4.128-1.162-1.548-1.226-1.548-1.226-.13 0 1.549 2.902 5.354 4.128 5.354.838 0 2.967 2 2.967 2.709 0 .193-.58.516-1.29.71-.903.257-1.29 0-1.29-.839 0-1.483-1.677-2.902-2.258-1.935-.193.323.065.839.58 1.032.581.194 1.033.645 1.033.967 0 .774-2.387.71-2.903-.064-.258-.387-.645-.516-.967-.323-.323.194-.839-.193-1.226-.773-.322-.645-.838-.968-1.032-.71-.258.258 0 1.097.58 1.935.581.774 1.033 2.064 1.033 2.838s.838 2.257 1.935 3.225c1.354 1.29 1.677 2 1.096 2.322-.58.387-.58.516 0 .516 1.161 0 .323 3.74-1.354 5.998-.774 1.032-1.355 3.032-1.484 4.838-.064 1.677-.322 4.45-.516 6.256-.258 1.742-.516 10.19-.58 18.705-.13 9.352-.452 16.189-.903 17.157-.387.967-.516 1.87-.387 2.064.193.193.387 2.644.387 5.546.064 2.903.322 5.225.645 5.225.258 0 .516.387.516.903s2.838 15.222 3.16 15.609c.323.322 3.16 2.064 3.741 1.354.839-.903 1.226-3.805 1.806-14.641.645-12.384.774-13.674 2.129-15.286 3.418-4.257 3.612-4.838 4.192-11.417.58-6.966 1.097-19.22 1.161-28.057.065-5.676 1.29-9.868 3.483-11.674.774-.645 2.773-.968 6.385-1.032 5.87-.065 9.417-.58 12.449-1.935 1.096-.516 2.515-.903 3.225-.903.645 0 1.741-.387 2.45-.839 2.258-1.548 8.579-2.45 11.352-1.677 1.355.452 3.16.516 4.257.258l1.806-.516-1.612-.451c-1.613-.516-1.613-.516.258-.58 1.032-.065 3.418.45 5.289 1.031 2.967.903 3.805.968 6.063.194 2-.645 2.967-.71 4.192-.13 1.935.904 8.643.968 12.126.194 1.741-.387 3.418-.322 5.805.387 1.806.58 3.805 1.161 4.321 1.29.71.194.71.387.13.774-.517.323.515 1.677 3.353 4.386 3.935 3.612 6.515 4.967 5.74 2.967-.193-.516.13-.838 1.033-.838.774 0 1.354.258 1.354.645 0 .322 1.548 2.193 3.419 4.192 3.87 3.935 7.933 11.417 8.578 15.609.451 2.967 1.096 3.354 3.354 1.741 1.548-1.096 1.741-.71 1.419 2.774-.065 1.354 1.612 9.61 3.354 15.996.322 1.419 1.16 3.29 1.806 4.192 1.612 2.322 2.644 7.288 2.644 12.513-.064 5.547 1.161 16.383 2 17.995 1.16 2.258 2.58.839 4.128-4.192 1.677-5.29 3.612-8.192 5.74-8.514 1.483-.258-.258-2.58-1.161-1.161-.71 1.096-1.741.387-1.741-1.29 0-.839.322-1.161.903-.968.709.258.838-.064.709-1.419-.129-.967-.387-9.287-.58-18.51-.194-9.16-.387-16.835-.387-17.029-.323-3.354-.194-10.32.129-10.32.258 0 1.032 1.097 1.741 2.387l1.29 2.451.064-2.451c0-1.354-.257-3.676-.644-5.16-.323-1.483-.903-5.611-1.161-9.159-.387-4.773-.968-7.288-2.129-9.546-2.064-4.128-9.159-13.931-13.287-18.51-1.87-2-3.418-4.258-3.418-4.903 0-1.419-2.71-5.418-4.257-6.256-.516-.323-3.032-1.226-5.612-2.129-2.515-.838-5.675-2.322-6.965-3.16-2.71-1.935-11.546-5.74-14.77-6.45-1.226-.258-4.451-1.16-7.096-1.935-6.062-1.87-10.061-2.322-12.577-1.548zm-36.442 4.128c0 .194-.129.323-.322.323-.194 0-.323-.13-.323-.323s.13-.322.323-.322.322.129.322.322zm48.439 1.548c2.773.387 6.256 1.226 7.74 1.935 1.548.774 4.063 1.612 5.547 2 2.322.58 5.16 2.386 4.58 2.902-.13.129-3.484-.323-7.418-1.032-5.418-.903-7.611-1.548-8.643-2.58-.903-.903-1.677-1.161-2.387-.839-.58.323-2.709.452-4.643.387-1.935-.064-7.87-.258-13.223-.451-5.289-.129-9.804-.323-9.933-.323-.129 0-.129-.129.065-.322.193-.193 3.612-.645 7.546-.967 3.935-.323 7.676-.903 8.256-1.29 1.226-.71 4-.581 12.513.58zm-51.083 2.451c-.645 1.354-1.226 2.773-1.226 3.29 0 .45-.258.644-.645.45-.645-.386.58-3.418 2.064-5.352 1.161-1.355 1.097-.839-.193 1.612zm2-.129c-.452.516-.581.967-.388.967.258 0 .13.581-.258 1.29-.387.71-1.032 1.29-1.419 1.29-.58 0-.58-.193 0-.774.452-.451.774-1.16.774-1.612 0-.968 1.42-2.773 1.87-2.386.13.129-.128.644-.58 1.225zm5.16-1.354c0 .193-.323.516-.775.773-.451.258-.516.194-.258-.257.452-.774 1.032-1.032 1.032-.516zm14.382 1.483c-.451.129-1.354.129-1.935 0-.645-.194-.258-.323.774-.323 1.097 0 1.548.13 1.161.323zm-16.318.516c0 .193-.129.322-.322.322-.194 0-.323-.129-.323-.322 0-.194.13-.323.323-.323s.322.13.322.323zm1.935 0c0 .193-.129.322-.322.322-.194 0-.323-.129-.323-.322 0-.194.13-.323.323-.323s.322.13.322.323zm26.058.129c3.934.322 4.321.516 3.29 1.29-.71.451-2.387.838-3.806.838-1.87 0-2.387-.193-1.742-.58.968-.645.258-.903-3.805-1.548l-1.613-.258 1.613-.129c.903 0 3.612.129 6.063.387zm-30.121 1.29c-.258.193-.452 0-.452-.452 0-.451.194-.645.452-.451a.775.775 0 010 .903zm22.768 1.483c4.515 1.548 5.418 1.548 11.094 0 5.74-1.548 7.675-1.612 14.705-.129 4.902 1.097 11.933 3.87 9.804 4-.451 0-1.677-.452-2.644-.904-.968-.516-3.354-1.16-5.29-1.354l-3.482-.387 4.837 1.419c2.645.774 5.74 1.419 6.773 1.419 8.965 0 23.542 4.45 23.542 7.16 0 .386 1.935 2.58 4.321 4.901 9.224 8.966 10.514 10.32 10.514 11.094-.065.452-1.097-.322-2.322-1.741-1.29-1.42-2.645-2.645-3.032-2.645-.451-.064-1.16-.129-1.612-.193-.452 0-.71-.323-.516-.645.516-.774-4.064-5.87-5.16-5.87-.516 0-.903-.258-.903-.58 0-.839-2.774-1.42-3.483-.71-.903.903-2.58.774-4.708-.258-4.45-2.193-9.804-4.321-12.449-4.902-4.45-.967-11.739-.774-13.158.323-.71.516-1.935.967-2.709.967-.838 0-1.612.258-1.806.58-.451.71 1.806 1.355 4.773 1.355 2.387 0 7.353 2.129 6.644 2.838-.323.323 1.677 2.258 3.87 3.677.387.258.387 1.096.064 2.128l-.58 1.677-2.064-1.419c-1.161-.838-2.258-2-2.516-2.58-.774-2.515-2.128-3.096-7.095-3.096-3.676 0-4.902.258-5.16.968-.257.516-.838.967-1.354.967-.516 0-.71.258-.516.645.645 1.032-.451.774-1.741-.451-1.032-.968-1.355-.968-3.548 0-1.354.516-3.29 1.16-4.386 1.354-1.87.387-1.87.387-.645-.645 1.42-1.096 1.806-1.096-3.805.065-.903.193-2.322 0-3.225-.452-1.355-.58-2.129-.516-4.193.387-2.128.968-2.709 1.032-3.934.258-1.161-.645-1.548-.645-1.742-.064-.193.451-1.096.838-1.999.903h-1.741l1.612.71c.903.386 2.515 1.096 3.676 1.547 2.838 1.29 4.58 1.097 9.224-.774 2.838-1.16 4.257-1.419 4.708-.967.387.387 1.806.71 3.16.71 1.936 0 2.323-.194 2-1.033-.322-.967.258-1.032 5.676-.58 6.32.451 9.288 1.548 4.708 1.677-1.999.129-1.677.258 1.677.71 6.321.902 7.16 1.16 6.773 1.805-.194.387.129.645.774.645.71 0 1.548.323 1.935.71.451.451 1.29.58 1.935.322 1.096-.451 1.096-.516.064-1.096-.645-.387-1.16-.903-1.16-1.226 0-1.096 9.416 4.322 12.19 7.03 1.87 1.935 2.967 2.58 3.418 2.129.839-.839 3.934.967 3.354 1.87-.194.323.064.58.58.58s2.129 1.29 3.612 2.903c1.42 1.548 2.645 2.516 2.645 2.129 0-1.226-11.03-11.804-13.351-12.835-1.161-.452-2.129-1.097-2.129-1.42 0-.257-1.032-.967-2.257-1.547-2.838-1.355-2.903-2.129-.065-2.129 2.451 0 3.612.968 1.87 1.548-.644.194-.322.258.775.13 1.935-.259 7.417 2.192 10.577 4.643.968.774 2.129 1.096 3.225.903 1.484-.323 1.161-.58-2.838-2.451-2.515-1.225-4.192-2.193-3.74-2.193 1.805 0-.13-2.45-2.58-3.225-2.387-.71-2.58-.838-1.484-1.612 1.29-.968 3.935-.452 6.643 1.419 1.032.71 3.677 2.064 5.934 2.967 4.128 1.806 5.805 2.838 10.32 6.707 1.355 1.161 2.71 1.87 2.967 1.613.323-.258.258-.065 0 .451-.387.71-.258.839.58.516.646-.258.968-.193.71.194-.193.387-.129.645.258.645s1.032.645 1.42 1.419c.58 1.225.58 1.354-.13.645-1.741-1.613-1.677-.645.194 2.773 1.032 1.935 1.612 3.548 1.225 3.548-1.032 0-.838 1.032.323 2.193 1.419 1.483.838 4.902-1.548 8.45-1.097 1.676-1.806 3.418-1.613 3.934.194.451-.064 1.032-.516 1.225-.645.258-.903 1.355-.774 3.547 0 1.806-.193 3.419-.516 3.612-.516.323-.71-.451-.903-4.708 0-.774-.322-1.677-.645-1.935-.258-.258-.322-.193-.129.194.387.709-1.225 1.87-2.257 1.676-.323-.064-.516.194-.516.581 0 .387-.387.58-.903.387-.58-.258-1.032.193-1.29 1.225-.839 3.096-2.129 1.355-1.806-2.515.064-.58-.13-1.096-.452-1.096s-.967-1.097-1.354-2.451c-1.032-3.225-6.58-14.32-7.224-14.32-.258 0-.516.259-.516.646 0 1.16-1.226.645-1.613-.645-.645-2-5.224-6.45-6.643-6.45-.645 0-1.483.645-1.806 1.354-.645 1.355-.71 1.29-3.74-1.29-4.064-3.547-6-4.45-10.385-4.966-3.096-.387-3.612-.645-3.354-1.613.193-.774-.13-1.225-1.097-1.419-.71-.193 1.097-.193 4.128-.064 5.483.258 5.483.258 3.225-.774-1.677-.774-3.354-.967-6.772-.71-4.064.388-4.773.259-7.353-1.29-2.902-1.676-3.547-1.676-8.45.259-.838.322-.838.258-.128-.645.71-.839.645-1.032-.323-1.355-3.096-.903-11.803-.064-11.803 1.161 0 .903 4.773 3.805 5.353 3.225.194-.193.516-.065.71.258.71 1.161-6.966 1.419-13.416.451-3.548-.516-6.45-.967-6.514-.967-.516 0-.71-2.58-.194-3.096.323-.322.194-.838-.322-1.354-.71-.58-1.548-.452-3.741.516-1.548.71-3.032 1.096-3.29.967-.258-.193-.516 0-.516.323 0 .387-.58.709-1.225.709-.71 0-1.484.258-1.677.645-.58.968-1.42.774-1.87-.322-.452-1.226.902-3.548 1.999-3.548.451 0 .838-.322.838-.645 0-.387.452-.645.968-.645 1.741 0 4.192-2.644 3.805-4.192-.322-1.29.58-2.645 2-2.903 2-.387 5.418-2.193 5.74-2.967.258-.645.065-.71-.774-.258-1.225.645-8.643 3.225-9.417 3.225-.258 0-.258-.322-.064-.645.193-.387-.065-.645-.645-.645-.58 0-.839.258-.645.645.193.323-.194.645-.903.645-.71 0-1.484.258-1.677.645-.194.323-.065.645.387.645.451 0 .387.516-.323 1.548-.58.903-.838 2.064-.645 2.58.194.58.13 1.032-.258 1.032-.387 0-.774-.258-.903-.58-.064-.323-1.419 0-2.967.71-1.612.773-2.644 1.676-2.45 2.128.322.967-1.871 3.547-3.097 3.547-1.096 0-6.32 5.74-5.869 6.45.193.322.064.71-.258.903-.323.193-.774-.13-1.032-.774-.387-1.032-.452-1.032-1.096.064-.452.839-.387 1.742.129 3.096.709 1.677.644 2.129-.452 3.354-1.677 1.87-5.289 10.256-5.611 12.9-.13 1.161-.258 2.322-.323 2.71-.064.322-.387.193-.774-.323-.516-.71-.58-.387-.322 1.29.322 1.677.193 1.999-.323 1.29-.516-.71-.58-.516-.322.967.193 1.097-.065 2.58-.58 3.547-1.097 1.87-1.29.903-.323-1.741.645-1.741.58-1.741-.387-.516-.645.903-.903 2-.645 3.547.193 1.226.387 2.774.387 3.354 0 .645.451 1.161.967 1.161.58 0 .968-.58.968-1.483 0-.774.387-2 .903-2.71.451-.709.967-2.837 1.16-4.707.194-1.871.581-3.677.968-4.064.968-.967.387 7.224-.71 9.804-.515 1.29-1.16 3.934-1.354 5.934-.193 1.935-.774 4.386-1.29 5.353-.516 1.032-.967 3.354-.967 5.225 0 3.87-.452 5.353-1.613 5.353-1.032 0-2-8.772-1.225-11.416.258-1.032.516-4.58.58-7.998.13-4.257.452-6.644 1.161-7.74.516-.838 1.42-3.354 2-5.547.58-2.257 1.612-5.224 2.322-6.708 2.322-4.45 1.032-3.483-2.129 1.677-2.58 4.128-3.096 5.547-3.418 9.353-.58 5.74-1.548 6.514-1.548 1.29 0-2.967.322-4.45 1.29-5.87.774-.967 1.483-3.354 1.677-5.224.451-3.677 1.548-6.966 2.386-6.966.323 0 1.548-1.032 2.71-2.322 2.192-2.322 2.192-2.387 1.225-4.644-1.161-2.903-1.355-3.032-2.322-2.193-.645.516-.903-.13-1.097-2.967-.516-7.03-.387-8.643.839-9.546.71-.451 1.225-1.741 1.29-2.773.064-1.226.322-1.677.645-1.29.387.322 1.096.58 1.677.58.58 0 1.032.516 1.032 1.226s-.194 1.16-.387 1.032c-.774-.516-2.838 3.934-3.032 6.45-.064 1.419-.322 3.224-.516 3.934-.322 1.483.452 2.45 2.58 3.031 1.097.323 1.613-.322 3.418-3.934 1.097-2.386 2.064-4.773 2.064-5.353 0-1.355 2.322-3.483 2.838-2.645.903 1.42 6.192-.967 6.192-2.773 0-.774-3.031-.194-4.45.903-2.322 1.741-3.806.967-1.935-.968.774-.838 1.29-1.677 1.16-1.87-.322-.258-2.902.322-5.224 1.29-1.547.645-1.547-1.484 0-3.225 2.322-2.645 7.224-5.805 7.224-4.58 0 .194-.258 1.032-.645 1.935-.645 1.806 0 2.193 1.42.839.709-.774 4.837-3.032 5.482-3.032.774 0-.065 1.226-1.42 1.935-1.096.58-1.612 1.355-1.547 2.516.064 1.16.193 1.354.387.516.258-.903.71-1.097 2.128-.774 1.097.258 2.838-.065 4.58-.839 9.223-4.063 11.545-4.773 11.997-3.547.193.451-.13.838-.71.838s-1.032.258-1.032.645c0 .323 1.161.58 2.58.516 2.902-.064 3.225-.58 1.161-1.741-.838-.387-.967-.58-.387-.452.645.194 1.548-.064 2.064-.58s1.161-.968 1.419-.968c.322 0 .193.323-.258.774-.903.903-1.032 2.064-.129 1.484 1.612-.968 7.546-.968 12.061 0 6.837 1.548 16.448 2.064 21.156 1.225l2.58-.451-1.935-.839-1.935-.774 1.612-.71c1.484-.644 1.42-.709-.516-.322-1.16.194-2.515.065-2.967-.322-.516-.452-4.192-.774-9.03-.774-5.675-.065-8.126-.323-7.933-.839.258-.838 6.515-2.128 13.674-2.773 3.031-.258 4.321-.58 3.225-.71-2.386-.322-15.996 1.097-18.898 1.935-1.226.387-4 .774-6.192.839-2.193.129-5.096.451-6.45.71-1.612.257-2.386.193-2.128-.194.58-.968-4.644.064-7.16 1.419-1.16.58-3.612 2.064-5.418 3.29-1.806 1.225-3.354 2.128-3.483 1.999-.71-.645 1.29-4.257 2.71-4.902.902-.387 2.773-1.613 4.063-2.71 1.935-1.483 3.676-2.128 7.74-2.837 2.902-.516 5.804-1.226 6.385-1.613 1.612-.903 3.934-.709 7.869.645zm-22.575 1.226c0 .322-.58.71-1.29.903-.71.193-1.29.064-1.29-.194 0-.322.516-.71 1.161-.838.58-.194 1.161-.323 1.29-.387.065 0 .13.193.13.516zm63.854.387c0 .193-.129.322-.322.322-.194 0-.323-.129-.323-.322 0-.194.13-.323.323-.323s.322.13.322.323zm9.03 0c0 .193-.129.322-.322.322-.194 0-.323-.129-.323-.322 0-.194.129-.323.323-.323.193 0 .322.13.322.323zm-76.109.645c0 .193-.129.322-.322.322-.194 0-.323-.129-.323-.322 0-.194.13-.323.323-.323s.322.13.322.323zm69.66.322c.515.323.709.645.322.645-.323 0-1.097-.322-1.613-.645-.516-.322-.645-.645-.322-.645.387 0 1.096.323 1.612.645zm-87.72 2.451c0 .323-.451.58-.967.58s-.967-.257-.967-.58c0-.258.451-.516.967-.516s.967.258.967.516zm2.193 1.097c.194.516.065.967-.258.967-.387 0-.645-.451-.645-.967s.13-.968.258-.968c.13 0 .387.452.645.968zm4.902.645c0 .193-.129.322-.322.322-.194 0-.323-.129-.323-.322 0-.194.13-.323.323-.323s.322.13.322.323zM274.847 118c0 .645-4.515 1.87-5.676 1.483-1.354-.451-.838-1.354 1.032-1.612 3.225-.516 4.644-.452 4.644.129zm-87.912 1.16c-.258.194-.451 0-.451-.45 0-.452.193-.646.451-.452a.775.775 0 010 .903zm113.712-.128c0 .193-.13.322-.323.322s-.322-.129-.322-.322c0-.194.129-.323.322-.323.194 0 .323.13.323.323zm-114.808.645c0 .193-.13.322-.323.322s-.322-.129-.322-.322c0-.194.129-.323.322-.323.194 0 .323.13.323.323zm92.362 1.16c.452.452 1.677 1.355 2.71 2 1.29.839 1.612 1.29 1.031 1.677-.967.58-5.934-.58-5.418-1.354.194-.323-.451-.903-1.483-1.29-1.42-.516-1.548-.774-.839-1.226 1.355-.838 2.967-.774 4 .194zm24.058-.193c.194.323.258.645.065.645-.194 0-.516-.322-.71-.645-.193-.387-.258-.645-.064-.645.193 0 .516.258.71.645zm-118.742 1.677c.58 1.42-.194 2.064-.903.903-.774-1.225-.774-1.935-.065-1.935.323 0 .774.452.968 1.032zm2.838.194c.193.516-.065.774-.58.58-.452-.129-.968-.645-1.097-1.096-.194-.516.064-.774.58-.58.452.128.968.644 1.097 1.096zm72.819 1.096c-.194.194-.774.258-1.226.065-.516-.194-.322-.387.387-.387.71-.065 1.097.129.839.322zm-47.213.903c-.194.323-.774.645-1.161.645-.452 0-.387-.258.193-.645 1.226-.774 1.484-.774.968 0zm-18.254 1.935c-.58 1.032-1.225 1.613-1.354 1.226-.194-.58 1.677-3.16 2.257-3.16.13 0-.322.838-.903 1.934zm35.346-.322c0 .193-.13.322-.323.322s-.322-.129-.322-.322c0-.194.129-.323.322-.323.194 0 .323.13.323.323zm48.18.064c-.193.194-.773.258-1.225.065-.516-.194-.322-.387.387-.387.71-.065 1.097.129.839.322zm-8.836.58c0 .194-.129.323-.322.323-.194 0-.323-.129-.323-.322 0-.194.13-.323.323-.323s.322.13.322.323zm-89.008.646c0 .193-.13.322-.323.322s-.322-.129-.322-.322c0-.194.129-.323.322-.323.194 0 .323.13.323.323zm96.103 0c0 .193-.129.322-.322.322-.194 0-.323-.129-.323-.322 0-.194.13-.323.323-.323s.322.13.322.323zm-96.103 1.935c0 .193-.13.322-.323.322s-.322-.129-.322-.322c0-.194.129-.323.322-.323.194 0 .323.13.323.323zm1.096 1.419c-.258.193-.451 0-.451-.452 0-.451.193-.645.451-.451a.775.775 0 010 .903zm65.144 1.935a.775.775 0 01-.903 0c-.193-.258 0-.452.452-.452.451 0 .645.194.451.452zm-55.598 3.289c-.516.516-1.612-1.097-1.612-2.451 0-.58.387-.387 1.032.516.58.838.838 1.677.58 1.935zm16.06-2.064c1.742-.065 2.838 0 2.451.129s-.58.58-.387 1.096c.903 2.258-5.289 3.032-7.224.903-1.16-1.29-1.16-1.354.065-2.257.645-.516 1.354-.645 1.548-.322.193.322 1.806.515 3.547.451zm77.141.58c0 .194-.129.323-.322.323-.194 0-.323-.129-.323-.323 0-.193.13-.322.323-.322s.322.129.322.322zm1.29 1.29c0 .194-.129.323-.322.323-.194 0-.323-.129-.323-.323 0-.193.13-.322.323-.322s.322.129.322.322zm-105.133.968c0 .322-.13.645-.258.645-.194 0-.516-.323-.71-.645-.193-.387-.064-.645.258-.645.387 0 .71.258.71.645zm2.58.322c0 .194-.13.323-.323.323s-.322-.13-.322-.323.129-.322.322-.322c.194 0 .323.129.323.322zm-1.29.645c0 .194-.13.323-.323.323s-.322-.13-.322-.323.129-.322.322-.322c.194 0 .323.129.323.322zm11.61 1.935c0 .194-.13.323-.323.323s-.322-.13-.322-.323.129-.322.322-.322.322.129.322.322zm20.64 1.29c0 .194-.13.323-.323.323-.194 0-.323-.13-.323-.323s.13-.322.323-.322.322.129.322.322zm96.748 33.41c0 .84.258 1.742.58 2.065.71.838 2.129 6.837 1.742 7.224-.194.193.064 1.354.58 2.58.839 2 .839 2.193 0 1.87-.71-.258-.838.065-.516 1.548.645 3.419-.967 2.064-1.741-1.483-.452-1.806-1.613-5.031-2.645-7.03-1.87-3.742-1.935-4.967-.064-7.16 1.354-1.484 2.064-1.355 2.064.387zm7.74 36.636c0 .323-.258.58-.645.58-.323 0-.645-.45-.645-1.031 0-.516.322-.774.645-.58.387.193.645.644.645 1.031zm-54.825-110.035c0 .194.13.323.323.323s.322-.13.322-.323-.129-.322-.322-.322c-.194 0-.323.129-.323.322zm-14.318 9.804c1.16.129 2.902.129 3.87 0 .967-.13 0-.258-2.129-.258-2.128 0-2.902.129-1.741.258zm17.414 0c.452.193 1.032.129 1.226-.065.258-.193-.13-.387-.839-.322-.71 0-.903.193-.387.387zm-57.275 4.386c0 .193.13.322.323.322s.322-.129.322-.322c0-.194-.129-.323-.322-.323-.194 0-.323.13-.323.323zm17.931 1.87c-1.29 1.226-2.128 2.387-1.935 2.58.193.194.064.387-.322.387-.968 0-4.709 4-4.322 4.58.194.322 1.484 0 2.838-.71 1.419-.71 3.483-1.29 4.644-1.354 1.87-.065 1.935-.13.58-.516l-1.548-.452 1.677-1.096c1.87-1.226 3.677-1.42 3.677-.452 0 .323.645.645 1.483.58h9.675c8.579 0 11.417-.386 9.095-1.29-1.032-.386-.968-.515.516-.515 2.773-.065 2.838-1.355.064-1.42-11.61-.257-16.576-.58-17.157-1.16-.967-.968-3.225-.903-2.644.064.322.452.193.516-.387.194-.452-.258-.968-.194-1.226.193-.58.968-3.934 1.742-3.934.903 0-.387.58-.903 1.29-1.096.71-.194 1.29-.71 1.29-1.032 0-1.097-1.097-.58-3.354 1.612zm.451 1.677c.194.323.258.645.065.645-.194 0-.516-.322-.71-.645-.193-.387-.258-.645-.064-.645.193 0 .516.258.71.645zm22.769-.193c-.645.129-1.806.129-2.58 0-.839-.13-.323-.258 1.096-.258 1.42-.065 2.064.064 1.484.258zm-24.381 2.773c-1.29.839-2.128.839-1.612 0 .193-.387.902-.645 1.483-.645.967 0 .967.13.129.645zm-6.32.13c-.452.45-.775 1.031-.775 1.354 0 .322.452.064 1.032-.516.58-.58.903-1.161.774-1.29-.129-.194-.645.064-1.032.451zm14.898.322a.775.775 0 00.903 0c.194-.258 0-.452-.451-.452-.452 0-.645.194-.452.452zm-2.45.838c-.194.323-.065.645.257.645.387 0 .71-.322.71-.645 0-.387-.13-.645-.258-.645-.194 0-.516.258-.71.645zm14.705 1.097a.775.775 0 00.903 0c.194-.258 0-.452-.451-.452-.452 0-.645.194-.452.452zm-47.923 3.418c0 .452.194.645.452.452a.775.775 0 000-.903c-.258-.194-.452 0-.452.451zm-1.935.645c0 .323.323.645.645.645a.646.646 0 00.645-.645c0-.387-.258-.645-.645-.645a.646.646 0 00-.645.645zm27.542.452c-.194.322.387.58 1.29.645 1.225.064 1.418-.065.773-.516-1.096-.71-1.676-.71-2.063-.13zm80.172-.13c0 .194.129.323.322.323.194 0 .323-.129.323-.322 0-.194-.13-.323-.323-.323s-.322.13-.322.323zm-77.722 2.258c-.193.387.323.645 1.226.645s1.806-.322 2-.645c.193-.387-.323-.645-1.226-.645s-1.806.258-2 .645zm64.177.323c0 .193.129.322.322.322.194 0 .323-.129.323-.322 0-.194-.129-.323-.323-.323-.193 0-.322.13-.322.323zm-65.144 2.386c0 .323 1.225.516 2.709.516 1.483 0 2.515-.193 2.257-.387-.58-.58-4.966-.71-4.966-.129zm47.794.516c1.548 1.354 4.257 2.322 4.837 1.741.194-.193-.451-.838-1.483-1.419-1.677-.967-1.677-.967-.194-.58.903.258 1.42.194 1.161-.064-.258-.258-1.677-.581-3.16-.71l-2.71-.258 1.549 1.29zm14.125-.322c0 .193.129.322.323.322.193 0 .322-.129.322-.322 0-.194-.129-.323-.322-.323-.194 0-.323.129-.323.323zm1.613.967c.193.322.515.645.709.645.193 0 .129-.323-.065-.645-.193-.387-.516-.645-.709-.645-.193 0-.129.258.065.645zm-.645 1.419c.193.451 1.547 1.677 2.902 2.709 1.419 1.096 2.58 2.128 2.58 2.45 0 .259.322.517.774.517.387 0-.065-.903-1.161-2-2.387-2.515-5.547-4.837-5.095-3.676zm2.257-.452c0 .194.129.323.322.323.194 0 .323-.129.323-.323 0-.193-.129-.322-.323-.322-.193 0-.322.129-.322.322zm10.578 1.161c-.387 1.097 1.548 4.257 2.644 4.322.387 0 1.355.774 2.193 1.612 1.226 1.355 1.29 1.548.323 1.226-.71-.258-1.548-.71-2-1.032-.451-.387-1.16-.387-1.548-.13-.451.259-1.096 0-1.483-.515-.839-1.161-5.547-3.29-5.612-2.58 0 .258-.129 1.096-.322 1.935-.258 1.483 2.58 4.966 3.612 4.321.258-.193.967.323 1.483 1.161.774 1.226.839 1.742.194 2.967-1.613 2.967.451 7.16 3.483 7.16.516 0 1.354.58 1.806 1.29.903 1.483 3.547 1.225 5.224-.452.645-.71 1.032-.71 1.355-.193.645 1.032 1.29-.774 1.29-3.419 0-2.193-1.355-4.644-4.128-7.804-.903-1.032-1.548-2-1.42-2.129.581-.58 2.71 1.032 3.613 2.645.838 1.612 1.935 2.257 1.935 1.16 0-.257-1.548-2.45-3.419-4.901-3.74-4.902-8.514-8.385-9.223-6.644zm-1.742 7.998a.775.775 0 01-.903 0c-.193-.258 0-.451.452-.451.451 0 .645.193.451.451zm2.129-.129c0 .194-.13.323-.323.323s-.322-.13-.322-.323.129-.322.322-.322c.194 0 .323.129.323.322zm1.935 0c0 .194-.13.323-.323.323s-.322-.13-.322-.323.129-.322.322-.322c.194 0 .323.129.323.322zm2.58 9.61c-.323.84-.387 1.742-.194 1.936.258.193-.064.387-.645.387-.645 0-.967-.387-.774-.968.194-.516.452-1.419.645-1.935.13-.516.58-.967.903-.967.452 0 .452.58.065 1.548zm1.612 4.258c.194.322.065.645-.258.645-.387 0-.71-.323-.71-.645 0-.387.13-.645.259-.645.193 0 .516.258.71.645zm-114.486-21.608c0 .194.13.323.323.323s.322-.129.322-.323c0-.193-.129-.322-.322-.322-.194 0-.323.129-.323.322zm93.524 2.58c0 .516.452.968 1.032.968.903 0 .903-.194.258-.968-.451-.516-.903-.967-1.032-.967s-.258.451-.258.967zm-97.393.645c0 .194.129.323.322.323.194 0 .323-.13.323-.323s-.13-.322-.323-.322-.322.129-.322.322zm-.323 4.902c-.258.387-.322.774-.129.968.13.193.452-.13.645-.71.452-1.096.065-1.29-.516-.258zm-6.127 7.353c0 .194.129.323.322.323.194 0 .323-.13.323-.323s-.13-.322-.323-.322-.322.129-.322.322zm124.676 8.514a.775.775 0 00.903 0c.194-.258 0-.451-.451-.451-.452 0-.645.193-.452.451zm.452 3.096c0 .194.129.323.322.323.194 0 .323-.13.323-.323s-.13-.322-.323-.322-.322.129-.322.322zm-120.807-48.632c.258.838.516 1.16.71.645.129-.452-.065-1.161-.387-1.484-.516-.516-.58-.258-.323.839zm-3.676.903c0 .193.129.322.322.322.194 0 .323-.129.323-.322 0-.194-.13-.323-.323-.323s-.322.13-.322.323zm-5.805 9.997c0 .452.193.645.451.452a.775.775 0 000-.903c-.258-.194-.451 0-.451.451zm76.625 15.931c.387.13 1.16.13 1.612 0 .387-.193.065-.322-.838-.322s-1.226.129-.774.322zm-77.915 1.161c0 .194.129.323.322.323.194 0 .323-.13.323-.323s-.13-.322-.323-.322-.322.129-.322.322zm107.068 9.03c0 .194.13.323.323.323s.322-.13.322-.323-.129-.322-.322-.322c-.194 0-.323.129-.323.322zm2.064 42.505c-.71.968-1.612 1.677-2 1.677-.967 0-.902.839.13 1.87.387.516.516.774.129.581a78.112 78.112 0 01-3.16-1.419c-1.936-.838-3.29-1.032-5.483-.645-1.613.258-5.354.387-8.192.323-5.805-.194-7.353.774-7.353 4.45 0 3.612.71 3.805 10.45 2.709 8.126-.903 9.223-.903 13.867.129 2.773.58 5.74 1.225 6.643 1.354.903.13 2.257.452 2.967.645 1.354.452 1.419.258 1.29-3.805-.13-5.16-1.097-6.385-5.096-6.772-.258-.065-.451-.58-.322-1.226.322-1.806-2.386-1.741-3.87.13zm.323 5.998c-.258.194-.452 0-.452-.451 0-.452.194-.645.452-.452a.775.775 0 010 .903zm-87.268-3.611c-2.967.838-3.87 2.192-3.031 4.514.387 1.032.58 2.451.387 3.16-.968 3.742 1.29 5.548 4.257 3.42.903-.581 3.031-1.355 4.837-1.742 3.225-.71 21.994-.71 25.993-.065 1.677.323 2.129.13 2.451-.967.968-3.032-4.257-5.483-12.964-6.128-2.45-.193-5.482-.451-6.708-.645-1.354-.193-3.031.13-4.192.71-2.58 1.419-6.58 2.386-5.547 1.354.387-.387.71-1.548.71-2.515 0-1.612-.194-1.806-2.065-1.741-1.16 0-3.031.322-4.128.645z" fill="#873100"/><path d="M303.518 326.94s-1.597 6.515-.064 5.493c.638-.384 4.215 7.984 5.173 11.944 1.278 5.557.192 16.927-2.49 25.869l-1.214 4.024h1.341c1.15 0 1.214-.128.447-.639-.766-.447-.83-.83-.255-1.788.766-1.15 1.852-5.238 1.66-6.004-.063-.256.32-2.3.83-4.471.895-4.152 1.662-23.315.831-22.037-.32.447-.51.511-.51.128 0-.384.319-1.022.702-1.406.83-.83-1.533-5.365-4.663-9.006l-1.788-2.108zm-113.313 6.515c1.214 1.022-.51.83-.894-2.492-.192-1.405-1.214-.766-3.002 1.853-1.405 2.172-1.597 2.874-1.022 4.024s2.49 13.477 3.704 24.08c.192 1.789.959 3.641 1.789 4.663.83.958 1.66 2.875 1.916 4.28.256 1.341.703 2.363 1.022 2.108.703-.448.767 1.085 0 2.171-.639 1.086 1.47 5.43 3.96 8.048 1.406 1.47 1.661 1.98.958 2.428-.574.447-.447.51.511.319 1.086-.255 1.342 0 1.15 1.086-.128.702-.128.958.128.575.32-.767 3.45 2.235 3.45 3.321 0 1.022 2.299 3.258 3.129 3.002.639-.191.766 0 .51.703-.255.639-.063.894.384.766.447-.191 1.342.83 1.98 2.236.703 1.405 1.597 2.555 2.044 2.555.447 0 1.597.83 2.62 1.852 1.021.958 2.426 1.98 3.065 2.236.703.191 2.108 1.086 3.13 1.98 1.022.894 2.172 1.597 2.49 1.597.384 0 1.598.702 2.748 1.597 1.15.894 2.299 1.596 2.49 1.596.256 0 1.661.83 3.194 1.917 1.533 1.022 3.066 1.916 3.45 1.916.383 0 .702.383.702.766 0 .575.256.511.639-.127.383-.575.639-.64.639-.192 0 1.214 5.876 4.152 8.942 4.407 1.597.128 4.024.447 5.493.64 1.597.255 3.194.063 4.088-.384.83-.447 2.363-.894 3.322-.958 2.81-.256 7.537-1.725 7.537-2.3 0-.32.51-.575 1.15-.575 1.596 0 5.556-2.555 7.153-4.599.895-1.213 1.98-1.788 3.194-1.788 1.405 0 1.852-.32 2.044-1.405.128-.83.958-1.853 1.98-2.3.958-.447 1.725-1.213 1.725-1.66 0-.511 1.341-1.278 2.938-1.725 1.66-.511 3.13-1.341 3.257-1.852.511-1.661 1.278-2.875 1.853-2.875 1.086 0 2.171-1.022 2.171-2.044 0-1.15 3.066-4.024 4.344-4.024.447 0 .766-.83.766-1.916 0-1.086.32-1.916.703-1.916 1.47 0 5.046-5.366 5.046-7.601 0-.639.575-1.342 1.278-1.533.702-.192 1.277-.703 1.277-1.214 0-.638-.192-.575-.639.128-.51.83-.638.767-.638-.192 0-1.916-1.47-.894-3.194 2.172-3.577 6.451-13.733 17.054-22.484 23.378-2.81 2.044-7.09 5.302-9.517 7.282-4.024 3.321-4.918 3.768-11.05 5.301-10.156 2.491-13.925 2.044-20.12-2.363-1.597-1.214-6.963-4.152-11.817-6.58-10.54-5.237-15.777-9.453-25.039-20.375-8.75-10.22-14.5-28.105-14.5-44.712 0-6.26.576-8.367 1.853-7.281zm4.727 40.496c0 .191-.128.32-.32.32-.191 0-.319-.129-.319-.32 0-.192.128-.32.32-.32.191 0 .319.128.319.32zm.639 2.555c0 .191-.128.319-.32.319-.191 0-.32-.128-.32-.32 0-.191.129-.319.32-.319.192 0 .32.128.32.32zm114.334-44.137c0 1.66 7.729 11.689 9.517 12.391.575.192 1.789.895 2.81 1.533.959.703 1.725 1.086 1.725.83 0-.191.767.384 1.725 1.278.958.894 2.49 1.597 3.321 1.597 1.533 0 2.81.51 11.37 4.535 2.235 1.022 4.28 1.852 4.599 1.852.32 0 .702.256.83.64.128.318.767.702 1.47.83 1.213.255 3.704 1.15 6.387 2.299.702.32 4.215 1.341 7.792 2.235 3.577.959 7.601 2.172 8.943 2.683 2.427.958 3.193 1.342 12.327 5.621 2.62 1.278 6.26 2.555 7.985 2.938 1.788.384 3.96 1.278 4.918 1.917.958.702 2.3 1.277 3.066 1.277.702 0 1.277.256 1.277.639 0 .32.511.638 1.15.638 1.341 0 5.94 2.172 10.859 5.047 1.852 1.085 3.832 1.98 4.407 1.98 1.788 0 8.495 3.96 11.37 6.706 1.532 1.533 3.002 2.555 3.257 2.3.256-.192.256-.064.064.32-.192.382.447 1.596 1.469 2.746 1.086 1.15 1.916 2.235 1.916 2.49 0 .256 1.597 1.215 3.513 2.109 3.45 1.597 3.513 1.597 3.513.32 0-2.684-5.11-11.243-7.856-13.287-3.96-2.874-33.981-17.373-40.624-19.609-3.13-1.086-9.709-3.896-14.563-6.324-8.751-4.407-19.865-9.07-21.462-9.07-.447 0-1.469.575-2.235 1.278-.767.766-1.406 1.022-1.406.639 0-.32-.447-.64-.958-.64-.51 0-1.66-.702-2.555-1.596-.894-.894-1.597-1.47-1.597-1.214s-.51 0-1.085-.51c-1.278-1.023-4.663-2.62-7.218-3.386-.894-.255-4.088-1.725-7.09-3.257-5.749-2.939-6.707-3.258-5.94-2.044.638.958-.192.447-7.41-4.791-5.876-4.216-9.581-6.579-9.581-5.94zm48.161 23.058c.703.511.958.958.639.958-.384 0-1.214-.447-1.917-.958-.638-.51-.894-.894-.574-.894.383 0 1.213.383 1.852.894zm-2.491.958c.192.32.255.64.064.64-.192 0-.511-.32-.703-.64-.191-.383-.255-.638-.064-.638.192 0 .511.255.703.638zm-176.228-19.737c-2.044 1.725-4.088 3.066-4.472 2.938-.383-.127-2.363.575-4.407 1.597-3.769 1.853-7.473 5.94-7.473 8.24 0 .639-.575 1.47-1.278 1.852-2.81 1.533-1.022 1.725 2.236.256 1.98-.83 3.96-1.533 4.471-1.533.511 0 1.341-.83 1.98-1.852 1.022-1.725 4.727-3.897 6.77-3.897 2.492 0 6.9-6.132 6.9-9.58 0-1.853-.512-1.598-4.727 1.98zm-20.823 9.837c-1.917 1.277-4.216 2.427-5.11 2.619-4.344.83-8.496 2.682-13.861 6.195-3.258 2.108-5.94 4.088-5.94 4.408 0 .255-1.405.51-3.194.51-2.044 0-4.471.576-6.834 1.661-2.044.895-5.685 2.236-8.049 2.875-2.363.702-5.812 2.108-7.664 3.13-1.853 1.022-4.919 2.171-6.835 2.618-6.77 1.406-11.497 3.194-12.647 4.855-.575.83-2.236 2.619-3.64 3.896-1.406 1.278-3.514 3.386-4.791 4.663-2.3 2.363-8.432 6.962-9.262 6.962-.256 0 0-.702.575-1.597 1.597-2.363.383-1.98-4.471 1.661-2.428 1.789-5.43 3.769-6.707 4.471-2.491 1.214-3.769 3.13-2.172 3.13.511 0 .958-.383.958-.83 0-.511.192-.511.575.128.32.51.447 1.34.256 1.916-.256.575.383.32 1.532-.767 1.853-1.724 3.641-2.235 4.344-1.15.192.384.958.32 1.788-.191 3.769-2.108 5.557-3.322 5.557-3.769 0-.255.448-.447.959-.447.574 0 2.427-.958 4.087-2.044a201.9 201.9 0 015.813-3.704c1.47-.895 3.577-2.364 4.663-3.386 1.086-.958 2.938-2.044 4.088-2.49 2.235-.831 2.81-1.79 1.086-1.79-.83 0-.895-.19-.32-.894.575-.702.575-.958-.064-1.15-1.66-.574 4.6-3.065 9.837-3.96 4.727-.766 7.601-1.788 12.647-4.534.894-.448 2.874-1.406 4.471-2.044 1.597-.64 4.663-2.364 6.835-3.897 4.215-2.81 5.493-3.321 4.918-1.724-.255.51-.766.958-1.277.958-.511 0-.895.32-.895.766 0 .383-.447 1.278-1.086 1.916-.894 1.022-.894 1.15-.063 1.15 2.618 0 4.982-.894 4.982-1.852 0-.83.127-.83.575-.192.447.703.83.575 2.107-.639 3.13-2.938 5.685-4.598 6.58-4.151.127.064.766-.511 1.277-1.342.575-.766 1.469-1.405 1.98-1.405.447 0 1.98-1.022 3.385-2.236 2.747-2.49 3.258-2.682 3.258-1.277 0 1.916 1.98.894 6.387-3.385 6.324-6.068 6.004-7.92-.638-3.641zm192.9 6.387c0 .192.127.32.318.32.192 0 .32-.128.32-.32 0-.191-.128-.32-.32-.32-.191 0-.319.129-.319.32zm2.554.958c-.575.384-.639.64-.192.64.384 0 .959-.32 1.15-.64.511-.766.256-.766-.958 0zm-226.114 13.733c0 .192.128.32.32.32.191 0 .319-.128.319-.32 0-.191-.128-.32-.32-.32-.191 0-.319.129-.319.32zm72.816 20.76c0 .319.32.638.64.638a.64.64 0 00.638-.639c0-.383-.256-.638-.639-.638a.64.64 0 00-.639.638zm83.675 15.33c0 .446.192.638.447.446a.767.767 0 000-.894c-.255-.192-.447 0-.447.447zm-8.303 6.067c0 .192.127.32.32.32.19 0 .318-.128.318-.32 0-.191-.127-.32-.319-.32s-.32.129-.32.32z" fill="#00a3fb"/></svg>