<svg viewBox="0 0 602 602" xmlns="http://www.w3.org/2000/svg"><g transform="matrix(.1 0 0 -.1 0 602)"><path d="M4115 3539c-2 15-2263 87-2263 42 1-45 5-81 10-81 4 0 8-6 8-14s3-16 8-19c4-2 0-1-8 1-45 16-85 7-98-22-43-87-2-471 64-597 8-16 14-48 14-73 0-61 7-74 51-96 45-24 97-26 105-5 9 23-26 216-47 261-10 22-19 46-19 52 0 7-16 12-40 12-45 0-47 3-54 75-2 28-5 53-5 58-1 4-7 7-15 7-9 0-18 22-26 65-12 65-7 135 10 135 5 0 7 6 4 14s2 23 12 34c16 19 84-56 84-102 0-18 4-36 9-42 5-5 11-42 13-81 4-85 21-93 26-12 2 32-62.945 429.933-53.945 440.933-2.846 15.855 1252.805-12.718 2185.65-43.723 176.984-5.882-150.148-26.1 45.295-84.21 22.377-6.653 55-20 55-42 0-9 8-24 17-35 30-33 18-195-13-183-11 4-14-7-15-52-1-98-9-113-68-138-42-17-81-52-81-71 0-17 10-16 34 2 33 25 53 19 59-17 2-18 1-41-4-50s-9-26-9-37c0-12-4-21-9-21s-8-8-7-17c1-12-5-17-16-15-10 2-18-2-18-7 0-6-30-11-66-13-63-3-69-5-96-39-16-20-35-58-43-85-49-177-63-230-59-235 2-4-4-28-13-55-12-35-13-49-5-52 7-2 12-13 12-23 0-11 4-18 9-14 18 11 21-13 6-61-11-36-14-103-15-252 0-112-2-208-6-213-18-30 51-200 75-184 10 6 96-94 102-88 13 13-24 84-73 141l-28 33 5 192c3 106 7 255 9 331 2 77 0 151-5 164-7 17-5 39 5 71 8 25 31 109 51 186 19 77 39 143 44 148 4 4 15-3 24-17 49-74 171-16 173 83 0 50 5 70 65 260 53 168 61 294 27 391-21 58-26 65-52 68-31 4-75-14-89-36-11-17-27-6-27 20 0 13 5 18 14 15 11-4 13 1 11 22zm-25-70c0-5-4-9-10-9-5 0-10 7-10 16 0 8 5 12 10 9 6-3 10-10 10-16zm-2170-539c10-5 21-23 25-40 4-16 10-30 15-30 4 0 8-20 8-45 1-29-3-45-11-45-23 0-39 18-40 44-1 14-5 26-9 26-5 0-8 7-8 15s-4 15-10 15c-5 0-10 16-10 35 0 36 9 42 40 25zm1370 543c-30-16-85-78-85-78l48 29c75 43 132 55 96 19-9-9-8-20 2-45 7-18 12-41 10-52-1-11 2-16 8-11 6 3 9 10 6 15-2 4 8 13 25 20 29 12 49 57 35 80-19 30 85-1 128-38 16-14 15-17-25-44-37-25-49-28-90-23-61 7-70-20-10-30 37-6 152 31 159 52 2 5 19 7 38 5 27-3 34-1 29 9-11 27-87 80-130 90-25 6-47 15-50 20s-36 9-73 9c-54 0-78-5-121-27zm130-8c0-3-2-5-5-5s-5 2-5 5 2 5 5 5 5-2 5-5zm-20-45c0-5-4-10-10-10-5 0-10 5-10 10 0 6 5 10 10 10 6 0 10-4 10-10zm-166 56c-10-8-17-17-14-19 3-3 14 1 24 9 11 7 17 16 15 19-3 3-14-2-25-9zm-779-12c-15-8-38-16-51-18-13-3-36-13-52-24-15-11-37-22-49-26-46-15-38-62 9-52 17 3 44 0 62-8 69-30 112-37 145-23 40 17 32 25-22 21-28-3-56 3-88 18l-45 22 25 22c33 27 71 47 78 40 3-2 16-1 29 4 31 12 33-7 2-20-13-5-17-9-10-9 7-1 17-12 22-26s16-26 25-26c51-4 50-5 50 38 0 38 2 42 20 37 34-11 59-23 83-40 31-23 27-2-5 27-58 52-171 73-228 43zm105-64c0-5-2-10-4-10-3 0-8 5-11 10-3 6-1 10 4 10 6 0 11-4 11-10zm110 65c0-3 2-5 5-5s5 2 5 5-2 5-5 5-5-2-5-5zm25-15c3-5 8-10 11-10s2 5-1 10c-3 6-8 10-11 10s-2-4 1-10zm-85-45c0-3 2-5 5-5s5 2 5 5-2 5-5 5-5-2-5-5zm253-22c4-3 10-3 14 0 3 4 0 7-7 7s-10-3-7-7zm1317 2c0-3 2-5 5-5s5 2 5 5-2 5-5 5-5-2-5-5zm-1012-12c6-2 18-2 25 0 6 3 1 5-13 5s-19-2-12-5zm-442-22c-17-19-17-19 3-14 12 3 21 12 21 19 0 18-4 18-24-5zm354 9c0-7 3-10 7-7 3 4 3 10 0 14-4 3-7 0-7-7zm-505-20c-3-5 1-10 9-10 9 0 16 5 16 10 0 6-4 10-9 10-6 0-13-4-16-10zm266-4c-8-10-9-16-1-21 5-3 13 1 16 10 9 22-1 29-15 11zm231-35c-15-50-15-56 4-75 30-31 43 7 28 83-9 41-18 39-32-8zm1088-36c0-14 5-25 10-25 6 0 10 11 10 25s-4 25-10 25c-5 0-10-11-10-25zm-1052-153c-10-2-18-6-18-10 0-15 25-72 32-72 4 0 8-9 8-20 0-10 13-34 29-52s38-50 49-71c20-38 35-38 28-1-2 11-20 46-39 79s-38 75-42 94c-9 41-24 58-47 53zm-358-127c0-3 2-5 5-5s5 2 5 5-2 5-5 5-5-2-5-5zm-39-51c0-11 3-14 6-6 3 7 2 16-1 19-3 4-6-2-5-13zm89-83c0-14 41-41 62-41 27 0 21 18-12 35s-50 19-50 6zm294-6c-37-15-49-31-31-38 16-6 77 21 77 34 0 16-16 17-46 4zm-987-142c-3-5-8-23-12-41s-13-36-19-38c-30-11 12-212 64-312 72-138 76-144 91-125 12 14 12 16 0 8-11-6-13-4-8 8 3 9 2 19-4 23-6 3-8 12-5 20 7 17-13 125-25 140-5 6-13 45-19 86-6 42-15 91-20 109-6 19-10 55-10 81 0 35-4 48-14 48-8 0-17-3-19-7zm1228-174c-33-11-94-22-135-25-41-2-91-7-110-11-19-3-57-7-85-8-27-1-58-5-67-9s-22-5-28-1c-6 3-70 11-143 16-242 18-263 12-191-60 43-42 136-83 152-67 11 12-10 36-31 36-28 0-52 24-42 40 4 7 75 10 213 9 120-1 234 3 272 9 36 7 87 12 114 12h49l-23-25c-13-14-29-25-36-25s-18-10-25-21c-11-21-10-22 22-15 34 7 50 21 43 40-2 6 7 12 20 12 32 2 126 74 126 96s-17 22-95-3zm-1246-511c-1-233 57-398 62-392s9 105 10 221c2 252 7 267 65 204 51-58 55-43 5 20-23 29-61 92-84 140s-45 88-49 88c-5 1-8-126-9-281zm91 97c0-3-2-5-5-5s-5 2-5 5 2 5 5 5 5-2 5-5zm50 50c0-3 2-5 5-5s5 2 5 5-2 5-5 5-5-2-5-5zm-60-110c0-3 2-5 5-5s5 2 5 5-2 5-5 5-5-2-5-5zm1470-65c0-7 3-10 7-7 3 4 3 10 0 14-4 3-7 0-7-7zm-55-33c-22-12-47-30-56-39-9-10-20-18-24-18s-24-13-44-29-58-38-86-50c-27-12-67-31-88-41-22-11-48-20-59-20-10 0-27-4-36-9-16-9-206-35-242-34-45 2-216 26-225 32-5 4-28 13-50 20-22 8-59 26-81 41-23 15-58 33-77 39-20 7-53 21-74 31s-39 17-41 15c-9-8 25-45 56-59 18-9 59-33 90-54 236-156 503-183 733-74 46 22 95 44 109 48 14 3 27 10 30 14s28 24 55 44c59 44 155 141 155 156 0 5-1 10-2 9-2 0-21-10-43-22z" fill="#d4887c"/><rect x="1909.023" y="-3665.32" width="2194.421" height="135.31" transform="scale(1 -1)" rx="16.097" ry="16.097" fill="#fff" stroke="#fff"/></g></svg>