<svg viewBox="0 0 500 500" xmlns="http://www.w3.org/2000/svg"><path d="M290.542 297.912s-1.567 6.392-.063 5.389c.627-.376 4.136 7.833 5.076 11.719 1.254 5.452.188 16.606-2.444 25.38l-1.19 3.948h1.316c1.128 0 1.19-.126.438-.627-.752-.439-.814-.815-.25-1.755.752-1.128 1.817-5.138 1.63-5.89-.064-.25.312-2.256.814-4.387.877-4.073 1.63-22.873.814-21.62-.313.439-.5.501-.5.125s.312-1.002.688-1.378c.815-.815-1.504-5.264-4.574-8.836l-1.755-2.068zm-111.171 6.392c1.19 1.002-.501.814-.877-2.444-.188-1.38-1.191-.752-2.946 1.817-1.379 2.13-1.567 2.82-1.003 3.948.564 1.128 2.444 13.223 3.635 23.625.188 1.755.94 3.572 1.755 4.575.815.94 1.63 2.82 1.88 4.199.25 1.316.69 2.318 1.003 2.068.689-.439.752 1.065 0 2.13-.627 1.066 1.44 5.327 3.885 7.896 1.379 1.442 1.63 1.943.94 2.382-.564.439-.439.501.501.313 1.066-.25 1.316 0 1.128 1.066-.125.689-.125.94.126.564.313-.752 3.384 2.193 3.384 3.258 0 1.003 2.256 3.196 3.07 2.946.627-.188.752 0 .502.689-.251.627-.063.877.376.752.438-.188 1.316.815 1.942 2.193.69 1.379 1.567 2.507 2.006 2.507.438 0 1.566.815 2.569 1.817 1.003.94 2.381 1.943 3.008 2.194.69.188 2.068 1.065 3.07 1.942 1.003.878 2.131 1.567 2.445 1.567.376 0 1.566.69 2.694 1.567s2.256 1.566 2.444 1.566c.251 0 1.63.815 3.134 1.88 1.504 1.003 3.008 1.88 3.384 1.88.376 0 .69.376.69.752 0 .564.25.502.626-.125.376-.564.626-.627.626-.188 0 1.19 5.766 4.073 8.774 4.324 1.566.125 3.948.439 5.39.627 1.566.25 3.133.062 4.01-.376.815-.439 2.319-.878 3.259-.94 2.757-.251 7.394-1.692 7.394-2.256 0-.314.502-.564 1.128-.564 1.567 0 5.452-2.507 7.019-4.512.877-1.191 1.943-1.755 3.133-1.755 1.379 0 1.818-.313 2.006-1.379.125-.814.94-1.817 1.942-2.256.94-.438 1.692-1.19 1.692-1.63 0-.5 1.316-1.252 2.883-1.691 1.63-.501 3.07-1.316 3.196-1.817.501-1.63 1.253-2.82 1.817-2.82 1.066 0 2.131-1.003 2.131-2.006 0-1.128 3.008-3.948 4.261-3.948.44 0 .752-.814.752-1.88 0-1.065.314-1.88.69-1.88 1.441 0 4.95-5.264 4.95-7.457 0-.627.564-1.316 1.254-1.504.69-.188 1.253-.69 1.253-1.19 0-.628-.188-.565-.627.124-.5.815-.626.752-.626-.188 0-1.88-1.442-.877-3.134 2.131-3.509 6.33-13.473 16.732-22.058 22.936-2.758 2.006-6.956 5.202-9.338 7.144-3.948 3.259-4.825 3.698-10.841 5.202-9.964 2.444-13.662 2.005-19.74-2.319-1.567-1.19-6.83-4.073-11.594-6.455-10.34-5.138-15.478-9.274-24.565-19.99-8.585-10.027-14.226-27.574-14.226-43.867 0-6.142.565-8.21 1.818-7.144zm4.637 39.73c0 .188-.125.314-.313.314s-.313-.126-.313-.314.125-.313.313-.313.313.125.313.313zm.627 2.507c0 .188-.125.313-.313.313s-.314-.125-.314-.313.126-.313.314-.313.313.125.313.313zm112.174-43.303c0 1.63 7.583 11.468 9.337 12.158.564.188 1.755.877 2.758 1.504.94.689 1.692 1.065 1.692.814 0-.188.752.376 1.692 1.254.94.877 2.444 1.566 3.258 1.566 1.504 0 2.758.502 11.155 4.45 2.193 1.002 4.199 1.817 4.512 1.817.313 0 .69.25.815.627.125.313.752.689 1.441.814 1.19.251 3.635 1.128 6.267 2.256.689.314 4.136 1.316 7.645 2.194 3.51.94 7.457 2.13 8.773 2.632 2.382.94 3.134 1.316 12.095 5.514 2.57 1.254 6.142 2.507 7.834 2.883 1.754.376 3.885 1.253 4.825 1.88.94.69 2.256 1.253 3.008 1.253.69 0 1.253.251 1.253.627 0 .313.502.627 1.128.627 1.316 0 5.828 2.13 10.654 4.95 1.817 1.066 3.76 1.943 4.324 1.943 1.754 0 8.334 3.886 11.154 6.58 1.504 1.504 2.946 2.507 3.196 2.256.251-.188.251-.062.063.314s.439 1.566 1.441 2.694c1.066 1.128 1.88 2.194 1.88 2.444s1.567 1.19 3.447 2.068c3.384 1.567 3.447 1.567 3.447.314 0-2.632-5.014-11.03-7.708-13.035-3.886-2.82-33.34-17.046-39.856-19.239-3.071-1.065-9.526-3.823-14.289-6.204-8.585-4.324-19.489-8.899-21.056-8.899-.438 0-1.441.564-2.193 1.254-.752.752-1.379 1.002-1.379.626 0-.313-.438-.626-.94-.626-.501 0-1.629-.69-2.506-1.567-.878-.877-1.567-1.441-1.567-1.19 0 .25-.501 0-1.065-.502-1.254-1.003-4.575-2.57-7.082-3.321-.877-.251-4.01-1.692-6.956-3.196-5.64-2.883-6.58-3.196-5.828-2.006.627.94-.188.439-7.27-4.7-5.765-4.136-9.4-6.454-9.4-5.828zm47.25 22.623c.69.501.94.94.627.94-.376 0-1.19-.439-1.88-.94-.626-.501-.877-.877-.564-.877.376 0 1.191.376 1.818.877zm-2.443.94c.188.313.25.627.062.627s-.501-.314-.689-.627c-.188-.376-.25-.627-.063-.627.188 0 .502.251.69.627zm-172.899-19.364c-2.005 1.692-4.01 3.008-4.386 2.883-.376-.126-2.319.564-4.324 1.566-3.698 1.818-7.332 5.828-7.332 8.084 0 .627-.564 1.442-1.254 1.818-2.757 1.504-1.002 1.692 2.194.25 1.942-.814 3.885-1.504 4.386-1.504.502 0 1.316-.814 1.943-1.817 1.003-1.692 4.637-3.823 6.643-3.823 2.444 0 6.768-6.016 6.768-9.4 0-1.817-.502-1.566-4.638 1.943zm-20.429 9.65c-1.88 1.254-4.136 2.382-5.013 2.57-4.262.815-8.335 2.632-13.6 6.079-3.195 2.068-5.827 4.01-5.827 4.324 0 .25-1.379.501-3.133.501-2.006 0-4.387.564-6.706 1.63-2.005.877-5.577 2.193-7.896 2.82-2.319.689-5.703 2.067-7.52 3.07-1.817 1.003-4.825 2.13-6.705 2.57-6.643 1.378-11.28 3.133-12.408 4.762-.564.815-2.194 2.57-3.572 3.823-1.379 1.253-3.447 3.321-4.7 4.574-2.256 2.32-8.272 6.831-9.087 6.831-.25 0 0-.69.564-1.566 1.567-2.32.376-1.943-4.387 1.629-2.381 1.755-5.326 3.697-6.58 4.387-2.444 1.19-3.697 3.07-2.13 3.07.5 0 .94-.376.94-.814 0-.502.187-.502.563.125.314.501.44 1.316.251 1.88-.25.564.376.313 1.504-.752 1.818-1.692 3.572-2.193 4.262-1.128.188.376.94.313 1.754-.188 3.698-2.068 5.452-3.259 5.452-3.697 0-.251.439-.44.94-.44.564 0 2.382-.94 4.01-2.004a198.584 198.584 0 015.704-3.635c1.441-.877 3.509-2.319 4.574-3.322 1.066-.94 2.883-2.005 4.011-2.444 2.193-.814 2.757-1.754 1.065-1.754-.814 0-.877-.188-.313-.878.564-.689.564-.94-.063-1.128-1.629-.564 4.512-3.008 9.651-3.885 4.637-.752 7.457-1.755 12.408-4.45.877-.438 2.82-1.378 4.387-2.005 1.566-.626 4.575-2.318 6.705-3.822 4.136-2.758 5.39-3.259 4.826-1.692-.251.501-.752.94-1.254.94-.501 0-.877.313-.877.752 0 .376-.439 1.253-1.065 1.88-.878 1.002-.878 1.128-.063 1.128 2.57 0 4.888-.878 4.888-1.818 0-.814.125-.814.564-.188.439.69.815.564 2.068-.626 3.07-2.883 5.577-4.512 6.455-4.074.125.063.752-.501 1.253-1.316.564-.752 1.441-1.378 1.943-1.378.438 0 1.942-1.003 3.321-2.194 2.695-2.444 3.196-2.632 3.196-1.253 0 1.88 1.943.877 6.267-3.321 6.204-5.954 5.89-7.771-.627-3.572zm189.254 6.267c0 .188.126.314.314.314s.313-.126.313-.314-.125-.313-.313-.313-.314.125-.314.313zm2.507.94c-.564.376-.627.627-.188.627.376 0 .94-.313 1.128-.627.501-.752.25-.752-.94 0zm-221.841 13.474c0 .188.125.313.313.313s.314-.125.314-.313-.126-.314-.314-.314-.313.126-.313.314zm71.44 20.367c0 .313.314.626.627.626a.628.628 0 00.627-.626c0-.376-.251-.627-.627-.627a.628.628 0 00-.627.627zm82.094 15.04c0 .438.188.626.439.438a.753.753 0 000-.877c-.251-.188-.439 0-.439.439zm-8.147 5.953c0 .188.126.313.314.313s.313-.125.313-.313-.125-.313-.313-.313-.314.125-.314.313z" fill="#00a3fb"/></svg>