<svg viewBox="0 0 500 500" xmlns="http://www.w3.org/2000/svg"><path d="M247.27 64.34c-1.185.445-6.887 1.334-12.59 2.148-5.703.74-10.961 1.556-11.628 1.852-.815.296-1.333.222-1.333-.222 0-.519-1.037-.445-3.037.222-2.666.963-2.962.963-2.592 0 .222-.593.222-1.111 0-1.111-.963 0-4.74 2.592-4.74 3.185 0 .37-.518.444-1.11.222-.741-.296-1.408.148-1.778 1.185-.519 1.407-.593 1.407-1.037.296-.296-.74-.37-1.63-.074-2 .222-.37.074-1.185-.296-1.851-.963-1.778-4.74 1.703-7.703 7.184-1.333 2.37-2.814 4.37-3.333 4.37-.518 0-.962.518-.962 1.184 0 .741-.445 1.037-1.111.741-.667-.222-1.111 0-1.111.593 0 .518-.445 1.407-1.037 1.851-.815.667-1.111.519-1.481-.963-.37-1.629.74-6.22 1.703-7.11.74-.592 2.296-5.406 1.926-5.85-.222-.223-.889.37-1.556 1.259-.592.888-1.555 1.629-2.147 1.629-.963 0-4.814 7.11-4.814 8.813 0 .445-.297.815-.741.815-.667 0-1.037-1.703-.963-4.296.074-1.629-1.185-.962-1.703.963-.297 1.111-1.185 2.074-2.148 2.296-1.333.37-1.778 1.111-2.148 4-.518 4.073-1.407 5.036-3.185 3.554-.888-.666-1.11-.666-.666-.074.296.593.148.963-.296.963-.519 0-.741.519-.445 1.26.297.814-.148.592-1.037-.52-.814-1.036-1.48-2.221-1.48-2.74 0-2.147-2.297.223-2.667 2.815-.296 1.777-.889 2.888-1.555 2.888-.741 0-.89.519-.593 1.63.37 1.333.074 1.11-1.259-.667-2.74-3.851-3.185-2.814-.666 1.63 2.518 4.443 2.518 7.998 0 4.74-1.334-1.778-1.408-1.778-1.408-.149 0 1.778 3.333 6.147 4.74 6.147.963 0 3.407 2.296 3.407 3.111 0 .222-.666.593-1.481.815-1.037.296-1.481 0-1.481-.963 0-1.704-1.926-3.333-2.592-2.222-.223.37.074.963.666 1.185.667.222 1.185.74 1.185 1.111 0 .889-2.74.815-3.333-.074-.296-.444-.74-.593-1.11-.37-.371.222-.963-.223-1.408-.89-.37-.74-.963-1.11-1.185-.814-.296.296 0 1.26.667 2.222.666.889 1.185 2.37 1.185 3.259 0 .888.963 2.592 2.222 3.703 1.555 1.481 1.925 2.296 1.259 2.666-.667.444-.667.593 0 .593 1.333 0 .37 4.295-1.556 6.887-.888 1.185-1.555 3.481-1.703 5.555-.074 1.926-.37 5.11-.593 7.184-.296 2-.592 11.702-.666 21.478-.148 10.739-.519 18.59-1.037 19.7-.444 1.111-.592 2.148-.444 2.37.222.223.444 3.037.444 6.37.074 3.333.37 5.999.74 5.999.297 0 .593.444.593 1.037 0 .592 3.259 17.478 3.63 17.923.37.37 3.628 2.37 4.295 1.555.963-1.037 1.407-4.37 2.073-16.812.741-14.22.89-15.701 2.445-17.553 3.925-4.888 4.147-5.554 4.814-13.109.666-7.998 1.259-22.07 1.333-32.217.074-6.517 1.48-11.331 3.999-13.405.889-.74 3.185-1.11 7.332-1.185 6.74-.074 10.813-.666 14.294-2.222 1.26-.592 2.889-1.037 3.703-1.037.74 0 2-.444 2.815-.962 2.592-1.778 9.85-2.815 13.034-1.926 1.556.518 3.63.592 4.889.296l2.073-.592-1.851-.519c-1.852-.592-1.852-.592.296-.666 1.185-.074 3.925.518 6.073 1.185 3.407 1.037 4.37 1.11 6.962.222 2.296-.74 3.407-.815 4.814-.148 2.222 1.037 9.924 1.11 13.924.222 2-.444 3.925-.37 6.665.444 2.074.667 4.37 1.333 4.962 1.482.815.222.815.444.148.888-.592.37.593 1.926 3.852 5.036 4.517 4.148 7.48 5.703 6.591 3.407-.222-.592.148-.962 1.185-.962.889 0 1.556.296 1.556.74 0 .37 1.777 2.518 3.925 4.814 4.444 4.518 9.11 13.11 9.85 17.923.518 3.407 1.26 3.851 3.851 2 1.778-1.26 2-.815 1.63 3.185-.074 1.555 1.851 11.035 3.85 18.367.371 1.63 1.334 3.777 2.075 4.814 1.851 2.666 3.036 8.369 3.036 14.368-.074 6.37 1.333 18.812 2.296 20.663 1.333 2.592 2.963.963 4.74-4.814 1.926-6.073 4.148-9.406 6.592-9.776 1.703-.296-.297-2.962-1.334-1.333-.814 1.259-2 .444-2-1.481 0-.963.371-1.333 1.038-1.111.814.296.962-.074.814-1.63-.148-1.11-.444-10.665-.666-21.255-.222-10.517-.445-19.33-.445-19.553-.37-3.851-.222-11.85.149-11.85.296 0 1.184 1.26 2 2.74l1.48 2.815.074-2.814c0-1.556-.296-4.222-.74-5.925-.37-1.704-1.037-6.444-1.333-10.517-.445-5.48-1.111-8.37-2.444-10.961-2.37-4.74-10.517-15.998-15.257-21.256-2.148-2.296-3.925-4.888-3.925-5.629 0-1.63-3.111-6.221-4.888-7.184-.593-.37-3.481-1.407-6.444-2.444-2.888-.963-6.517-2.666-7.999-3.629-3.11-2.222-13.257-6.591-16.96-7.406-1.407-.296-5.11-1.333-8.147-2.222-6.961-2.148-11.553-2.666-14.442-1.777zm-41.845 4.74c0 .223-.148.37-.37.37s-.37-.147-.37-.37c0-.222.148-.37.37-.37s.37.148.37.37zm55.62 1.778c3.186.444 7.185 1.407 8.888 2.222 1.778.889 4.666 1.851 6.37 2.296 2.666.666 5.925 2.74 5.258 3.333-.148.148-4-.37-8.517-1.185-6.221-1.037-8.74-1.778-9.924-2.963-1.037-1.037-1.926-1.333-2.74-.963-.667.37-3.111.519-5.333.445-2.222-.074-9.036-.297-15.183-.519-6.073-.148-11.257-.37-11.405-.37-.149 0-.149-.148.074-.37.222-.223 4.147-.741 8.665-1.111 4.518-.37 8.813-1.037 9.48-1.482 1.407-.814 4.592-.666 14.368.667zm-58.656 2.814c-.74 1.556-1.407 3.185-1.407 3.777 0 .519-.297.741-.741.519-.74-.444.667-3.925 2.37-6.147 1.333-1.556 1.259-.963-.222 1.851zm2.296-.148c-.519.593-.667 1.111-.445 1.111.297 0 .148.667-.296 1.481-.444.815-1.185 1.482-1.63 1.482-.666 0-.666-.223 0-.89.52-.518.89-1.332.89-1.85 0-1.112 1.629-3.185 2.147-2.741.148.148-.148.74-.666 1.407zm5.925-1.555c0 .222-.37.592-.89.889-.518.296-.592.222-.295-.297.518-.888 1.185-1.185 1.185-.592zm16.515 1.703c-.518.148-1.555.148-2.221 0-.741-.222-.297-.37.888-.37 1.26 0 1.778.148 1.333.37zm-18.737.593c0 .222-.148.37-.37.37-.223 0-.37-.148-.37-.37s.147-.37.37-.37c.222 0 .37.148.37.37zm2.222 0c0 .222-.148.37-.37.37-.223 0-.371-.148-.371-.37s.148-.37.37-.37c.223 0 .37.148.37.37zm29.92.148c4.518.37 4.963.592 3.778 1.481-.815.519-2.74.963-4.37.963-2.148 0-2.74-.222-2-.667 1.111-.74.297-1.036-4.37-1.777l-1.85-.296 1.85-.148c1.038 0 4.148.148 6.963.444zm-34.586 1.481c-.296.222-.519 0-.519-.518 0-.519.223-.74.519-.519a.89.89 0 010 1.037zm26.144 1.704c5.184 1.777 6.22 1.777 12.738 0 6.592-1.778 8.814-1.852 16.886-.149 5.63 1.26 13.702 4.444 11.258 4.592-.519 0-1.926-.518-3.037-1.037-1.11-.592-3.85-1.333-6.073-1.555l-4-.444 5.556 1.63c3.036.888 6.591 1.629 7.776 1.629 10.295 0 27.033 5.11 27.033 8.22 0 .445 2.222 2.963 4.962 5.63 10.59 10.294 12.072 11.849 12.072 12.738-.074.518-1.26-.37-2.666-2-1.482-1.63-3.037-3.036-3.481-3.036-.519-.075-1.333-.149-1.852-.223-.518 0-.814-.37-.592-.74.592-.889-4.666-6.74-5.925-6.74-.593 0-1.037-.296-1.037-.666 0-.963-3.185-1.63-4-.815-1.036 1.037-2.962.889-5.406-.296-5.11-2.518-11.257-4.963-14.294-5.63-5.11-1.11-13.48-.888-15.109.371-.814.593-2.221 1.111-3.11 1.111-.963 0-1.852.296-2.074.667-.518.814 2.074 1.555 5.48 1.555 2.741 0 8.444 2.444 7.63 3.259-.371.37 1.925 2.592 4.443 4.221.444.297.444 1.26.074 2.444l-.667 1.926-2.37-1.63c-1.333-.962-2.592-2.295-2.888-2.962-.889-2.888-2.444-3.555-8.147-3.555-4.221 0-5.629.296-5.925 1.111-.296.593-.963 1.111-1.555 1.111-.593 0-.815.296-.593.74.74 1.186-.518.89-2-.518-1.184-1.11-1.555-1.11-4.073 0-1.555.593-3.777 1.333-5.036 1.555-2.148.445-2.148.445-.74-.74 1.629-1.26 2.073-1.26-4.37.074-1.037.222-2.667 0-3.703-.519-1.556-.666-2.444-.592-4.814.445-2.444 1.11-3.111 1.185-4.518.296-1.333-.74-1.778-.74-2-.074-.222.518-1.259.963-2.296 1.037h-2l1.852.815c1.037.444 2.889 1.259 4.222 1.777 3.258 1.481 5.258 1.26 10.59-.889 3.26-1.333 4.889-1.629 5.407-1.11.444.444 2.074.814 3.63.814 2.22 0 2.665-.222 2.295-1.185-.37-1.11.296-1.185 6.517-.666 7.259.518 10.665 1.777 5.407 1.925-2.296.148-1.926.296 1.926.815 7.258 1.037 8.22 1.333 7.776 2.074-.222.444.148.74.889.74.815 0 1.777.37 2.222.815.518.518 1.48.666 2.222.37 1.259-.518 1.259-.592.074-1.259-.741-.444-1.334-1.037-1.334-1.407 0-1.26 10.814 4.962 13.998 8.073 2.148 2.222 3.407 2.962 3.925 2.444.963-.963 4.518 1.11 3.852 2.148-.222.37.074.666.666.666.593 0 2.444 1.481 4.148 3.333 1.63 1.777 3.036 2.888 3.036 2.444 0-1.407-12.664-13.553-15.33-14.738-1.334-.519-2.445-1.26-2.445-1.63 0-.296-1.185-1.11-2.592-1.777-3.258-1.556-3.333-2.444-.074-2.444 2.815 0 4.148 1.11 2.148 1.777-.74.222-.37.296.889.148 2.222-.296 8.517 2.518 12.146 5.333 1.11.889 2.444 1.259 3.703 1.037 1.703-.37 1.333-.667-3.259-2.815-2.888-1.407-4.814-2.518-4.295-2.518 2.073 0-.148-2.814-2.963-3.703-2.74-.815-2.962-.963-1.703-1.851 1.481-1.111 4.518-.519 7.628 1.629 1.185.815 4.222 2.37 6.814 3.407 4.74 2.073 6.665 3.258 11.85 7.702 1.555 1.333 3.11 2.148 3.407 1.852.37-.297.296-.074 0 .518-.445.815-.297.963.666.593.74-.297 1.111-.223.815.222-.222.444-.148.74.296.74.444 0 1.185.741 1.63 1.63.666 1.407.666 1.555-.149.74-2-1.851-1.925-.74.223 3.185 1.185 2.222 1.851 4.074 1.407 4.074-1.185 0-.963 1.185.37 2.518 1.63 1.703.963 5.628-1.777 9.702-1.26 1.925-2.074 3.925-1.852 4.518.222.518-.074 1.185-.593 1.407-.74.296-1.036 1.555-.888 4.073 0 2.074-.222 3.925-.593 4.148-.592.37-.814-.519-1.037-5.407 0-.889-.37-1.926-.74-2.222-.296-.296-.37-.222-.148.222.444.815-1.408 2.148-2.593 1.926-.37-.074-.592.222-.592.667 0 .444-.444.666-1.037.444-.666-.296-1.185.222-1.481 1.407-.963 3.555-2.444 1.555-2.074-2.888.074-.667-.148-1.26-.518-1.26s-1.111-1.258-1.556-2.814c-1.185-3.703-7.554-16.441-8.295-16.441-.296 0-.592.296-.592.74 0 1.333-1.407.74-1.852-.74-.74-2.296-5.999-7.407-7.628-7.407-.74 0-1.703.741-2.074 1.556-.74 1.555-.814 1.48-4.295-1.482-4.666-4.073-6.888-5.11-11.924-5.702-3.555-.445-4.148-.741-3.852-1.852.223-.889-.148-1.407-1.259-1.63-.814-.221 1.26-.221 4.74-.073 6.296.296 6.296.296 3.703-.89-1.925-.888-3.85-1.11-7.776-.814-4.666.445-5.48.296-8.443-1.481-3.333-1.926-4.073-1.926-9.702.296-.963.37-.963.296-.148-.74.814-.963.74-1.185-.37-1.556-3.556-1.037-13.554-.074-13.554 1.333 0 1.037 5.48 4.37 6.147 3.704.222-.223.593-.075.815.296.815 1.333-7.999 1.63-15.405.518-4.073-.592-7.406-1.11-7.48-1.11-.593 0-.815-2.963-.222-3.556.37-.37.222-.963-.37-1.555-.815-.667-1.778-.518-4.296.592-1.778.815-3.481 1.26-3.778 1.111-.296-.222-.592 0-.592.37 0 .445-.667.815-1.407.815-.815 0-1.704.297-1.926.741-.666 1.111-1.63.889-2.148-.37-.518-1.407 1.037-4.074 2.296-4.074.519 0 .963-.37.963-.74 0-.445.519-.74 1.111-.74 2 0 4.814-3.037 4.37-4.815-.37-1.481.666-3.037 2.296-3.333 2.296-.444 6.22-2.518 6.591-3.407.296-.74.074-.814-.889-.296-1.407.74-9.924 3.703-10.813 3.703-.296 0-.296-.37-.074-.74.222-.445-.074-.741-.74-.741-.667 0-.963.296-.741.74.222.37-.222.741-1.037.741s-1.703.296-1.925.74c-.223.371-.075.741.444.741.518 0 .444.593-.37 1.778-.667 1.037-.963 2.37-.741 2.962.222.667.148 1.185-.296 1.185-.445 0-.889-.296-1.037-.666-.074-.37-1.63 0-3.407.815-1.852.888-3.037 1.925-2.814 2.444.37 1.11-2.148 4.073-3.555 4.073-1.26 0-7.258 6.592-6.74 7.406.222.37.074.815-.296 1.037-.37.222-.889-.148-1.185-.889-.445-1.185-.519-1.185-1.26.074-.518.963-.444 2 .149 3.555.815 1.926.74 2.444-.519 3.852-1.925 2.147-6.073 11.775-6.443 14.812-.148 1.333-.296 2.666-.37 3.11-.074.37-.445.223-.889-.37-.593-.814-.667-.444-.37 1.482.37 1.925.222 2.295-.37 1.48-.593-.814-.667-.592-.371 1.112.222 1.259-.074 2.962-.667 4.073-1.259 2.148-1.48 1.037-.37-2 .74-2 .667-2-.444-.592-.74 1.037-1.037 2.296-.74 4.073.221 1.408.444 3.185.444 3.852 0 .74.518 1.333 1.11 1.333.667 0 1.111-.667 1.111-1.704 0-.888.445-2.296 1.037-3.11.519-.815 1.111-3.259 1.333-5.407.223-2.148.667-4.221 1.111-4.666 1.111-1.11.445 8.295-.814 11.258-.593 1.48-1.333 4.517-1.556 6.813-.222 2.222-.888 5.037-1.48 6.148-.593 1.185-1.112 3.85-1.112 5.999 0 4.443-.518 6.147-1.851 6.147-1.185 0-2.296-10.073-1.408-13.11.297-1.184.593-5.258.667-9.183.148-4.888.518-7.628 1.333-8.887.593-.963 1.63-3.852 2.296-6.37.667-2.592 1.852-5.999 2.666-7.702 2.667-5.11 1.185-4-2.444 1.925-2.962 4.74-3.555 6.37-3.925 10.74-.667 6.59-1.778 7.48-1.778 1.48 0-3.406.37-5.11 1.482-6.739.888-1.11 1.703-3.851 1.925-5.999.519-4.222 1.778-7.999 2.74-7.999.37 0 1.778-1.185 3.111-2.666 2.518-2.666 2.518-2.74 1.407-5.332-1.333-3.333-1.555-3.481-2.666-2.519-.74.593-1.037-.148-1.259-3.406-.592-8.073-.444-9.925.963-10.962.815-.518 1.407-2 1.481-3.184.074-1.407.37-1.926.74-1.481.445.37 1.26.666 1.926.666.667 0 1.185.593 1.185 1.407 0 .815-.222 1.333-.444 1.185-.889-.592-3.259 4.518-3.48 7.406-.075 1.63-.371 3.704-.593 4.518-.37 1.704.518 2.815 2.962 3.481 1.26.37 1.852-.37 3.925-4.518 1.26-2.74 2.37-5.48 2.37-6.147 0-1.555 2.667-4 3.26-3.036 1.036 1.63 7.109-1.111 7.109-3.185 0-.889-3.48-.222-5.11 1.037-2.666 2-4.37 1.11-2.222-1.111.889-.963 1.481-1.926 1.333-2.148-.37-.296-3.333.37-5.999 1.481-1.778.741-1.778-1.703 0-3.703 2.666-3.036 8.295-6.665 8.295-5.258 0 .222-.296 1.185-.74 2.222-.741 2.074 0 2.518 1.629.963.814-.89 5.554-3.481 6.295-3.481.889 0-.074 1.407-1.63 2.222-1.258.666-1.851 1.555-1.777 2.888.074 1.333.222 1.555.444.592.297-1.036.815-1.259 2.444-.888 1.26.296 3.26-.074 5.259-.963 10.59-4.666 13.257-5.48 13.775-4.074.223.519-.148.963-.814.963-.667 0-1.185.297-1.185.74 0 .371 1.333.667 2.962.593 3.333-.074 3.703-.666 1.333-2-.962-.444-1.11-.666-.444-.518.74.222 1.777-.074 2.37-.666.592-.593 1.333-1.111 1.63-1.111.37 0 .222.37-.297.889-1.037 1.036-1.185 2.37-.148 1.703 1.852-1.11 8.665-1.11 13.85 0 7.85 1.777 18.885 2.37 24.292 1.407l2.962-.518-2.221-.963-2.222-.889 1.851-.815c1.704-.74 1.63-.814-.592-.37-1.333.222-2.889.074-3.407-.37-.593-.519-4.814-.889-10.369-.889-6.517-.074-9.332-.37-9.11-.963.297-.962 7.48-2.444 15.702-3.184 3.48-.297 4.962-.667 3.703-.815-2.74-.37-18.368 1.259-21.7 2.222-1.408.444-4.592.889-7.11.963-2.518.148-5.851.518-7.407.814-1.851.297-2.74.223-2.444-.222.667-1.11-5.332.074-8.22 1.63-1.334.666-4.148 2.37-6.222 3.777-2.073 1.407-3.85 2.444-3.999 2.296-.815-.741 1.481-4.889 3.11-5.63 1.037-.443 3.185-1.85 4.666-3.11 2.222-1.703 4.222-2.444 8.888-3.258 3.333-.593 6.666-1.408 7.332-1.852 1.852-1.037 4.518-.815 9.036.74zm-25.922 1.407c0 .37-.667.814-1.481 1.037-.815.222-1.482.074-1.482-.223 0-.37.593-.814 1.334-.962.666-.223 1.333-.37 1.48-.445.075 0 .149.222.149.593zm73.321.444c0 .222-.148.37-.37.37s-.37-.148-.37-.37.148-.37.37-.37.37.148.37.37zm10.369 0c0 .222-.148.37-.37.37s-.37-.148-.37-.37.148-.37.37-.37.37.148.37.37zm-87.393.74c0 .223-.148.371-.37.371-.223 0-.37-.148-.37-.37s.147-.37.37-.37c.222 0 .37.148.37.37zm79.987.371c.592.37.814.74.37.74-.37 0-1.259-.37-1.851-.74-.593-.37-.741-.74-.37-.74.444 0 1.258.37 1.85.74zm-100.725 2.814c0 .37-.518.667-1.11.667-.593 0-1.111-.296-1.111-.667 0-.296.518-.592 1.11-.592.593 0 1.111.296 1.111.592zm2.519 1.26c.222.592.074 1.11-.297 1.11-.444 0-.74-.518-.74-1.11 0-.593.148-1.111.296-1.111s.444.518.74 1.11zm5.628.74c0 .222-.148.37-.37.37s-.37-.148-.37-.37.148-.37.37-.37.37.148.37.37zm86.653 6.221c0 .741-5.185 2.148-6.518 1.704-1.555-.519-.962-1.556 1.185-1.852 3.703-.592 5.333-.518 5.333.148zm-100.947 1.333c-.296.223-.518 0-.518-.518s.222-.74.518-.518a.89.89 0 010 1.036zm130.572-.148c0 .223-.148.37-.37.37-.223 0-.371-.147-.371-.37 0-.222.148-.37.37-.37.223 0 .37.148.37.37zm-131.83.74c0 .223-.149.371-.371.371s-.37-.148-.37-.37.148-.37.37-.37.37.148.37.37zm106.056 1.334c.518.518 1.926 1.555 3.11 2.296 1.482.963 1.852 1.481 1.186 1.926-1.111.666-6.814-.667-6.222-1.556.223-.37-.518-1.037-1.703-1.48-1.63-.593-1.777-.89-.963-1.408 1.556-.963 3.407-.889 4.592.222zm27.625-.222c.222.37.296.74.074.74-.222 0-.592-.37-.814-.74-.223-.444-.297-.74-.074-.74.222 0 .592.296.814.74zm-136.348 1.925c.667 1.63-.222 2.37-1.037 1.037-.889-1.407-.889-2.222-.074-2.222.37 0 .889.519 1.111 1.185zm3.259.223c.222.592-.074.888-.667.666-.518-.148-1.11-.74-1.259-1.259-.222-.592.074-.889.667-.666.518.148 1.11.74 1.259 1.259zm83.616 1.259c-.222.222-.889.296-1.407.074-.593-.222-.37-.445.444-.445.815-.074 1.259.149.963.37zm-54.214 1.037c-.222.37-.888.74-1.333.74-.518 0-.444-.296.222-.74 1.408-.89 1.704-.89 1.111 0zm-20.96 2.221c-.666 1.185-1.406 1.852-1.554 1.408-.223-.667 1.925-3.63 2.592-3.63.148 0-.37.963-1.037 2.222zm40.587-.37c0 .222-.148.37-.37.37-.223 0-.37-.148-.37-.37s.147-.37.37-.37c.222 0 .37.148.37.37zm55.324.074c-.222.222-.889.296-1.407.074-.593-.222-.37-.444.444-.444.815-.074 1.26.148.963.37zm-10.146.667c0 .222-.148.37-.37.37-.223 0-.371-.148-.371-.37s.148-.37.37-.37c.223 0 .37.148.37.37zm-102.206.74c0 .223-.148.37-.37.37s-.37-.147-.37-.37c0-.222.148-.37.37-.37s.37.148.37.37zm110.352 0c0 .223-.148.37-.37.37s-.37-.147-.37-.37c0-.222.148-.37.37-.37s.37.148.37.37zm-110.352 2.222c0 .222-.148.37-.37.37s-.37-.148-.37-.37.148-.37.37-.37.37.148.37.37zm1.26 1.63c-.297.222-.52 0-.52-.519 0-.518.223-.74.52-.518a.89.89 0 010 1.037zm74.802 2.221a.89.89 0 01-1.037 0c-.222-.296 0-.518.518-.518.519 0 .74.222.519.518zm-63.842 3.778c-.592.592-1.851-1.26-1.851-2.815 0-.666.444-.444 1.185.593.666.963.963 1.925.666 2.222zm18.442-2.37c2-.074 3.258 0 2.814.148-.444.148-.666.666-.444 1.259 1.037 2.592-6.073 3.48-8.295 1.037-1.333-1.482-1.333-1.556.074-2.592.74-.593 1.555-.741 1.777-.37.223.37 2.074.592 4.074.518zm88.578.666c0 .222-.148.37-.37.37-.223 0-.37-.148-.37-.37s.147-.37.37-.37c.222 0 .37.148.37.37zm1.481 1.481c0 .223-.148.37-.37.37s-.37-.147-.37-.37c0-.222.148-.37.37-.37s.37.148.37.37zm-120.72 1.111c0 .37-.149.741-.297.741-.222 0-.593-.37-.815-.74-.222-.445-.074-.741.296-.741.445 0 .815.296.815.74zm2.962.37c0 .223-.149.371-.37.371-.223 0-.371-.148-.371-.37 0-.223.148-.37.37-.37s.37.147.37.37zm-1.482.741c0 .222-.148.37-.37.37s-.37-.148-.37-.37.148-.37.37-.37.37.148.37.37zm13.331 2.222c0 .222-.148.37-.37.37s-.37-.148-.37-.37.148-.37.37-.37.37.148.37.37zm23.7 1.481c0 .223-.148.37-.37.37s-.37-.147-.37-.37c0-.222.148-.37.37-.37s.37.148.37.37zm111.093 38.365c0 .962.297 2 .667 2.37.815.962 2.444 7.85 2 8.294-.223.223.074 1.556.666 2.963.963 2.296.963 2.518 0 2.148-.815-.297-.963.074-.592 1.777.74 3.925-1.111 2.37-2-1.703-.518-2.074-1.852-5.777-3.037-8.073-2.147-4.296-2.221-5.703-.074-8.22 1.556-1.704 2.37-1.556 2.37.444zm8.888 42.067c0 .37-.296.666-.74.666-.371 0-.741-.518-.741-1.185 0-.592.37-.888.74-.666.445.222.74.74.74 1.185zm-62.953-126.35c0 .222.148.37.37.37.223 0 .37-.148.37-.37s-.147-.37-.37-.37c-.222 0-.37.148-.37.37zM246.011 83.3c1.333.149 3.333.149 4.444 0 1.11-.148 0-.296-2.444-.296s-3.333.148-2 .296zm19.997 0c.518.223 1.185.149 1.407-.074.296-.222-.148-.444-.963-.37-.814 0-1.036.222-.444.444zm-65.767 5.037c0 .222.148.37.37.37s.37-.148.37-.37c0-.223-.148-.37-.37-.37s-.37.147-.37.37zm20.59 2.147c-1.482 1.408-2.445 2.74-2.223 2.963.223.222.074.444-.37.444-1.11 0-5.406 4.592-4.962 5.259.222.37 1.703 0 3.259-.815 1.629-.815 3.999-1.481 5.332-1.555 2.148-.074 2.222-.148.667-.593l-1.778-.518 1.926-1.26c2.148-1.406 4.221-1.629 4.221-.518 0 .37.74.74 1.704.667h11.109c9.85 0 13.109-.445 10.443-1.481-1.185-.445-1.111-.593.592-.593 3.185-.074 3.259-1.555.074-1.63-13.33-.296-19.034-.666-19.7-1.332-1.111-1.111-3.703-1.037-3.037.074.37.518.222.592-.444.222-.519-.296-1.111-.222-1.407.222-.667 1.111-4.518 2-4.518 1.037 0-.444.667-1.037 1.481-1.26.815-.221 1.481-.814 1.481-1.184 0-1.26-1.259-.667-3.85 1.851zm.518 1.926c.222.37.296.74.074.74-.222 0-.593-.37-.815-.74-.222-.444-.296-.74-.074-.74.222 0 .592.296.815.74zm26.144-.222c-.741.148-2.074.148-2.963 0-.963-.148-.37-.296 1.26-.296 1.628-.074 2.37.074 1.703.296zm-27.996 3.184c-1.481.963-2.444.963-1.851 0 .222-.444 1.036-.74 1.703-.74 1.11 0 1.11.148.148.74zm-7.258.149c-.518.518-.889 1.185-.889 1.555 0 .37.519.074 1.185-.593.667-.666 1.037-1.333.889-1.48-.148-.223-.74.073-1.185.518zm17.108.37a.89.89 0 001.037 0c.222-.296 0-.519-.518-.519-.519 0-.74.223-.519.519zm-2.814.963c-.222.37-.074.74.296.74.445 0 .815-.37.815-.74 0-.445-.148-.74-.296-.74-.223 0-.593.295-.815.74zm16.886 1.259a.89.89 0 001.037 0c.222-.296 0-.519-.518-.519-.519 0-.741.223-.519.519zm-55.028 3.925c0 .519.222.74.518.519a.89.89 0 000-1.037c-.296-.223-.518 0-.518.518zm-2.222.74c0 .371.37.741.74.741.445 0 .741-.37.741-.74 0-.445-.296-.74-.74-.74a.74.74 0 00-.74.74zm31.625.52c-.223.37.444.666 1.48.74 1.408.074 1.63-.074.89-.593-1.26-.814-1.926-.814-2.37-.148zm92.059-.149c0 .222.148.37.37.37s.37-.148.37-.37-.148-.37-.37-.37-.37.148-.37.37zm-89.245 2.592c-.222.445.37.74 1.407.74s2.074-.37 2.296-.74c.222-.444-.37-.74-1.407-.74s-2.074.296-2.296.74zm73.692.37c0 .223.148.37.37.37s.37-.147.37-.37c0-.222-.148-.37-.37-.37s-.37.148-.37.37zm-74.803 2.74c0 .371 1.407.593 3.11.593 1.704 0 2.89-.222 2.593-.444-.667-.667-5.703-.815-5.703-.148zm54.88.593c1.778 1.556 4.888 2.667 5.555 2 .222-.222-.519-.963-1.704-1.63-1.925-1.11-1.925-1.11-.222-.666 1.037.296 1.63.222 1.333-.074-.296-.296-1.925-.667-3.629-.815l-3.11-.296 1.777 1.481zm16.22-.37c0 .222.148.37.37.37s.37-.148.37-.37-.148-.37-.37-.37-.37.148-.37.37zm1.851 1.11c.222.371.593.742.815.742.222 0 .148-.37-.074-.741-.222-.444-.593-.74-.815-.74-.222 0-.148.296.074.74zm-.74 1.63c.222.519 1.777 1.926 3.332 3.11 1.63 1.26 2.963 2.445 2.963 2.815 0 .296.37.593.889.593.444 0-.075-1.037-1.334-2.296-2.74-2.889-6.369-5.555-5.85-4.222zm2.592-.518c0 .222.148.37.37.37s.37-.148.37-.37-.148-.37-.37-.37-.37.148-.37.37zm12.146 1.333c-.444 1.259 1.777 4.888 3.036 4.962.445 0 1.556.889 2.519 1.852 1.407 1.555 1.48 1.777.37 1.407-.815-.296-1.778-.815-2.296-1.185-.519-.445-1.333-.445-1.778-.148-.518.296-1.259 0-1.703-.593-.963-1.333-6.37-3.777-6.443-2.962 0 .296-.149 1.259-.37 2.222-.297 1.703 2.962 5.702 4.147 4.962.296-.222 1.11.37 1.703 1.333.889 1.407.963 2 .222 3.407-1.851 3.407.519 8.22 4 8.22.592 0 1.555.667 2.073 1.482 1.037 1.703 4.074 1.407 6-.519.74-.814 1.184-.814 1.555-.222.74 1.185 1.481-.889 1.481-3.925 0-2.518-1.555-5.333-4.74-8.962-1.037-1.185-1.777-2.295-1.63-2.444.667-.666 3.111 1.185 4.148 3.037.963 1.851 2.222 2.592 2.222 1.333 0-.296-1.777-2.814-3.925-5.629-4.296-5.628-9.776-9.628-10.591-7.628zm-2 9.184a.89.89 0 01-1.037 0c-.222-.297 0-.519.519-.519.518 0 .74.222.518.519zm2.444-.148c0 .222-.148.37-.37.37s-.37-.148-.37-.37c0-.223.148-.37.37-.37s.37.147.37.37zm2.222 0c0 .222-.148.37-.37.37s-.37-.148-.37-.37c0-.223.148-.37.37-.37s.37.147.37.37zm2.963 11.035c-.37.963-.445 2-.223 2.222.297.222-.074.444-.74.444-.74 0-1.111-.444-.889-1.111.222-.592.518-1.63.74-2.222.149-.592.667-1.11 1.038-1.11.518 0 .518.666.074 1.777zm1.851 4.888c.222.37.074.74-.296.74-.444 0-.815-.37-.815-.74 0-.445.148-.74.296-.74.223 0 .593.295.815.74zm-131.46-24.81c0 .221.148.37.37.37.223 0 .37-.149.37-.37 0-.223-.147-.371-.37-.371-.222 0-.37.148-.37.37zm107.39 2.962c0 .592.518 1.11 1.185 1.11 1.037 0 1.037-.222.296-1.11-.518-.593-1.037-1.111-1.185-1.111-.148 0-.296.518-.296 1.11zm-111.834.74c0 .222.149.37.37.37.223 0 .371-.148.371-.37s-.148-.37-.37-.37-.37.148-.37.37zm-.37 5.629c-.296.444-.37.889-.148 1.11.148.223.518-.147.74-.814.519-1.259.075-1.481-.592-.296zm-7.036 8.443c0 .222.148.37.37.37.223 0 .37-.148.37-.37s-.147-.37-.37-.37c-.222 0-.37.148-.37.37zm143.162 9.776a.89.89 0 001.037 0c.222-.296 0-.518-.519-.518-.518 0-.74.222-.518.518zm.518 3.555c0 .222.149.37.37.37.223 0 .371-.148.371-.37s-.148-.37-.37-.37-.37.148-.37.37zM175.578 88.04c.297.963.593 1.333.815.741.148-.518-.074-1.333-.444-1.703-.593-.593-.667-.297-.37.962zm-4.221 1.037c0 .222.148.37.37.37s.37-.148.37-.37-.148-.37-.37-.37-.37.148-.37.37zm-6.666 11.48c0 .518.222.74.519.518a.89.89 0 000-1.037c-.297-.222-.519 0-.519.519zm87.986 18.293c.444.148 1.333.148 1.851 0 .445-.222.074-.37-.962-.37-1.037 0-1.408.148-.89.37zm-89.467 1.333c0 .222.148.37.37.37s.37-.148.37-.37-.148-.37-.37-.37-.37.148-.37.37zm122.943 10.369c0 .222.148.37.37.37s.37-.148.37-.37-.148-.37-.37-.37-.37.148-.37.37zm2.37 48.807c-.815 1.11-1.852 1.925-2.296 1.925-1.111 0-1.037.963.148 2.148.444.593.593.889.148.667a89.694 89.694 0 01-3.629-1.63c-2.222-.962-3.777-1.185-6.295-.74-1.852.296-6.147.444-9.406.37-6.666-.222-8.443.889-8.443 5.11 0 4.148.815 4.37 11.998 3.111 9.332-1.037 10.59-1.037 15.923.148 3.185.667 6.592 1.407 7.629 1.555 1.037.149 2.592.519 3.407.741 1.555.518 1.629.296 1.48-4.37-.147-5.925-1.258-7.332-5.85-7.776-.296-.074-.519-.667-.37-1.407.37-2.074-2.74-2-4.444.148zm.37 6.888c-.296.222-.518 0-.518-.519 0-.518.222-.74.518-.518a.89.89 0 010 1.037zm-100.206-4.148c-3.407.963-4.443 2.518-3.48 5.184.444 1.185.666 2.815.444 3.63-1.111 4.295 1.481 6.369 4.888 3.925 1.037-.667 3.48-1.556 5.555-2 3.703-.815 25.255-.815 29.846-.074 1.926.37 2.445.148 2.815-1.11 1.11-3.482-4.888-6.296-14.887-7.037-2.814-.222-6.295-.518-7.702-.74-1.555-.223-3.481.148-4.814.814-2.963 1.63-7.554 2.74-6.37 1.556.445-.445.815-1.778.815-2.889 0-1.851-.222-2.074-2.37-2-1.333 0-3.48.37-4.74.741z" fill="#873100"/></svg>